<?xml version="1.0" encoding="UTF-8" standalone="no"?>
<!-- Created with Inkscape (http://www.inkscape.org/) -->

<svg
   width="88.884827mm"
   height="91.382843mm"
   viewBox="0 0 88.884824 91.382846"
   version="1.1"
   id="svg2146"
   xmlns="http://www.w3.org/2000/svg"
   xmlns:svg="http://www.w3.org/2000/svg">
  <defs
     id="defs2143">
    <filter
       style="color-interpolation-filters:sRGB"
       id="filter2723"
       x="-0.064947896"
       y="-0.064947821"
       width="1.1298958"
       height="1.1298956">
      <feGaussianBlur
         stdDeviation="1.8250489"
         id="feGaussianBlur2725" />
    </filter>
  </defs>
  <g
     id="layer1"
     transform="translate(-65.983724,-54.859387)">
    <path
       d="m 110.42614,54.859387 a 44.442409,45.691362 0 0 0 -44.442416,45.691433 44.442409,45.691362 0 0 0 44.442416,45.69141 44.442409,45.691362 0 0 0 44.44241,-45.69141 44.442409,45.691362 0 0 0 -44.44241,-45.691433 z m 3.69212,5.576075 c 4.36302,0.42546 8.62627,1.599279 12.61154,3.473912 a 0.90339295,0.92878078 0 0 1 0.40695,1.309344 l -6.54717,11.659206 a 0.90339295,0.92878078 0 0 1 -1.11746,0.398747 c -1.79031,-0.734731 -3.65931,-1.249654 -5.56744,-1.533801 a 0.90339295,0.92878078 0 0 1 -0.77419,-0.920014 V 61.359687 a 0.90339295,0.92878078 0 0 1 0.98858,-0.924701 z m -7.24694,0.0106 a 0.90339295,0.92878078 0 0 1 0.83848,0.926278 v 13.478598 a 0.90339295,0.92878078 0 0 1 -0.77664,0.919961 c -1.9054,0.27787 -3.77203,0.786528 -5.56137,1.514968 A 0.90339295,0.92878078 0 0 1 100.25678,76.88712 L 93.712019,65.232744 a 0.90339295,0.92878078 0 0 1 0.406946,-1.307742 c 3.982474,-1.874315 8.242045,-3.049419 12.602655,-3.47611 a 0.90339295,0.92878078 0 0 1 0.14967,0 z m 25.92364,7.109585 a 0.90339295,0.92878078 0 0 1 0.34206,0.156808 c 3.57217,2.611271 6.69344,5.820332 9.23312,9.492717 a 0.90339295,0.92878078 0 0 1 -0.28479,1.342268 l -11.34413,6.733737 a 0.90339295,0.92878078 0 0 1 -1.16158,-0.229093 c -1.19245,-1.557349 -2.55988,-2.963241 -4.07456,-4.189055 a 0.90339295,0.92878078 0 0 1 -0.22371,-1.194679 l 6.54999,-11.662834 a 0.90339295,0.92878078 0 0 1 0.5902,-0.442717 0.90339295,0.92878078 0 0 1 0.37334,0 z m -44.733285,0.03139 a 0.90339295,0.92878078 0 0 1 0.373354,0 0.90339295,0.92878078 0 0 1 0.59019,0.442744 l 6.541918,11.648796 a 0.90339295,0.92878078 0 0 1 -0.223713,1.193181 c -1.512196,1.22453 -2.878125,2.628502 -4.069301,4.183215 a 0.90339295,0.92878078 0 0 1 -1.161291,0.229093 l -11.3304,-6.725724 A 0.90339295,0.92878078 0 0 1 78.498407,77.21604 c 2.537299,-3.667206 5.654296,-6.871539 9.221001,-9.480148 a 0.90339295,0.92878078 0 0 1 0.342049,-0.157007 z m 22.356135,13.470268 a 0.90339295,0.92878078 0 0 1 10e-4,0 c 2.04177,0 4.07011,0.340673 6.00619,1.006337 a 0.90339295,0.92878078 0 0 1 0.49628,1.345407 l -4.70969,8.386535 a 0.90339295,0.92878078 0 0 1 -0.88337,0.45841 c -0.29853,-0.03139 -0.59936,-0.04715 -0.89941,-0.04715 -0.29701,0.0093 -0.59248,0.03139 -0.8872,0.07854 a 0.90339295,0.92878078 0 0 1 -0.90277,-0.455285 l -4.71735,-8.400189 a 0.90339295,0.92878078 0 0 1 0.49476,-1.34542 c 1.93396,-0.66879 3.96008,-1.011052 6.00052,-1.015767 z m 34.73054,2.197426 a 0.90339295,0.92878078 0 0 1 0.37182,0.03139 0.90339295,0.92878078 0 0 1 0.54667,0.497665 c 1.82326,4.097315 2.96539,8.479957 3.37883,12.966007 a 0.90339295,0.92878078 0 0 1 -0.89909,1.015714 h -13.09549 a 0.90339295,0.92878078 0 0 1 -0.89391,-0.795932 c -0.27485,-1.961791 -0.77571,-3.882896 -1.49112,-5.723453 a 0.90339295,0.92878078 0 0 1 0.3871,-1.149212 l 11.34049,-6.731061 a 0.90339295,0.92878078 0 0 1 0.35503,-0.12542 z m -69.443285,0.0093 a 0.90339295,0.92878078 0 0 1 0.355029,0.125817 l 11.336444,6.728704 a 0.90339295,0.92878078 0 0 1 0.388626,1.146047 c -0.709301,1.83951 -1.203594,3.758722 -1.473721,5.717996 a 0.90339295,0.92878078 0 0 1 -0.894369,0.797534 H 72.306148 A 0.90339295,0.92878078 0 0 1 71.407044,96.7628 c 0.415349,-4.482752 1.557948,-8.862533 3.380972,-12.956895 a 0.90339295,0.92878078 0 0 1 0.546669,-0.497692 0.90339295,0.92878078 0 0 1 0.371064,-0.03139 z m 46.547355,2.479535 a 0.90339295,0.92878078 0 0 1 0.74365,0.221371 c 3.07643,2.801374 5.1848,6.555077 6.00741,10.694335 a 0.90339295,0.92878078 0 0 1 -0.88491,1.114633 h -9.4238 a 0.90339295,0.92878078 0 0 1 -0.82794,-0.55729 c -0.24281,-0.571474 -0.54743,-1.114659 -0.90751,-1.616404 a 0.90339295,0.92878078 0 0 1 -0.0535,-1.015753 l 4.71091,-8.388892 a 0.90339295,0.92878078 0 0 1 0.63752,-0.452159 z m -23.653461,0.01642 a 0.90339295,0.92878078 0 0 1 0.637531,0.45216 l 4.69916,8.368642 a 0.90339295,0.92878078 0 0 1 -0.0459,1.007899 c -0.35275,0.502381 -0.6505,1.044003 -0.88613,1.615132 a 0.90339295,0.92878078 0 0 1 -0.83146,0.56517 h -9.431479 a 0.90339295,0.92878078 0 0 1 -0.884749,-1.116221 c 0.826266,-4.130478 2.93235,-7.874592 6.002557,-10.67092 a 0.90339295,0.92878078 0 0 1 0.743659,-0.221385 z M 72.306027,103.34002 h 13.11091 a 0.90339295,0.92878078 0 0 1 0.89437,0.79907 c 0.27028,1.95897 0.764729,3.87834 1.47372,5.71767 a 0.90339295,0.92878078 0 0 1 -0.388625,1.14602 l -11.335637,6.72872 a 0.90339295,0.92878078 0 0 1 -1.273071,-0.41785 c -1.823115,-4.09436 -2.96584,-8.47366 -3.380969,-12.95689 a 0.90339295,0.92878078 0 0 1 0.899102,-1.01731 z m 20.431387,0 h 9.431486 a 0.90339295,0.92878078 0 0 1 0.83131,0.56517 c 0.23591,0.56988 0.53292,1.11148 0.88612,1.61511 a 0.90339295,0.92878078 0 0 1 0.0459,1.00793 l -4.699191,8.36768 a 0.90339295,0.92878078 0 0 1 -1.381334,0.23069 c -3.070366,-2.7962 -5.176329,-6.54015 -6.002549,-10.67108 a 0.90339295,0.92878078 0 0 1 0.884751,-1.11624 z m 25.932536,0 h 9.43231 a 0.90339295,0.92878078 0 0 1 0.8846,1.11619 c -0.82626,4.13049 -2.93263,7.87459 -6.00296,10.67092 a 0.90339295,0.92878078 0 0 1 -1.38118,-0.23069 l -4.69918,-8.36864 a 0.90339295,0.92878078 0 0 1 0.0459,-1.0079 c 0.35274,-0.50237 0.64975,-1.044 0.88612,-1.61512 a 0.90339295,0.92878078 0 0 1 0.831,-0.56519 z m 16.75238,0 h 13.11092 a 0.90339295,0.92878078 0 0 1 0.89909,1.01731 c -0.41535,4.48275 -1.55777,8.86253 -3.38089,12.95689 a 0.90339295,0.92878078 0 0 1 -1.27322,0.41759 l -11.33566,-6.7287 a 0.90339295,0.92878078 0 0 1 -0.38862,-1.14605 c 0.7093,-1.83933 1.20359,-3.75856 1.47372,-5.71767 a 0.90339295,0.92878078 0 0 1 0.89452,-0.79907 z m -25.88003,5.49989 c 0.2909,0.0472 0.58332,0.0629 0.87697,0.0785 0.29319,-0.009 0.58637,-0.0314 0.87711,-0.0785 a 0.90339295,0.92878078 0 0 1 0.90293,0.4553 l 4.71735,8.39971 a 0.90339295,0.92878078 0 0 1 -0.49475,1.3454 c -1.93406,0.66879 -3.96046,1.01104 -6.00094,1.01576 a 0.90339295,0.92878078 0 0 1 -0.004,0 c -2.04027,-0.009 -4.06648,-0.3485 -6.00052,-1.01576 a 0.90339295,0.92878078 0 0 1 -0.49475,-1.34383 l 4.71695,-8.39976 a 0.90339295,0.92878078 0 0 1 0.90277,-0.45525 z m -19.128416,6.87327 a 0.90339295,0.92878078 0 0 1 0.320673,0.009 0.90339295,0.92878078 0 0 1 0.539035,0.33754 c 1.191068,1.55422 2.557011,2.95884 4.069302,4.18338 a 0.90339295,0.92878078 0 0 1 0.223711,1.19315 l -6.541916,11.64882 a 0.90339295,0.92878078 0 0 1 -1.305903,0.29203 c -3.566989,-2.60873 -6.683743,-5.81315 -9.220997,-9.48015 a 0.90339295,0.92878078 0 0 1 0.284026,-1.34227 l 11.330396,-6.7259 a 0.90339295,0.92878078 0 0 1 0.301583,-0.10979 z m 40.011096,0 a 0.90339295,0.92878078 0 0 1 0.3016,0.10979 l 11.33038,6.7257 a 0.90339295,0.92878078 0 0 1 0.28402,1.34232 c -2.5373,3.66718 -5.65429,6.87155 -9.22099,9.48012 a 0.90339295,0.92878078 0 0 1 -1.30589,-0.29217 l -6.54153,-11.64939 a 0.90339295,0.92878078 0 0 1 0.22372,-1.19316 c 1.51204,-1.22451 2.8778,-2.62879 4.0689,-4.18368 a 0.90339295,0.92878078 0 0 1 0.53903,-0.33749 0.90339295,0.92878078 0 0 1 0.32068,-0.009 z m -10.64395,8.04573 a 0.90339295,0.92878078 0 0 1 0.31609,0.0472 v -1.5e-4 a 0.90339295,0.92878078 0 0 1 0.48559,0.41288 l 6.54476,11.65419 a 0.90339295,0.92878078 0 0 1 -0.40619,1.30932 c -3.98249,1.87432 -8.24286,3.04926 -12.60266,3.47596 a 0.90339295,0.92878078 0 0 1 -0.98904,-0.9247 v -13.47875 a 0.90339295,0.92878078 0 0 1 0.77664,-0.92001 c 1.9054,-0.27784 3.77202,-0.78649 5.56135,-1.51497 a 0.90339295,0.92878078 0 0 1 0.31381,-0.0629 z m -18.72279,1.5e-4 a 0.90339295,0.92878078 0 0 1 0.3138,0.0629 c 1.78921,0.72845 3.65576,1.2371 5.56137,1.51497 a 0.90339295,0.92878078 0 0 1 0.77663,0.91996 v 13.4794 a 0.90339295,0.92878078 0 0 1 -0.98874,0.92468 c -4.3602,-0.427 -8.620206,-1.60164 -12.602658,-3.47599 a 0.90339295,0.92878078 0 0 1 -0.406183,-1.3093 l 6.544761,-11.65419 a 0.90339295,0.92878078 0 0 1 0.48482,-0.41288 0.90339295,0.92878078 0 0 1 0.3161,-0.0471 z"
       fill="currentColor"
       id="path796"
       style="fill:#22c55e;fill-opacity:1;stroke-width:0.264582" />
  </g>
</svg>
