<?xml version="1.0" encoding="UTF-8" standalone="no"?>
<!-- Created with Inkscape (http://www.inkscape.org/) -->

<!-- Morio wordmark font is phosphate (with some tweaks -->

<!-- Connect ... Respond font is Myriad Pro (Semi-Bold Italic Semi-Condensed) -->

<svg
   width="324.11914mm"
   height="90.013756mm"
   viewBox="0 0 324.11914 90.013758"
   version="1.1"
   id="svg5"
   xmlns:xlink="http://www.w3.org/1999/xlink"
   xmlns="http://www.w3.org/2000/svg"
   xmlns:svg="http://www.w3.org/2000/svg">
  <defs
     id="defs2">
    <linearGradient
       id="linearGradient7959">
      <stop
         style="stop-color:#0c526b;stop-opacity:1;"
         offset="0"
         id="stop7955" />
      <stop
         style="stop-color:#127498;stop-opacity:1;"
         offset="1"
         id="stop7957" />
    </linearGradient>
    <filter
       style="color-interpolation-filters:sRGB"
       id="filter2723"
       x="-0.064947896"
       y="-0.064947821"
       width="1.1298958"
       height="1.1298956">
      <feGaussianBlur
         stdDeviation="1.8250489"
         id="feGaussianBlur2725" />
    </filter>
    <filter
       style="color-interpolation-filters:sRGB"
       id="filter2729"
       x="-0.040099356"
       y="-0.18951272"
       width="1.0801987"
       height="1.3790254">
      <feGaussianBlur
         stdDeviation="3.7863698"
         id="feGaussianBlur2731" />
    </filter>
    <linearGradient
       xlink:href="#linearGradient7959"
       id="linearGradient2889"
       gradientUnits="userSpaceOnUse"
       x1="-77.739372"
       y1="471.53812"
       x2="234.3549"
       y2="634.3855"
       gradientTransform="translate(-9.5560571,-506.47103)" />
  </defs>
  <g
     id="layer1"
     transform="translate(-7.829405,-178.59202)">
    <path
       id="path2793"
       style="font-weight:bold;font-size:68.7248px;font-family:Arial;-inkscape-font-specification:'Arial, Bold';fill:#000000;fill-opacity:0.22;stroke:#000000;stroke-width:0.776697;stroke-linecap:round;stroke-linejoin:round;stroke-opacity:0.996587;filter:url(#filter2729)"
       d="m 50.453097,505.23681 v 50 h 17.116867 v -15.68539 l 10.744438,15.68539 h 0.527942 L 89.50867,539.55142 v 15.68539 h 17.11686 v -50 H 92.48188 L 78.579204,525.8094 64.596755,505.23681 Z m 209.503503,0 a 26.800613,26.800613 0 0 0 -26.80043,26.80043 26.800613,26.800613 0 0 0 13.62402,23.19957 h 26.35282 a 26.800613,26.800613 0 0 0 13.62403,-23.19957 26.800613,26.800613 0 0 0 -26.80044,-26.80043 z m -123.63554,5.4e-4 a 26.800613,26.800613 0 0 0 -26.80043,26.80044 26.800613,26.800613 0 0 0 13.62291,23.19902 h 26.35449 a 26.800613,26.800613 0 0 0 13.62347,-23.19902 26.800613,26.800613 0 0 0 -26.80044,-26.80044 z m 29.50663,0 v 49.99946 h 17.11686 v -9.97939 l 5.90488,9.97939 h 20.17483 l -7.99836,-14.07829 c 1.33934,-0.96434 2.54434,-2.14257 3.61583,-3.5355 0.91074,-1.23221 1.7412,-2.78612 2.49124,-4.66119 0.75002,-1.8751 1.12513,-4.15187 1.12513,-6.83057 0,-3.37515 -0.61588,-6.34863 -1.84807,-8.92018 -1.17865,-2.62513 -2.83953,-4.82164 -4.9825,-6.58959 -2.14294,-1.76795 -4.68783,-3.10727 -7.63439,-4.01801 -2.893,-0.91075 -6.05375,-1.36613 -9.48247,-1.36613 z m 55.29659,0.001 c -4.75115,0 -8.57615,3.82499 -8.57615,8.57616 v 11.70503 24.74351 4.97363 h 18.16222 v -4.97358 -24.74351 -11.70504 c 0,-4.75116 -3.82498,-8.57616 -8.57616,-8.57616 z m -38.17973,14.46386 h 0.88415 c 2.03582,0 3.74968,0.45533 5.1426,1.36611 1.44651,0.91075 2.16994,2.43789 2.16994,4.58085 0,2.14297 -0.72343,3.66956 -2.16994,4.58031 -1.39292,0.91075 -3.10678,1.36611 -5.1426,1.36611 h -0.88415 z m 77.01205,1.60764 a 10.727265,10.727265 0 0 1 10.72727,10.72726 10.727265,10.727265 0 0 1 -10.72727,10.72782 10.727265,10.727265 0 0 1 -10.72726,-10.72782 10.727265,10.727265 0 0 1 10.72726,-10.72726 z m -123.63554,5.5e-4 a 10.727265,10.727265 0 0 1 10.72727,10.72727 10.727265,10.727265 0 0 1 -10.72727,10.72726 10.727265,10.727265 0 0 1 -10.72782,-10.72726 10.727265,10.727265 0 0 1 10.72782,-10.72727 z"
       transform="matrix(1.2697847,0,0,1.3054691,-44.203148,-468.60887)" />
    <path
       id="path2795"
       style="font-weight:bold;font-size:68.7248px;font-family:Arial;-inkscape-font-specification:'Arial, Bold';fill:#ffffff;stroke-width:1;stroke-linecap:round;stroke-linejoin:round;stroke-opacity:0.996587"
       d="m 21.877207,188.88973 v 65.27345 h 21.734736 v -20.47679 l 13.643123,20.47679 h 0.670373 l 13.543937,-20.47679 v 20.47679 H 93.204115 V 188.88973 H 75.244713 L 57.591307,215.74661 39.836608,188.88973 Z m 266.024353,0 a 34.031008,34.987372 0 0 0 -34.03077,34.98713 34.031008,34.987372 0 0 0 17.29957,30.28632 h 33.46241 a 34.031008,34.987372 0 0 0 17.29958,-30.28632 34.031008,34.987372 0 0 0 -34.03079,-34.98713 z m -156.99052,7e-4 a 34.031008,34.987372 0 0 0 -34.030772,34.98715 34.031008,34.987372 0 0 0 17.298162,30.2856 h 33.46453 a 34.031008,34.987372 0 0 0 17.29887,-30.2856 34.031008,34.987372 0 0 0 -34.03079,-34.98715 z m 37.46707,0 v 65.27275 h 21.73473 V 241.1354 l 7.49792,13.02778 h 25.6177 l -10.1562,-18.37877 c 1.70067,-1.25892 3.23076,-2.79706 4.59133,-4.61549 1.15644,-1.60861 2.21094,-3.63719 3.16333,-6.08503 0.95237,-2.44789 1.42868,-5.42014 1.42868,-8.9171 0,-4.40616 -0.78204,-8.28794 -2.34665,-11.64502 -1.49664,-3.42703 -3.6056,-6.2945 -6.32671,-8.60251 -2.72107,-2.308 -5.95253,-4.05644 -9.69403,-5.24539 -3.67349,-1.18895 -7.68696,-1.78344 -12.04069,-1.78344 z m 70.21477,0.001 c -6.03294,0 -10.88987,4.99341 -10.88987,11.19591 v 15.28056 32.30188 6.49292 h 23.06211 v -6.49285 -32.30189 -15.28057 c 0,-6.20249 -4.8569,-11.19591 -10.88988,-11.19591 z m -48.48004,18.88212 h 1.12268 c 2.58505,0 4.76128,0.59442 6.52999,1.78342 1.83676,1.18895 2.75536,3.18259 2.75536,5.98015 0,2.79758 -0.9186,4.7905 -2.75536,5.97946 -1.76871,1.18895 -3.94494,1.78341 -6.52999,1.78341 h -1.12268 z m 97.78872,2.09873 a 13.621317,14.004113 0 0 1 13.62132,14.0041 13.621317,14.004113 0 0 1 -13.62132,14.00484 13.621317,14.004113 0 0 1 -13.62131,-14.00484 13.621317,14.004113 0 0 1 13.62131,-14.0041 z m -156.99052,7.1e-4 a 13.621317,14.004113 0 0 1 13.62133,14.00412 13.621317,14.004113 0 0 1 -13.62133,14.00411 13.621317,14.004113 0 0 1 -13.62202,-14.00411 13.621317,14.004113 0 0 1 13.62202,-14.00412 z" />
  </g>
</svg>
