<?xml version="1.0" encoding="UTF-8" standalone="no"?>
<!-- Created with Inkscape (http://www.inkscape.org/) -->

<!-- Morio wordmark font is phosphate (with some tweaks -->

<!-- Connect ... Respond font is Myriad Pro (Semi-Bold Italic Semi-Condensed) -->

<svg
   width="300.05515mm"
   height="65.273453mm"
   viewBox="0 0 300.05514 65.273454"
   version="1.1"
   id="svg5"
   xmlns:xlink="http://www.w3.org/1999/xlink"
   xmlns="http://www.w3.org/2000/svg"
   xmlns:svg="http://www.w3.org/2000/svg">
  <defs
     id="defs2">
    <linearGradient
       id="linearGradient7959">
      <stop
         style="stop-color:#0c526b;stop-opacity:1;"
         offset="0"
         id="stop7955" />
      <stop
         style="stop-color:#127498;stop-opacity:1;"
         offset="1"
         id="stop7957" />
    </linearGradient>
    <filter
       style="color-interpolation-filters:sRGB"
       id="filter2723"
       x="-0.064947896"
       y="-0.064947821"
       width="1.1298958"
       height="1.1298956">
      <feGaussianBlur
         stdDeviation="1.8250489"
         id="feGaussianBlur2725" />
    </filter>
    <filter
       style="color-interpolation-filters:sRGB"
       id="filter2729"
       x="-0.040099356"
       y="-0.18951271"
       width="1.0801986"
       height="1.3790255">
      <feGaussianBlur
         stdDeviation="3.7863698"
         id="feGaussianBlur2731" />
    </filter>
    <linearGradient
       xlink:href="#linearGradient7959"
       id="linearGradient2889"
       gradientUnits="userSpaceOnUse"
       x1="-77.739372"
       y1="471.53812"
       x2="234.3549"
       y2="634.3855"
       gradientTransform="translate(-9.5560571,-506.47103)" />
  </defs>
  <g
     id="layer1"
     transform="translate(-21.877207,-188.88973)">
    <path
       id="path2795"
       style="font-weight:bold;font-size:68.7248px;font-family:Arial;-inkscape-font-specification:'Arial, Bold';fill:#000000;stroke-width:1;stroke-linecap:round;stroke-linejoin:round;stroke-opacity:0.996587"
       d="m 21.877207,188.88973 v 65.27345 h 21.734736 v -20.47679 l 13.643123,20.47679 h 0.670373 l 13.543937,-20.47679 v 20.47679 H 93.204115 V 188.88973 H 75.244713 L 57.591307,215.74661 39.836608,188.88973 Z m 266.024353,0 a 34.031008,34.987372 0 0 0 -34.03077,34.98713 34.031008,34.987372 0 0 0 17.29957,30.28632 h 33.46241 a 34.031008,34.987372 0 0 0 17.29958,-30.28632 34.031008,34.987372 0 0 0 -34.03079,-34.98713 z m -156.99052,7e-4 a 34.031008,34.987372 0 0 0 -34.030772,34.98715 34.031008,34.987372 0 0 0 17.298162,30.2856 h 33.46453 a 34.031008,34.987372 0 0 0 17.29887,-30.2856 34.031008,34.987372 0 0 0 -34.03079,-34.98715 z m 37.46707,0 v 65.27275 h 21.73473 V 241.1354 l 7.49792,13.02778 h 25.6177 l -10.1562,-18.37877 c 1.70067,-1.25892 3.23076,-2.79706 4.59133,-4.61549 1.15644,-1.60861 2.21094,-3.63719 3.16333,-6.08503 0.95237,-2.44789 1.42868,-5.42014 1.42868,-8.9171 0,-4.40616 -0.78204,-8.28794 -2.34665,-11.64502 -1.49664,-3.42703 -3.6056,-6.2945 -6.32671,-8.60251 -2.72107,-2.308 -5.95253,-4.05644 -9.69403,-5.24539 -3.67349,-1.18895 -7.68696,-1.78344 -12.04069,-1.78344 z m 70.21477,0.001 c -6.03294,0 -10.88987,4.99341 -10.88987,11.19591 v 15.28056 32.30188 6.49292 h 23.06211 v -6.49285 -32.30189 -15.28057 c 0,-6.20249 -4.8569,-11.19591 -10.88988,-11.19591 z m -48.48004,18.88212 h 1.12268 c 2.58505,0 4.76128,0.59442 6.52999,1.78342 1.83676,1.18895 2.75536,3.18259 2.75536,5.98015 0,2.79758 -0.9186,4.7905 -2.75536,5.97946 -1.76871,1.18895 -3.94494,1.78341 -6.52999,1.78341 h -1.12268 z m 97.78872,2.09873 a 13.621317,14.004113 0 0 1 13.62132,14.0041 13.621317,14.004113 0 0 1 -13.62132,14.00484 13.621317,14.004113 0 0 1 -13.62131,-14.00484 13.621317,14.004113 0 0 1 13.62131,-14.0041 z m -156.99052,7.1e-4 a 13.621317,14.004113 0 0 1 13.62133,14.00412 13.621317,14.004113 0 0 1 -13.62133,14.00411 13.621317,14.004113 0 0 1 -13.62202,-14.00411 13.621317,14.004113 0 0 1 13.62202,-14.00412 z" />
  </g>
</svg>
