<?xml version="1.0" encoding="UTF-8" standalone="no"?>
<!-- Created with Inkscape (http://www.inkscape.org/) -->

<!-- Morio wordmark font is phosphate (with some tweaks -->

<!-- Connect ... Respond font is Myriad Pro (Semi-Bold Italic Semi-Condensed) -->

<svg
   width="432.41629mm"
   height="103.25307mm"
   viewBox="0 0 432.41629 103.25307"
   version="1.1"
   id="svg5"
   xmlns:xlink="http://www.w3.org/1999/xlink"
   xmlns="http://www.w3.org/2000/svg"
   xmlns:svg="http://www.w3.org/2000/svg">
  <defs
     id="defs2">
    <linearGradient
       id="linearGradient7959">
      <stop
         style="stop-color:#0c526b;stop-opacity:1;"
         offset="0"
         id="stop7955" />
      <stop
         style="stop-color:#127498;stop-opacity:1;"
         offset="1"
         id="stop7957" />
    </linearGradient>
    <filter
       style="color-interpolation-filters:sRGB"
       id="filter2723"
       x="-0.064947893"
       y="-0.064947818"
       width="1.1298958"
       height="1.1298956">
      <feGaussianBlur
         stdDeviation="1.8250489"
         id="feGaussianBlur2725" />
    </filter>
    <filter
       style="color-interpolation-filters:sRGB"
       id="filter2729"
       x="-0.040099356"
       y="-0.18951272"
       width="1.0801987"
       height="1.3790254">
      <feGaussianBlur
         stdDeviation="3.7863698"
         id="feGaussianBlur2731" />
    </filter>
    <linearGradient
       xlink:href="#linearGradient7959"
       id="linearGradient2889"
       gradientUnits="userSpaceOnUse"
       x1="-77.739372"
       y1="471.53812"
       x2="234.3549"
       y2="634.3855"
       gradientTransform="translate(-9.5560571,-506.47103)" />
  </defs>
  <g
     id="layer1"
     transform="translate(100.46773,-175.27532)">
    <path
       d="m -47.564717,179.138 a 44.442409,45.691362 0 0 0 -44.442416,45.69143 44.442409,45.691362 0 0 0 44.442416,45.69141 44.442409,45.691362 0 0 0 44.442412,-45.69141 44.442409,45.691362 0 0 0 -44.442412,-45.69143 z m 3.69212,5.57607 c 4.363016,0.42546 8.626266,1.59928 12.61154,3.47391 a 0.90339295,0.92878078 0 0 1 0.40695,1.30935 l -6.547166,11.6592 a 0.90339295,0.92878078 0 0 1 -1.117467,0.39875 c -1.790304,-0.73473 -3.659303,-1.24965 -5.567435,-1.5338 a 0.90339295,0.92878078 0 0 1 -0.77419,-0.92001 V 185.6383 a 0.90339295,0.92878078 0 0 1 0.988582,-0.9247 z m -7.246943,0.0106 a 0.90339295,0.92878078 0 0 1 0.838485,0.92628 v 13.47859 a 0.90339295,0.92878078 0 0 1 -0.776642,0.91996 c -1.905402,0.27787 -3.772032,0.78653 -5.561368,1.51497 a 0.90339295,0.92878078 0 0 1 -1.115013,-0.39874 l -6.54476,-11.65438 a 0.90339295,0.92878078 0 0 1 0.406946,-1.30774 c 3.982474,-1.87431 8.242048,-3.04942 12.602658,-3.47611 a 0.90339295,0.92878078 0 0 1 0.149663,0 z m 25.923647,7.10958 a 0.90339295,0.92878078 0 0 1 0.34206,0.15681 c 3.572171,2.61127 6.693438,5.82033 9.233115,9.49272 a 0.90339295,0.92878078 0 0 1 -0.284788,1.34227 l -11.344126,6.73373 a 0.90339295,0.92878078 0 0 1 -1.16159,-0.22909 c -1.192445,-1.55735 -2.55988,-2.96324 -4.074553,-4.18906 a 0.90339295,0.92878078 0 0 1 -0.223715,-1.19467 l 6.549994,-11.66284 a 0.90339295,0.92878078 0 0 1 0.590196,-0.44272 0.90339295,0.92878078 0 0 1 0.373346,0 z m -44.733289,0.0314 a 0.90339295,0.92878078 0 0 1 0.373354,0 0.90339295,0.92878078 0 0 1 0.59019,0.44274 l 6.541918,11.6488 a 0.90339295,0.92878078 0 0 1 -0.223713,1.19318 c -1.512196,1.22453 -2.878125,2.6285 -4.069301,4.18322 a 0.90339295,0.92878078 0 0 1 -1.161291,0.22909 l -11.3304,-6.72572 a 0.90339295,0.92878078 0 0 1 -0.284025,-1.3423 c 2.537299,-3.66721 5.654296,-6.87154 9.221001,-9.48015 a 0.90339295,0.92878078 0 0 1 0.342049,-0.157 z m 22.356138,13.47027 a 0.90339295,0.92878078 0 0 1 0.0014,0 c 2.041768,0 4.070106,0.34067 6.006189,1.00634 a 0.90339295,0.92878078 0 0 1 0.496286,1.3454 l -4.709691,8.38654 a 0.90339295,0.92878078 0 0 1 -0.883378,0.45841 c -0.298522,-0.0314 -0.599358,-0.0472 -0.899402,-0.0472 -0.297012,0.009 -0.592481,0.0314 -0.887206,0.0785 a 0.90339295,0.92878078 0 0 1 -0.902769,-0.45529 l -4.717352,-8.40019 a 0.90339295,0.92878078 0 0 1 0.494762,-1.34542 c 1.933961,-0.66879 3.960085,-1.01105 6.000524,-1.01577 z m 34.730535,2.19742 a 0.90339295,0.92878078 0 0 1 0.371825,0.0314 0.90339295,0.92878078 0 0 1 0.546671,0.49767 c 1.823258,4.09731 2.9653908,8.47995 3.3788268,12.966 a 0.90339295,0.92878078 0 0 1 -0.8990956,1.01572 H -22.539763 a 0.90339295,0.92878078 0 0 1 -0.893913,-0.79593 c -0.27485,-1.96179 -0.775712,-3.8829 -1.491118,-5.72346 a 0.90339295,0.92878078 0 0 1 0.387094,-1.14921 l 11.340494,-6.73106 a 0.90339295,0.92878078 0 0 1 0.355029,-0.12542 z m -69.443283,0.009 a 0.90339295,0.92878078 0 0 1 0.355029,0.12581 l 11.336444,6.72871 a 0.90339295,0.92878078 0 0 1 0.388626,1.14604 c -0.709301,1.83951 -1.203594,3.75872 -1.473721,5.718 a 0.90339295,0.92878078 0 0 1 -0.894369,0.79753 h -13.110926 a 0.90339295,0.92878078 0 0 1 -0.899104,-1.01733 c 0.415349,-4.48275 1.557948,-8.86253 3.380972,-12.95689 a 0.90339295,0.92878078 0 0 1 0.546669,-0.49769 0.90339295,0.92878078 0 0 1 0.371064,-0.0314 z m 46.547355,2.47953 a 0.90339295,0.92878078 0 0 1 0.743647,0.22137 c 3.076429,2.80138 5.184805,6.55508 6.007411,10.69434 a 0.90339295,0.92878078 0 0 1 -0.884908,1.11463 h -9.4238 a 0.90339295,0.92878078 0 0 1 -0.827939,-0.55729 c -0.242808,-0.57147 -0.547433,-1.11466 -0.907506,-1.6164 a 0.90339295,0.92878078 0 0 1 -0.05349,-1.01576 l 4.710909,-8.38889 a 0.90339295,0.92878078 0 0 1 0.637519,-0.45216 z m -23.653461,0.0164 a 0.90339295,0.92878078 0 0 1 0.637531,0.45216 l 4.69916,8.36864 a 0.90339295,0.92878078 0 0 1 -0.04587,1.0079 c -0.352743,0.50238 -0.650502,1.04401 -0.886126,1.61514 a 0.90339295,0.92878078 0 0 1 -0.831456,0.56517 h -9.431484 a 0.90339295,0.92878078 0 0 1 -0.884749,-1.11623 c 0.826266,-4.13047 2.93235,-7.87459 6.002557,-10.67092 a 0.90339295,0.92878078 0 0 1 0.743659,-0.22138 z m -26.292932,17.58007 h 13.11091 a 0.90339295,0.92878078 0 0 1 0.89437,0.79907 c 0.27028,1.95897 0.764729,3.87834 1.47372,5.71767 a 0.90339295,0.92878078 0 0 1 -0.388625,1.14602 l -11.335637,6.72872 a 0.90339295,0.92878078 0 0 1 -1.273071,-0.41785 c -1.823115,-4.09436 -2.96584,-8.47366 -3.380969,-12.95689 a 0.90339295,0.92878078 0 0 1 0.899102,-1.01731 z m 20.431387,0 h 9.431487 a 0.90339295,0.92878078 0 0 1 0.831306,0.56517 c 0.235916,0.56988 0.532925,1.11148 0.886126,1.61511 a 0.90339295,0.92878078 0 0 1 0.04587,1.00793 l -4.699186,8.36768 a 0.90339295,0.92878078 0 0 1 -1.381334,0.23069 c -3.070366,-2.7962 -5.176329,-6.54015 -6.002549,-10.67108 a 0.90339295,0.92878078 0 0 1 0.884751,-1.11624 z m 25.932537,0 h 9.432312 a 0.90339295,0.92878078 0 0 1 0.884601,1.11619 c -0.826264,4.13049 -2.932632,7.87459 -6.002961,10.67092 a 0.90339295,0.92878078 0 0 1 -1.38118,-0.23069 l -4.699187,-8.36864 a 0.90339295,0.92878078 0 0 1 0.04587,-1.0079 c 0.352741,-0.50237 0.649751,-1.044 0.886125,-1.61512 a 0.90339295,0.92878078 0 0 1 0.831,-0.56519 z m 16.752375,0 h 13.1109204 a 0.90339295,0.92878078 0 0 1 0.8990929,1.01731 c -0.4153476,4.48275 -1.5577713,8.86253 -3.3808913,12.95689 a 0.90339295,0.92878078 0 0 1 -1.273218,0.41759 l -11.335661,-6.7287 a 0.90339295,0.92878078 0 0 1 -0.388619,-1.14605 c 0.709298,-1.83933 1.203588,-3.75856 1.473717,-5.71767 a 0.90339295,0.92878078 0 0 1 0.894523,-0.79907 z m -25.880023,5.49989 c 0.290898,0.0472 0.583322,0.0629 0.876965,0.0785 0.293188,-0.009 0.586372,-0.0314 0.877117,-0.0785 a 0.90339295,0.92878078 0 0 1 0.90292,0.4553 l 4.717353,8.39971 a 0.90339295,0.92878078 0 0 1 -0.494749,1.3454 c -1.934057,0.66879 -3.960457,1.01104 -6.000939,1.01576 a 0.90339295,0.92878078 0 0 1 -0.0041,0 c -2.040273,-0.009 -4.066479,-0.3485 -6.000523,-1.01576 a 0.90339295,0.92878078 0 0 1 -0.494749,-1.34383 l 4.716955,-8.39976 a 0.90339295,0.92878078 0 0 1 0.902765,-0.45525 z m -19.128419,6.87327 a 0.90339295,0.92878078 0 0 1 0.320673,0.009 0.90339295,0.92878078 0 0 1 0.539035,0.33754 c 1.191068,1.55422 2.557011,2.95884 4.069302,4.18338 a 0.90339295,0.92878078 0 0 1 0.223711,1.19315 l -6.541916,11.64882 a 0.90339295,0.92878078 0 0 1 -1.305903,0.29203 c -3.566989,-2.60873 -6.683743,-5.81315 -9.220997,-9.48015 a 0.90339295,0.92878078 0 0 1 0.284026,-1.34227 l 11.330396,-6.7259 a 0.90339295,0.92878078 0 0 1 0.301583,-0.10979 z m 40.011097,0 a 0.90339295,0.92878078 0 0 1 0.301596,0.10979 l 11.330382,6.7257 a 0.90339295,0.92878078 0 0 1 0.284026,1.34232 c -2.537309,3.66718 -5.654293,6.87155 -9.220992,9.48012 a 0.90339295,0.92878078 0 0 1 -1.305894,-0.29217 l -6.541525,-11.64939 a 0.90339295,0.92878078 0 0 1 0.223713,-1.19316 c 1.512042,-1.22451 2.877799,-2.62879 4.068901,-4.18368 a 0.90339295,0.92878078 0 0 1 0.539034,-0.33749 0.90339295,0.92878078 0 0 1 0.32068,-0.009 z m -10.643951,8.04573 a 0.90339295,0.92878078 0 0 1 0.316094,0.0471 v -1.5e-4 a 0.90339295,0.92878078 0 0 1 0.485589,0.41288 l 6.544754,11.65419 a 0.90339295,0.92878078 0 0 1 -0.406191,1.30932 c -3.982489,1.87432 -8.242855,3.04926 -12.602657,3.47596 a 0.90339295,0.92878078 0 0 1 -0.989043,-0.9247 v -13.47875 a 0.90339295,0.92878078 0 0 1 0.776644,-0.92001 c 1.905402,-0.27784 3.772015,-0.78649 5.561351,-1.51497 a 0.90339295,0.92878078 0 0 1 0.313804,-0.0629 z m -18.722791,1.5e-4 a 0.90339295,0.92878078 0 0 1 0.313803,0.0629 c 1.78921,0.72845 3.655759,1.2371 5.561369,1.51497 a 0.90339295,0.92878078 0 0 1 0.776627,0.91996 v 13.4794 a 0.90339295,0.92878078 0 0 1 -0.988736,0.92468 c -4.360204,-0.427 -8.620208,-1.60164 -12.60266,-3.47599 a 0.90339295,0.92878078 0 0 1 -0.406183,-1.3093 l 6.544763,-11.65419 a 0.90339295,0.92878078 0 0 1 0.484814,-0.41288 0.90339295,0.92878078 0 0 1 0.316103,-0.0471 z"
       fill="currentColor"
       id="path2789"
       style="fill:#22c55e;fill-opacity:1;stroke-width:0.264582" />
    <path
       id="path2795"
       style="font-weight:bold;font-size:68.7248px;font-family:Arial;-inkscape-font-specification:'Arial, Bold';fill:#22c55e;stroke-width:1;stroke-linecap:round;stroke-linejoin:round;stroke-opacity:0.996587;fill-opacity:1"
       d="m 21.877207,188.88973 v 65.27345 h 21.734736 v -20.47679 l 13.643123,20.47679 h 0.670373 l 13.543937,-20.47679 v 20.47679 H 93.204115 V 188.88973 H 75.244713 L 57.591307,215.74661 39.836608,188.88973 Z m 266.024353,0 a 34.031008,34.987372 0 0 0 -34.03077,34.98713 34.031008,34.987372 0 0 0 17.29957,30.28632 h 33.46241 a 34.031008,34.987372 0 0 0 17.29958,-30.28632 34.031008,34.987372 0 0 0 -34.03079,-34.98713 z m -156.99052,7e-4 a 34.031008,34.987372 0 0 0 -34.030772,34.98715 34.031008,34.987372 0 0 0 17.298162,30.2856 h 33.46453 a 34.031008,34.987372 0 0 0 17.29887,-30.2856 34.031008,34.987372 0 0 0 -34.03079,-34.98715 z m 37.46707,0 v 65.27275 h 21.73473 V 241.1354 l 7.49792,13.02778 h 25.6177 l -10.1562,-18.37877 c 1.70067,-1.25892 3.23076,-2.79706 4.59133,-4.61549 1.15644,-1.60861 2.21094,-3.63719 3.16333,-6.08503 0.95237,-2.44789 1.42868,-5.42014 1.42868,-8.9171 0,-4.40616 -0.78204,-8.28794 -2.34665,-11.64502 -1.49664,-3.42703 -3.6056,-6.2945 -6.32671,-8.60251 -2.72107,-2.308 -5.95253,-4.05644 -9.69403,-5.24539 -3.67349,-1.18895 -7.68696,-1.78344 -12.04069,-1.78344 z m 70.21477,0.001 c -6.03294,0 -10.88987,4.99341 -10.88987,11.19591 v 15.28056 32.30188 6.49292 h 23.06211 v -6.49285 -32.30189 -15.28057 c 0,-6.20249 -4.8569,-11.19591 -10.88988,-11.19591 z m -48.48004,18.88212 h 1.12268 c 2.58505,0 4.76128,0.59442 6.52999,1.78342 1.83676,1.18895 2.75536,3.18259 2.75536,5.98015 0,2.79758 -0.9186,4.7905 -2.75536,5.97946 -1.76871,1.18895 -3.94494,1.78341 -6.52999,1.78341 h -1.12268 z m 97.78872,2.09873 a 13.621317,14.004113 0 0 1 13.62132,14.0041 13.621317,14.004113 0 0 1 -13.62132,14.00484 13.621317,14.004113 0 0 1 -13.62131,-14.00484 13.621317,14.004113 0 0 1 13.62131,-14.0041 z m -156.99052,7.1e-4 a 13.621317,14.004113 0 0 1 13.62133,14.00412 13.621317,14.004113 0 0 1 -13.62133,14.00411 13.621317,14.004113 0 0 1 -13.62202,-14.00411 13.621317,14.004113 0 0 1 13.62202,-14.00412 z" />
  </g>
</svg>
