<?xml version="1.0" encoding="UTF-8" standalone="no"?>
<!-- Created with Inkscape (http://www.inkscape.org/) -->
<!-- Morio wordmark font is phosphate (with some tweaks -->
<!-- Connect ... Respond font is Myriad Pro (Semi-Bold Italic Semi-Condensed) -->
<svg
   width="600mm"
   height="150mm"
   viewBox="0 0 600 150"
   version="1.1"
   id="svg5"
   xmlns:xlink="http://www.w3.org/1999/xlink"
   xmlns="http://www.w3.org/2000/svg"
   xmlns:svg="http://www.w3.org/2000/svg">
  <defs
     id="defs2">
    <linearGradient
       id="linearGradient7959">
      <stop
         style="stop-color:#0c526b;stop-opacity:1;"
         offset="0"
         id="stop7955" />
      <stop
         style="stop-color:#127498;stop-opacity:1;"
         offset="1"
         id="stop7957" />
    </linearGradient>
    <filter
       style="color-interpolation-filters:sRGB"
       id="filter2723"
       x="-0.064947893"
       y="-0.064947818"
       width="1.1298958"
       height="1.1298956">
      <feGaussianBlur
         stdDeviation="1.8250489"
         id="feGaussianBlur2725" />
    </filter>
    <filter
       style="color-interpolation-filters:sRGB"
       id="filter2729"
       x="-0.040099356"
       y="-0.18951272"
       width="1.0801987"
       height="1.3790254">
      <feGaussianBlur
         stdDeviation="3.7863698"
         id="feGaussianBlur2731" />
    </filter>
    <linearGradient
       xlink:href="#linearGradient7959"
       id="linearGradient2889"
       gradientUnits="userSpaceOnUse"
       x1="-77.739372"
       y1="471.53812"
       x2="234.3549"
       y2="634.3855"
       gradientTransform="translate(-9.5560571,-506.47103)" />
  </defs>
  <g
     id="layer1"
     transform="translate(184.20744,-148.63091)">
    <rect
       style="fill:url(#linearGradient2889);fill-opacity:1;stroke-width:0.1;stroke-linecap:round;stroke-linejoin:round;stroke-opacity:0.996587"
       id="rect2785"
       width="600"
       height="150"
       x="-184.20744"
       y="148.63091" />
    <g
       id="g2887"
       transform="matrix(1.2697847,0,0,1.3054691,-44.203148,-478.3603)"
       style="stroke-width:0.776697">
      <g
         id="g2791"
         transform="matrix(1.0144928,0,0,1.0144928,0.54561325,2.3381596)"
         style="stroke-width:0.765601">
        <path
           d="M -5.2337814,495.71413 A 34.499956,34.499956 0 0 0 -39.733742,530.21414 34.499956,34.499956 0 0 0 -5.2337814,564.71413 34.499956,34.499956 0 0 0 29.266178,530.21414 34.499956,34.499956 0 0 0 -5.2337814,495.71413 Z m 2.866136,4.2103 c 3.386942,0.32125 6.696437,1.20756 9.790144,2.62303 a 0.70129001,0.70129001 0 0 1 0.315909,0.98864 l -5.082464,8.80346 a 0.70129001,0.70129001 0 0 1 -0.867472,0.30108 c -1.38978604,-0.55477 -2.8406611,-0.94357 -4.321914,-1.15812 a 0.70129001,0.70129001 0 0 1 -0.600992,-0.69467 v -10.16557 a 0.70129001,0.70129001 0 0 1 0.767421,-0.69821 z m -5.62569,0.008 a 0.70129001,0.70129001 0 0 1 0.650903,0.6994 v 10.17722 a 0.70129001,0.70129001 0 0 1 -0.602895,0.69463 c -1.479134,0.20981 -2.9281696,0.59388 -4.3172036,1.1439 a 0.70129001,0.70129001 0 0 1 -0.865568,-0.30108 l -5.080596,-8.79981 a 0.70129001,0.70129001 0 0 1 0.315906,-0.98743 c 3.091533,-1.41523 6.398175,-2.30251 9.7832486,-2.62469 a 0.70129001,0.70129001 0 0 1 0.116181,0 z m 20.1241274,5.3682 a 0.70129001,0.70129001 0 0 1 0.265536,0.1184 c 2.773021,1.97168 5.196013,4.39473 7.167525,7.16762 a 0.70129001,0.70129001 0 0 1 -0.221077,1.0135 l -8.80627,5.08441 a 0.70129001,0.70129001 0 0 1 -0.9017241,-0.17298 c -0.9256772,-1.1759 -1.9871953,-2.23744 -3.1630133,-3.16301 a 0.70129001,0.70129001 0 0 1 -0.173666,-0.90206 l 5.0846594,-8.8062 a 0.70129001,0.70129001 0 0 1 0.45816,-0.33428 0.70129001,0.70129001 0 0 1 0.289823,0 z m -34.725762,0.0237 a 0.70129001,0.70129001 0 0 1 0.289829,0 0.70129001,0.70129001 0 0 1 0.458156,0.3343 l 5.07839,8.7956 a 0.70129001,0.70129001 0 0 1 -0.173665,0.90093 c -1.173895,0.9246 -2.234244,1.98469 -3.158936,3.1586 a 0.70129001,0.70129001 0 0 1 -0.901492,0.17298 l -8.795615,-5.07836 a 0.70129001,0.70129001 0 0 1 -0.220484,-1.01352 c 1.969666,-2.76898 4.389343,-5.18846 7.158121,-7.15813 a 0.70129001,0.70129001 0 0 1 0.265527,-0.11855 z m 17.3547246,10.17093 a 0.70129001,0.70129001 0 0 1 0.0011,0 c 1.584993,0 3.159561,0.25723 4.66251192,0.75985 a 0.70129001,0.70129001 0 0 1 0.38525902,1.01587 l -3.65605994,6.33238 a 0.70129001,0.70129001 0 0 1 -0.685753,0.34613 c -0.231738,-0.0237 -0.465272,-0.0356 -0.698192,-0.0356 -0.230566,0.007 -0.459934,0.0237 -0.688724,0.0593 a 0.70129001,0.70129001 0 0 1 -0.700806,-0.34377 l -3.6620066,-6.34269 a 0.70129001,0.70129001 0 0 1 0.3840756,-1.01588 c 1.501304,-0.50498 3.074153,-0.76341 4.658114,-0.76697 z m 26.9607794,1.6592 a 0.70129001,0.70129001 0 0 1 0.288642,0.0237 0.70129001,0.70129001 0 0 1 0.424372,0.37577 c 1.415367,3.09374 2.301987,6.40292 2.622931,9.79018 a 0.70129001,0.70129001 0 0 1 -0.697954,0.76693 h -10.16582 a 0.70129001,0.70129001 0 0 1 -0.693931,-0.60098 c -0.213362,-1.48128 -0.602173,-2.93184 -1.157532,-4.32158 a 0.70129001,0.70129001 0 0 1 0.300495,-0.86773 l 8.803451,-5.08239 a 0.70129001,0.70129001 0 0 1 0.275603,-0.0947 z m -53.907749,0.007 a 0.70129001,0.70129001 0 0 1 0.275603,0.095 l 8.800307,5.08061 a 0.70129001,0.70129001 0 0 1 0.301684,0.86534 c -0.550619,1.38895 -0.934331,2.83808 -1.144027,4.31746 a 0.70129001,0.70129001 0 0 1 -0.694285,0.60219 h -10.177809 a 0.70129001,0.70129001 0 0 1 -0.697961,-0.76815 c 0.322429,-3.38477 1.209411,-6.69179 2.624597,-9.7833 a 0.70129001,0.70129001 0 0 1 0.42437,-0.37579 0.70129001,0.70129001 0 0 1 0.288052,-0.0237 z m 36.1339926,1.87221 a 0.70129001,0.70129001 0 0 1 0.577282,0.16715 c 2.388184,2.11522 4.0248841,4.94951 4.6634602,8.07492 a 0.70129001,0.70129001 0 0 1 -0.6869401,0.84162 H 1.1850286 a 0.70129001,0.70129001 0 0 1 -0.64271602,-0.42079 c -0.18848802,-0.4315 -0.42496402,-0.84164 -0.70448304,-1.22049 a 0.70129001,0.70129001 0 0 1 -0.04152,-0.76696 l 3.65700606,-6.33416 a 0.70129001,0.70129001 0 0 1 0.494896,-0.34141 z m -18.3618166,0.0124 a 0.70129001,0.70129001 0 0 1 0.494906,0.34141 l 3.647885,6.31887 a 0.70129001,0.70129001 0 0 1 -0.03561,0.76103 c -0.273829,0.37933 -0.504975,0.78829 -0.687886,1.21953 a 0.70129001,0.70129001 0 0 1 -0.645447,0.42674 h -7.321515 a 0.70129001,0.70129001 0 0 1 -0.686817,-0.84282 c 0.641417,-3.11878 2.276338,-5.94583 4.659692,-8.05724 a 0.70129001,0.70129001 0 0 1 0.577291,-0.16716 z m -20.410797,13.2741 h 10.177797 a 0.70129001,0.70129001 0 0 1 0.694286,0.60335 c 0.209814,1.47915 0.593647,2.9284 1.144026,4.31721 a 0.70129001,0.70129001 0 0 1 -0.301684,0.86532 l -8.79968,5.08062 a 0.70129001,0.70129001 0 0 1 -0.988265,-0.3155 c -1.415256,-3.09151 -2.302336,-6.39817 -2.624594,-9.7833 a 0.70129001,0.70129001 0 0 1 0.697959,-0.76813 z m 15.86057,0 h 7.321518 a 0.70129001,0.70129001 0 0 1 0.64533,0.42674 c 0.183138,0.43029 0.413702,0.83924 0.687886,1.21951 a 0.70129001,0.70129001 0 0 1 0.03561,0.76105 l -3.647906,6.31815 a 0.70129001,0.70129001 0 0 1 -1.072308,0.17418 c -2.383478,-2.11131 -4.018304,-4.93824 -4.659686,-8.05736 a 0.70129001,0.70129001 0 0 1 0.686818,-0.84283 z m 20.1310286,0 h 7.3221581 a 0.70129001,0.70129001 0 0 1 0.6867021,0.84279 c -0.6414161,3.11879 -2.2765572,5.94583 -4.6600062,8.05724 a 0.70129001,0.70129001 0 0 1 -1.072189,-0.17418 l -3.64790606,-6.31887 a 0.70129001,0.70129001 0 0 1 0.03561,-0.76103 c 0.27382702,-0.37932 0.50439102,-0.78829 0.68788504,-1.21952 a 0.70129001,0.70129001 0 0 1 0.64509202,-0.42676 z m 13.0046104,0 h 10.177805 a 0.70129001,0.70129001 0 0 1 0.697952,0.76813 c -0.322428,3.38477 -1.209274,6.69179 -2.624534,9.7833 a 0.70129001,0.70129001 0 0 1 -0.988379,0.31531 l -8.799699,-5.08061 a 0.70129001,0.70129001 0 0 1 -0.301679,-0.86534 c 0.550617,-1.38882 0.934327,-2.83796 1.144024,-4.31722 a 0.70129001,0.70129001 0 0 1 0.694404,-0.60335 z m -20.0902634,4.15277 c 0.22582,0.0356 0.452824,0.0475 0.680775,0.0593 0.227597,-0.007 0.455191,-0.0237 0.680892,-0.0593 a 0.70129001,0.70129001 0 0 1 0.700923,0.34378 l 3.66200794,6.34233 a 0.70129001,0.70129001 0 0 1 -0.38406602,1.01587 c -1.50137792,0.50498 -3.07444092,0.7634 -4.65843592,0.76696 a 0.70129001,0.70129001 0 0 1 -0.0032,0 c -1.583832,-0.007 -3.156745,-0.26314 -4.658113,-0.76696 a 0.70129001,0.70129001 0 0 1 -0.3840656,-1.01468 l 3.6616986,-6.34237 a 0.70129001,0.70129001 0 0 1 0.700803,-0.34374 z m -14.8490956,5.18977 a 0.70129001,0.70129001 0 0 1 0.248933,0.007 0.70129001,0.70129001 0 0 1 0.418445,0.25486 c 0.924608,1.17354 1.984968,2.23412 3.158936,3.15873 a 0.70129001,0.70129001 0 0 1 0.173664,0.9009 l -5.078389,8.79562 a 0.70129001,0.70129001 0 0 1 -1.013752,0.2205 c -2.768999,-1.96976 -5.188487,-4.3893 -7.158118,-7.15813 a 0.70129001,0.70129001 0 0 1 0.220485,-1.0135 l 8.795612,-5.07849 a 0.70129001,0.70129001 0 0 1 0.234114,-0.0829 z m 31.059997,0 a 0.70129001,0.70129001 0 0 1 0.234124,0.0829 l 8.795601,5.07834 a 0.70129001,0.70129001 0 0 1 0.220485,1.01354 c -1.969674,2.76896 -4.38934,5.18847 -7.158114,7.15811 a 0.70129001,0.70129001 0 0 1 -1.013745,-0.22061 l -5.0780854,-8.79605 a 0.70129001,0.70129001 0 0 1 0.173665,-0.90091 c 1.173775,-0.92459 2.2339911,-1.98491 3.1586253,-3.15895 a 0.70129001,0.70129001 0 0 1 0.4184441,-0.25483 0.70129001,0.70129001 0 0 1 0.248939,-0.007 z m -8.2627354,6.07505 a 0.70129001,0.70129001 0 0 1 0.245379,0.0356 v -1.1e-4 a 0.70129001,0.70129001 0 0 1 0.376955,0.31175 l 5.080592,8.79967 a 0.70129001,0.70129001 0 0 1 -0.31532,0.98862 c -3.091545,1.41524 -6.398801,2.30239 -9.783248,2.62458 a 0.70129001,0.70129001 0 0 1 -0.767779,-0.69821 v -10.17733 a 0.70129001,0.70129001 0 0 1 0.602897,-0.69467 c 1.4791339,-0.20979 2.92815696,-0.59385 4.317191,-1.1439 a 0.70129001,0.70129001 0 0 1 0.243601,-0.0475 z m -14.5342136,1.1e-4 a 0.70129001,0.70129001 0 0 1 0.243601,0.0475 c 1.388936,0.55002 2.8379086,0.93409 4.3172046,1.1439 a 0.70129001,0.70129001 0 0 1 0.602883,0.69463 v 10.17782 a 0.70129001,0.70129001 0 0 1 -0.76754,0.6982 c -3.3847586,-0.32242 -6.6917346,-1.20935 -9.7832506,-2.6246 a 0.70129001,0.70129001 0 0 1 -0.315313,-0.98861 l 5.080598,-8.79967 a 0.70129001,0.70129001 0 0 1 0.376354,-0.31175 0.70129001,0.70129001 0 0 1 0.245386,-0.0356 z"
           fill="currentColor"
           id="path2787"
           style="fill:#000000;fill-opacity:0.23;stroke:#000000;stroke-width:0.202564;filter:url(#filter2723)" />
        <path
           d="M -3.147353,494.1493 A 34.499956,34.499956 0 0 0 -37.647314,528.64931 34.499956,34.499956 0 0 0 -3.147353,563.1493 34.499956,34.499956 0 0 0 31.352606,528.64931 34.499956,34.499956 0 0 0 -3.147353,494.1493 Z m 2.866136,4.2103 c 3.386942,0.32125 6.696437,1.20756 9.790144,2.62303 a 0.70129001,0.70129001 0 0 1 0.315909,0.98864 l -5.082464,8.80346 A 0.70129001,0.70129001 0 0 1 3.8749,511.07581 c -1.389786,-0.55477 -2.840661,-0.94357 -4.321914,-1.15812 a 0.70129001,0.70129001 0 0 1 -0.600992,-0.69467 v -10.16557 a 0.70129001,0.70129001 0 0 1 0.767421,-0.69821 z m -5.62569,0.008 a 0.70129001,0.70129001 0 0 1 0.650903,0.6994 v 10.17722 a 0.70129001,0.70129001 0 0 1 -0.602895,0.69463 c -1.479134,0.20981 -2.92817,0.59388 -4.317204,1.1439 a 0.70129001,0.70129001 0 0 1 -0.865568,-0.30108 l -5.080596,-8.79981 a 0.70129001,0.70129001 0 0 1 0.315906,-0.98743 c 3.091533,-1.41523 6.398175,-2.30251 9.783249,-2.62469 a 0.70129001,0.70129001 0 0 1 0.116181,0 z m 20.124127,5.3682 a 0.70129001,0.70129001 0 0 1 0.265536,0.1184 c 2.773021,1.97168 5.196013,4.39473 7.167525,7.16762 a 0.70129001,0.70129001 0 0 1 -0.221077,1.0135 l -8.80627,5.08441 a 0.70129001,0.70129001 0 0 1 -0.901724,-0.17298 c -0.925677,-1.1759 -1.987195,-2.23744 -3.163013,-3.16301 a 0.70129001,0.70129001 0 0 1 -0.173666,-0.90206 l 5.084659,-8.8062 a 0.70129001,0.70129001 0 0 1 0.45816,-0.33428 0.70129001,0.70129001 0 0 1 0.289823,0 z m -34.725762,0.0237 a 0.70129001,0.70129001 0 0 1 0.289829,0 0.70129001,0.70129001 0 0 1 0.458156,0.3343 l 5.07839,8.7956 a 0.70129001,0.70129001 0 0 1 -0.173665,0.90093 c -1.173895,0.9246 -2.234244,1.98469 -3.158936,3.1586 a 0.70129001,0.70129001 0 0 1 -0.901492,0.17298 l -8.795615,-5.07836 a 0.70129001,0.70129001 0 0 1 -0.220484,-1.01352 c 1.969666,-2.76898 4.389343,-5.18846 7.158121,-7.15813 a 0.70129001,0.70129001 0 0 1 0.265527,-0.11855 z m 17.354725,10.17093 a 0.70129001,0.70129001 0 0 1 0.0011,0 c 1.584993,0 3.159561,0.25723 4.662512,0.75985 a 0.70129001,0.70129001 0 0 1 0.385259,1.01587 l -3.65606,6.33238 a 0.70129001,0.70129001 0 0 1 -0.685753,0.34613 c -0.231738,-0.0237 -0.465272,-0.0356 -0.698192,-0.0356 -0.230566,0.007 -0.459934,0.0237 -0.688724,0.0593 a 0.70129001,0.70129001 0 0 1 -0.700806,-0.34377 l -3.662007,-6.34269 a 0.70129001,0.70129001 0 0 1 0.384076,-1.01588 c 1.501304,-0.50498 3.074153,-0.76341 4.658114,-0.76697 z m 26.960779,1.6592 a 0.70129001,0.70129001 0 0 1 0.288642,0.0237 0.70129001,0.70129001 0 0 1 0.424372,0.37577 c 1.415367,3.09374 2.301987,6.40292 2.622931,9.79018 a 0.70129001,0.70129001 0 0 1 -0.697954,0.76693 h -10.16582 a 0.70129001,0.70129001 0 0 1 -0.693931,-0.60098 c -0.213362,-1.48128 -0.602173,-2.93184 -1.157532,-4.32158 a 0.70129001,0.70129001 0 0 1 0.300495,-0.86773 l 8.803451,-5.08239 a 0.70129001,0.70129001 0 0 1 0.275603,-0.0947 z m -53.907749,0.007 a 0.70129001,0.70129001 0 0 1 0.275603,0.095 l 8.800307,5.08061 a 0.70129001,0.70129001 0 0 1 0.301684,0.86534 c -0.550619,1.38895 -0.934331,2.83808 -1.144027,4.31746 a 0.70129001,0.70129001 0 0 1 -0.694285,0.60219 h -10.177809 a 0.70129001,0.70129001 0 0 1 -0.697961,-0.76815 c 0.322429,-3.38477 1.209411,-6.69179 2.624597,-9.7833 a 0.70129001,0.70129001 0 0 1 0.42437,-0.37579 0.70129001,0.70129001 0 0 1 0.288052,-0.0237 z m 36.133993,1.87221 a 0.70129001,0.70129001 0 0 1 0.577282,0.16715 c 2.388184,2.11522 4.024884,4.94951 4.66346,8.07492 a 0.70129001,0.70129001 0 0 1 -0.68694,0.84162 H 3.271457 a 0.70129001,0.70129001 0 0 1 -0.642716,-0.42079 c -0.188488,-0.4315 -0.424964,-0.84164 -0.704483,-1.22049 a 0.70129001,0.70129001 0 0 1 -0.04152,-0.76696 l 3.657006,-6.33416 a 0.70129001,0.70129001 0 0 1 0.494896,-0.34141 z m -18.361817,0.0124 a 0.70129001,0.70129001 0 0 1 0.494906,0.34141 l 3.647885,6.31887 a 0.70129001,0.70129001 0 0 1 -0.03561,0.76103 c -0.273829,0.37933 -0.504975,0.78829 -0.687886,1.21953 a 0.70129001,0.70129001 0 0 1 -0.645447,0.42674 h -7.321515 a 0.70129001,0.70129001 0 0 1 -0.686817,-0.84282 c 0.641417,-3.11878 2.276338,-5.94583 4.659692,-8.05724 a 0.70129001,0.70129001 0 0 1 0.577291,-0.16716 z m -20.410797,13.2741 h 10.177797 a 0.70129001,0.70129001 0 0 1 0.694286,0.60335 c 0.209814,1.47915 0.593647,2.9284 1.144026,4.31721 a 0.70129001,0.70129001 0 0 1 -0.301684,0.86532 l -8.79968,5.08062 a 0.70129001,0.70129001 0 0 1 -0.988265,-0.3155 c -1.415256,-3.09151 -2.302336,-6.39817 -2.624594,-9.7833 a 0.70129001,0.70129001 0 0 1 0.697959,-0.76813 z m 15.86057,0 h 7.321518 a 0.70129001,0.70129001 0 0 1 0.64533,0.42674 c 0.183138,0.43029 0.413702,0.83924 0.687886,1.21951 a 0.70129001,0.70129001 0 0 1 0.03561,0.76105 l -3.647906,6.31815 a 0.70129001,0.70129001 0 0 1 -1.072308,0.17418 c -2.383478,-2.11131 -4.018304,-4.93824 -4.659686,-8.05736 a 0.70129001,0.70129001 0 0 1 0.686818,-0.84283 z m 20.131029,0 h 7.322158 a 0.70129001,0.70129001 0 0 1 0.686702,0.84279 c -0.641416,3.11879 -2.276557,5.94583 -4.660006,8.05724 A 0.70129001,0.70129001 0 0 1 5.528856,539.48119 L 1.88095,533.16232 a 0.70129001,0.70129001 0 0 1 0.03561,-0.76103 c 0.273827,-0.37932 0.504391,-0.78829 0.687885,-1.21952 a 0.70129001,0.70129001 0 0 1 0.645092,-0.42676 z m 13.00461,0 h 10.177805 a 0.70129001,0.70129001 0 0 1 0.697952,0.76813 c -0.322428,3.38477 -1.209274,6.69179 -2.624534,9.7833 a 0.70129001,0.70129001 0 0 1 -0.988379,0.31531 l -8.799699,-5.08061 a 0.70129001,0.70129001 0 0 1 -0.301679,-0.86534 c 0.550617,-1.38882 0.934327,-2.83796 1.144024,-4.31722 a 0.70129001,0.70129001 0 0 1 0.694404,-0.60335 z m -20.090263,4.15277 c 0.22582,0.0356 0.452824,0.0475 0.680775,0.0593 0.227597,-0.007 0.455191,-0.0237 0.680892,-0.0593 a 0.70129001,0.70129001 0 0 1 0.700923,0.34378 l 3.662008,6.34233 a 0.70129001,0.70129001 0 0 1 -0.384066,1.01587 c -1.501378,0.50498 -3.074441,0.7634 -4.658436,0.76696 a 0.70129001,0.70129001 0 0 1 -0.0032,0 c -1.583832,-0.007 -3.156745,-0.26314 -4.658113,-0.76696 a 0.70129001,0.70129001 0 0 1 -0.384066,-1.01468 l 3.661699,-6.34237 a 0.70129001,0.70129001 0 0 1 0.700803,-0.34374 z m -14.849096,5.18977 a 0.70129001,0.70129001 0 0 1 0.248933,0.007 0.70129001,0.70129001 0 0 1 0.418445,0.25486 c 0.924608,1.17354 1.984968,2.23412 3.158936,3.15873 a 0.70129001,0.70129001 0 0 1 0.173664,0.9009 l -5.078389,8.79562 a 0.70129001,0.70129001 0 0 1 -1.013752,0.2205 c -2.768999,-1.96976 -5.188487,-4.3893 -7.158118,-7.15813 a 0.70129001,0.70129001 0 0 1 0.220485,-1.0135 l 8.795612,-5.07849 a 0.70129001,0.70129001 0 0 1 0.234114,-0.0829 z m 31.059997,0 a 0.70129001,0.70129001 0 0 1 0.234124,0.0829 l 8.795601,5.07834 a 0.70129001,0.70129001 0 0 1 0.220485,1.01354 c -1.969674,2.76896 -4.38934,5.18847 -7.158114,7.15811 A 0.70129001,0.70129001 0 0 1 13.45579,553.21016 L 8.377705,544.41411 A 0.70129001,0.70129001 0 0 1 8.55137,543.5132 c 1.173775,-0.92459 2.233991,-1.98491 3.158625,-3.15895 a 0.70129001,0.70129001 0 0 1 0.418444,-0.25483 0.70129001,0.70129001 0 0 1 0.248939,-0.007 z m -8.262735,6.07505 a 0.70129001,0.70129001 0 0 1 0.245379,0.0356 v -1.1e-4 a 0.70129001,0.70129001 0 0 1 0.376955,0.31175 l 5.080592,8.79967 a 0.70129001,0.70129001 0 0 1 -0.31532,0.98862 c -3.091545,1.41524 -6.398801,2.30239 -9.783248,2.62458 a 0.70129001,0.70129001 0 0 1 -0.767779,-0.69821 V 548.0575 a 0.70129001,0.70129001 0 0 1 0.602897,-0.69467 c 1.479134,-0.20979 2.928157,-0.59385 4.317191,-1.1439 a 0.70129001,0.70129001 0 0 1 0.243601,-0.0475 z m -14.534214,1.1e-4 a 0.70129001,0.70129001 0 0 1 0.243601,0.0475 c 1.388936,0.55002 2.837909,0.93409 4.317205,1.1439 a 0.70129001,0.70129001 0 0 1 0.602883,0.69463 v 10.17782 a 0.70129001,0.70129001 0 0 1 -0.76754,0.6982 c -3.384759,-0.32242 -6.691735,-1.20935 -9.783251,-2.6246 a 0.70129001,0.70129001 0 0 1 -0.315313,-0.98861 l 5.080598,-8.79967 a 0.70129001,0.70129001 0 0 1 0.376354,-0.31175 0.70129001,0.70129001 0 0 1 0.245386,-0.0356 z"
           fill="currentColor"
           id="path2789"
           style="fill:#22c55e;fill-opacity:1;stroke-width:0.202564" />
      </g>
      <g
         id="g2885"
         style="stroke-width:0.776697">
        <path
           id="path2793"
           style="font-weight:bold;font-size:68.7248px;font-family:Arial;-inkscape-font-specification:'Arial, Bold';fill:#000000;fill-opacity:0.22;stroke:#000000;stroke-width:0.776697;stroke-linecap:round;stroke-linejoin:round;stroke-opacity:0.996587;filter:url(#filter2729)"
           d="m 50.453097,505.23681 v 50 h 17.116867 v -15.68539 l 10.744438,15.68539 h 0.527942 L 89.50867,539.55142 v 15.68539 h 17.11686 v -50 H 92.48188 L 78.579204,525.8094 64.596755,505.23681 Z m 209.503503,0 a 26.800613,26.800613 0 0 0 -26.80043,26.80043 26.800613,26.800613 0 0 0 13.62402,23.19957 h 26.35282 a 26.800613,26.800613 0 0 0 13.62403,-23.19957 26.800613,26.800613 0 0 0 -26.80044,-26.80043 z m -123.63554,5.4e-4 a 26.800613,26.800613 0 0 0 -26.80043,26.80044 26.800613,26.800613 0 0 0 13.62291,23.19902 h 26.35449 a 26.800613,26.800613 0 0 0 13.62347,-23.19902 26.800613,26.800613 0 0 0 -26.80044,-26.80044 z m 29.50663,0 v 49.99946 h 17.11686 v -9.97939 l 5.90488,9.97939 h 20.17483 l -7.99836,-14.07829 c 1.33934,-0.96434 2.54434,-2.14257 3.61583,-3.5355 0.91074,-1.23221 1.7412,-2.78612 2.49124,-4.66119 0.75002,-1.8751 1.12513,-4.15187 1.12513,-6.83057 0,-3.37515 -0.61588,-6.34863 -1.84807,-8.92018 -1.17865,-2.62513 -2.83953,-4.82164 -4.9825,-6.58959 -2.14294,-1.76795 -4.68783,-3.10727 -7.63439,-4.01801 -2.893,-0.91075 -6.05375,-1.36613 -9.48247,-1.36613 z m 55.29659,0.001 c -4.75115,0 -8.57615,3.82499 -8.57615,8.57616 v 11.70503 24.74351 4.97363 h 18.16222 v -4.97358 -24.74351 -11.70504 c 0,-4.75116 -3.82498,-8.57616 -8.57616,-8.57616 z m -38.17973,14.46386 h 0.88415 c 2.03582,0 3.74968,0.45533 5.1426,1.36611 1.44651,0.91075 2.16994,2.43789 2.16994,4.58085 0,2.14297 -0.72343,3.66956 -2.16994,4.58031 -1.39292,0.91075 -3.10678,1.36611 -5.1426,1.36611 h -0.88415 z m 77.01205,1.60764 a 10.727265,10.727265 0 0 1 10.72727,10.72726 10.727265,10.727265 0 0 1 -10.72727,10.72782 10.727265,10.727265 0 0 1 -10.72726,-10.72782 10.727265,10.727265 0 0 1 10.72726,-10.72726 z m -123.63554,5.5e-4 a 10.727265,10.727265 0 0 1 10.72727,10.72727 10.727265,10.727265 0 0 1 -10.72727,10.72726 10.727265,10.727265 0 0 1 -10.72782,-10.72726 10.727265,10.727265 0 0 1 10.72782,-10.72727 z" />
        <path
           id="path2795"
           style="font-weight:bold;font-size:68.7248px;font-family:Arial;-inkscape-font-specification:'Arial, Bold';fill:#ffffff;stroke-width:0.776697;stroke-linecap:round;stroke-linejoin:round;stroke-opacity:0.996587"
           d="m 52.040598,503.6493 v 50 h 17.116867 v -15.68539 l 10.744438,15.68539 h 0.527942 l 10.666326,-15.68539 v 15.68539 h 17.116869 v -50 H 94.069381 L 80.166705,524.22189 66.184256,503.6493 Z m 209.503512,0 a 26.800613,26.800613 0 0 0 -26.80043,26.80043 26.800613,26.800613 0 0 0 13.62402,23.19957 h 26.35282 a 26.800613,26.800613 0 0 0 13.62403,-23.19957 26.800613,26.800613 0 0 0 -26.80044,-26.80043 z m -123.63554,5.4e-4 a 26.800613,26.800613 0 0 0 -26.80043,26.80044 26.800613,26.800613 0 0 0 13.62291,23.19902 h 26.35449 a 26.800613,26.800613 0 0 0 13.62347,-23.19902 26.800613,26.800613 0 0 0 -26.80044,-26.80044 z m 29.50663,0 v 49.99946 h 17.11686 v -9.97939 l 5.90488,9.97939 h 20.17483 l -7.99836,-14.07829 c 1.33934,-0.96434 2.54434,-2.14257 3.61583,-3.5355 0.91074,-1.23221 1.7412,-2.78612 2.49124,-4.66119 0.75002,-1.8751 1.12513,-4.15187 1.12513,-6.83057 0,-3.37515 -0.61588,-6.34863 -1.84807,-8.92018 -1.17865,-2.62513 -2.83953,-4.82164 -4.9825,-6.58959 -2.14294,-1.76795 -4.68783,-3.10727 -7.63439,-4.01801 -2.893,-0.91075 -6.05375,-1.36613 -9.48247,-1.36613 z m 55.29659,0.001 c -4.75115,0 -8.57615,3.82499 -8.57615,8.57616 v 11.70503 24.74351 4.97363 h 18.16222 v -4.97358 -24.74351 -11.70504 c 0,-4.75116 -3.82498,-8.57616 -8.57616,-8.57616 z m -38.17973,14.46386 h 0.88415 c 2.03582,0 3.74968,0.45533 5.1426,1.36611 1.44651,0.91075 2.16994,2.43789 2.16994,4.58085 0,2.14297 -0.72343,3.66956 -2.16994,4.58031 -1.39292,0.91075 -3.10678,1.36611 -5.1426,1.36611 h -0.88415 z m 77.01205,1.60764 a 10.727265,10.727265 0 0 1 10.72727,10.72726 10.727265,10.727265 0 0 1 -10.72727,10.72782 10.727265,10.727265 0 0 1 -10.72726,-10.72782 10.727265,10.727265 0 0 1 10.72726,-10.72726 z m -123.63554,5.5e-4 a 10.727265,10.727265 0 0 1 10.72727,10.72727 10.727265,10.727265 0 0 1 -10.72727,10.72726 10.727265,10.727265 0 0 1 -10.72782,-10.72726 10.727265,10.727265 0 0 1 10.72782,-10.72727 z" />
        <g
           id="g2883"
           transform="translate(0,-0.8371684)"
           style="stroke-width:0.776697">
          <g
             aria-label="Connect"
             id="g2811"
             style="font-style:italic;font-weight:600;font-stretch:semi-condensed;font-size:12.9801px;font-family:'Myriad Pro';-inkscape-font-specification:'Myriad Pro, Semi-Bold Italic Semi-Condensed';fill:#ffffff;stroke-width:0.776697;stroke-linecap:round;stroke-linejoin:round;stroke-opacity:0.996587">
            <path
               d="m 57.232638,570.51433 c -0.389403,0.18172 -0.947548,0.28556 -1.492712,0.28556 -1.505691,0 -2.128736,-1.02543 -2.128736,-2.44026 0,-1.32397 0.480264,-2.49218 1.220129,-3.21906 0.545164,-0.50623 1.27205,-0.79179 1.998936,-0.79179 0.636025,0 1.116288,0.1298 1.37589,0.2596 l 0.415363,-1.20715 c -0.207681,-0.14278 -0.817746,-0.3245 -1.622512,-0.3245 -1.129269,0 -2.154697,0.33748 -3.011383,1.05139 -1.22013,0.98649 -1.947015,2.59602 -1.947015,4.45217 0,1.94702 1.142249,3.47867 3.335885,3.47867 0.869667,0 1.544632,-0.14278 1.959996,-0.3245 z"
               id="path2797"
               style="stroke-width:0.776697" />
            <path
               d="m 61.788639,565.49103 c -2.089796,0 -3.452707,2.02489 -3.452707,4.11469 0,1.34993 0.804766,2.46622 2.336418,2.46622 2.089796,0 3.426746,-2.06384 3.426746,-4.10171 0,-1.24609 -0.687945,-2.4792 -2.310457,-2.4792 z m -0.194702,1.12927 c 0.778806,0 1.012448,0.70092 1.012448,1.31099 0,1.20715 -0.661985,3.01138 -1.739333,3.01138 -0.713906,0 -1.038408,-0.61006 -1.038408,-1.38887 0,-1.18119 0.661985,-2.9335 1.765293,-2.9335 z"
               id="path2799"
               style="stroke-width:0.776697" />
            <path
               d="m 66.085034,571.94214 0.584104,-3.07628 c 0.259602,-1.38888 1.051388,-2.18066 1.674433,-2.18066 0.506224,0 0.687945,0.33748 0.687945,0.80476 0,0.25961 -0.03894,0.51921 -0.07788,0.75285 l -0.700926,3.69933 h 1.453771 l 0.713906,-3.76423 c 0.0649,-0.35046 0.116821,-0.75285 0.116821,-1.06437 0,-1.05139 -0.584105,-1.62251 -1.479732,-1.62251 -0.804766,0 -1.544631,0.40238 -2.102776,1.19417 h -0.02596 l 0.129801,-1.06437 h -1.28503 c -0.07788,0.55814 -0.168741,1.23311 -0.324502,2.01192 l -0.817747,4.30939 z"
               id="path2801"
               style="stroke-width:0.776697" />
            <path
               d="m 72.717861,571.94214 0.584105,-3.07628 c 0.259602,-1.38888 1.051388,-2.18066 1.674433,-2.18066 0.506224,0 0.687945,0.33748 0.687945,0.80476 0,0.25961 -0.03894,0.51921 -0.07788,0.75285 l -0.700925,3.69933 h 1.453771 l 0.713906,-3.76423 c 0.0649,-0.35046 0.116821,-0.75285 0.116821,-1.06437 0,-1.05139 -0.584105,-1.62251 -1.479732,-1.62251 -0.804766,0 -1.544632,0.40238 -2.102776,1.19417 h -0.02596 l 0.129801,-1.06437 h -1.28503 c -0.07788,0.55814 -0.168741,1.23311 -0.324502,2.01192 l -0.817747,4.30939 z"
               id="path2803"
               style="stroke-width:0.776697" />
            <path
               d="m 82.413991,570.52731 c -0.428344,0.20768 -0.934567,0.3894 -1.583572,0.3894 -0.558145,0 -0.973508,-0.22066 -1.181189,-0.63602 -0.142782,-0.27259 -0.168742,-0.71391 -0.155762,-0.92159 2.232578,0.0389 3.84211,-0.51921 3.84211,-2.14172 -0.01298,-0.98649 -0.700926,-1.72635 -1.882115,-1.72635 -2.102776,0 -3.387806,2.16768 -3.387806,4.04979 0,1.45377 0.752846,2.51814 2.414299,2.51814 0.726886,0 1.479731,-0.15576 2.063836,-0.4543 z m -0.441324,-3.27099 c 0,0.77881 -0.960527,1.02543 -2.323437,1.01245 0.207681,-0.86967 0.791786,-1.66145 1.609532,-1.66145 0.441323,0 0.713905,0.24662 0.713905,0.649 z"
               id="path2805"
               style="stroke-width:0.776697" />
            <path
               d="m 87.77477,570.61817 c -0.285562,0.1298 -0.674965,0.2596 -1.168209,0.2596 -0.778806,0 -1.24609,-0.53218 -1.24609,-1.44079 0,-1.33695 0.882647,-2.7388 2.232577,-2.7388 0.350463,0 0.597085,0.0649 0.804767,0.15576 l 0.376422,-1.15523 c -0.207681,-0.0909 -0.636024,-0.1947 -1.129268,-0.1947 -2.245558,0 -3.790189,1.94701 -3.790189,4.11469 0,1.40185 0.843706,2.44026 2.349398,2.44026 0.713905,0 1.272049,-0.15576 1.596552,-0.29854 z"
               id="path2807"
               style="stroke-width:0.776697" />
            <path
               d="m 90.55249,564.25792 -0.259602,1.36291 h -0.817746 l -0.207681,1.10331 h 0.817746 l -0.571125,2.94648 c -0.09086,0.4543 -0.129801,0.79179 -0.129801,1.11629 0,0.73987 0.454304,1.28503 1.440792,1.28503 0.324502,0 0.700925,-0.0389 0.934567,-0.11682 l 0.142781,-1.12927 c -0.155761,0.026 -0.311523,0.026 -0.480264,0.026 -0.376423,0 -0.545164,-0.20768 -0.545164,-0.54516 0,-0.23365 0.05192,-0.53219 0.103841,-0.81775 l 0.532184,-2.76476 h 1.34993 l 0.220662,-1.10331 h -1.349931 l 0.324503,-1.71337 z"
               id="path2809"
               style="stroke-width:0.776697" />
          </g>
          <g
             aria-label="Stream"
             id="g2825"
             style="font-style:italic;font-weight:600;font-stretch:semi-condensed;font-size:12.9801px;font-family:'Myriad Pro';-inkscape-font-specification:'Myriad Pro, Semi-Bold Italic Semi-Condensed';fill:#ffffff;stroke-width:0.776697;stroke-linecap:round;stroke-linejoin:round;stroke-opacity:0.996587">
            <path
               d="m 118.3088,571.52678 c 0.33748,0.2596 1.11629,0.53218 2.08979,0.53218 1.86914,0 3.19311,-1.09033 3.19311,-2.82966 0,-0.97351 -0.57113,-1.68742 -1.51867,-2.27152 -0.76583,-0.49324 -1.18119,-0.85669 -1.18119,-1.44079 0,-0.62305 0.53218,-1.18119 1.44079,-1.18119 0.62304,-0.013 1.11629,0.1947 1.38887,0.35046 l 0.4543,-1.22013 c -0.29854,-0.18172 -0.86966,-0.3894 -1.72635,-0.3894 -1.72635,0 -3.0633,1.06437 -3.0633,2.68688 0,0.97351 0.649,1.66145 1.55761,2.23258 0.76582,0.49324 1.12927,0.89563 1.12927,1.47973 0,0.83073 -0.70093,1.32397 -1.55762,1.32397 -0.67496,0 -1.29801,-0.20768 -1.73933,-0.48026 z"
               id="path2813"
               style="stroke-width:0.776697" />
            <path
               d="m 125.98001,564.25792 -0.2596,1.36291 h -0.81774 l -0.20769,1.10331 h 0.81775 l -0.57112,2.94648 c -0.0909,0.4543 -0.1298,0.79179 -0.1298,1.11629 0,0.73987 0.4543,1.28503 1.44079,1.28503 0.3245,0 0.70092,-0.0389 0.93456,-0.11682 l 0.14278,-1.12927 c -0.15576,0.026 -0.31152,0.026 -0.48026,0.026 -0.37642,0 -0.54516,-0.20768 -0.54516,-0.54516 0,-0.23365 0.0519,-0.53219 0.10384,-0.81775 l 0.53218,-2.76476 h 1.34993 l 0.22066,-1.10331 h -1.34993 l 0.32451,-1.71337 z"
               id="path2815"
               style="stroke-width:0.776697" />
            <path
               d="m 129.8221,571.94214 0.50623,-2.71284 c 0.23364,-1.24609 0.92158,-2.29748 1.89509,-2.29748 0.10384,0 0.20768,0.013 0.27258,0.013 l 0.27258,-1.42781 c -0.0779,-0.013 -0.1947,-0.026 -0.28556,-0.026 -0.7788,0 -1.42781,0.55814 -1.85615,1.40185 h -0.0519 c 0.0649,-0.46728 0.10384,-0.86967 0.1298,-1.27205 h -1.25907 c -0.0649,0.55814 -0.15576,1.45377 -0.31152,2.31046 l -0.76583,4.01085 z"
               id="path2817"
               style="stroke-width:0.776697" />
            <path
               d="m 137.01304,570.52731 c -0.42834,0.20768 -0.93457,0.3894 -1.58357,0.3894 -0.55815,0 -0.97351,-0.22066 -1.18119,-0.63602 -0.14278,-0.27259 -0.16874,-0.71391 -0.15576,-0.92159 2.23257,0.0389 3.84211,-0.51921 3.84211,-2.14172 -0.013,-0.98649 -0.70093,-1.72635 -1.88212,-1.72635 -2.10278,0 -3.3878,2.16768 -3.3878,4.04979 0,1.45377 0.75284,2.51814 2.41429,2.51814 0.72689,0 1.47973,-0.15576 2.06384,-0.4543 z m -0.44132,-3.27099 c 0,0.77881 -0.96053,1.02543 -2.32344,1.01245 0.20768,-0.86967 0.79178,-1.66145 1.60953,-1.66145 0.44132,0 0.71391,0.24662 0.71391,0.649 z"
               id="path2819"
               style="stroke-width:0.776697" />
            <path
               d="m 143.43818,571.94214 c -0.026,-0.73987 0.0909,-1.90808 0.2596,-2.8037 l 0.67497,-3.37483 c -0.44132,-0.15576 -1.12927,-0.27258 -1.77827,-0.27258 -2.84265,0 -4.19258,2.44026 -4.19258,4.53005 0,1.22013 0.66199,2.05086 1.7004,2.05086 0.7139,0 1.46675,-0.36344 2.07681,-1.46675 h 0.026 c -0.0389,0.5192 -0.0779,0.97351 -0.0909,1.33695 z m -1.05139,-3.43973 c -0.28556,1.47973 -1.0384,2.38834 -1.70039,2.38834 -0.5841,0 -0.79178,-0.50622 -0.79178,-1.16821 0.013,-1.34993 0.9735,-3.11522 2.31045,-3.11522 0.22066,0 0.40239,0.026 0.54517,0.0649 z"
               id="path2821"
               style="stroke-width:0.776697" />
            <path
               d="m 146.17697,571.94214 0.57112,-3.12821 c 0.23364,-1.24608 0.98649,-2.14171 1.59655,-2.14171 0.51921,0 0.64901,0.37642 0.64901,0.80476 0,0.25961 -0.026,0.51921 -0.0909,0.80477 l -0.68795,3.66039 h 1.40185 l 0.59709,-3.15417 c 0.24662,-1.29801 0.94754,-2.11575 1.57059,-2.11575 0.46728,0 0.66198,0.31152 0.66198,0.79178 0,0.27259 -0.0389,0.55815 -0.0909,0.84371 l -0.67496,3.63443 h 1.41483 l 0.71391,-3.75125 c 0.0649,-0.3894 0.11682,-0.84371 0.11682,-1.12927 0,-1.01245 -0.58411,-1.57059 -1.41483,-1.57059 -0.80477,0.013 -1.54464,0.41536 -2.07682,1.22013 -0.0519,-0.63603 -0.48026,-1.22013 -1.36291,-1.22013 -0.76583,0 -1.47973,0.37642 -2.03788,1.18119 h -0.026 l 0.1298,-1.05139 h -1.25907 c -0.0779,0.55814 -0.16874,1.23311 -0.3245,2.01192 l -0.80476,4.30939 z"
               id="path2823"
               style="stroke-width:0.776697" />
          </g>
          <g
             aria-label="Observe"
             id="g2841"
             style="font-style:italic;font-weight:600;font-stretch:semi-condensed;font-size:12.9801px;font-family:'Myriad Pro';-inkscape-font-specification:'Myriad Pro, Semi-Bold Italic Semi-Condensed';fill:#ffffff;stroke-width:0.776697;stroke-linecap:round;stroke-linejoin:round;stroke-opacity:0.996587">
            <path
               d="m 183.52559,563.06375 c -1.03841,0 -1.98596,0.40238 -2.68688,1.07735 -1.09033,1.06437 -1.68742,2.94648 -1.68742,4.56899 0,1.64848 0.88265,3.36185 3.01139,3.36185 1.09033,0 2.01191,-0.40238 2.72582,-1.10331 1.06437,-1.05139 1.63549,-2.92052 1.63549,-4.53005 0,-1.71338 -0.83073,-3.37483 -2.9984,-3.37483 z m -0.18172,1.23311 c 1.34993,0 1.64847,1.11629 1.64847,2.1547 0,1.06436 -0.41536,2.95946 -1.22013,3.77721 -0.3894,0.37642 -0.86967,0.61006 -1.38887,0.61006 -1.28503,0 -1.70039,-1.06437 -1.70039,-2.16768 0,-1.18119 0.44132,-2.94648 1.24609,-3.75125 0.3894,-0.3894 0.86966,-0.62304 1.41483,-0.62304 z"
               id="path2827"
               style="stroke-width:0.776697" />
            <path
               d="m 188.5878,562.79117 -1.33695,6.71071 c -0.0519,0.29854 -0.10384,0.649 -0.10384,0.98649 -0.013,1.05139 0.68795,1.58357 1.90808,1.58357 2.54409,0 3.85508,-2.42728 3.85508,-4.47813 0,-0.99947 -0.4543,-2.10278 -1.71337,-2.10278 -0.73986,0 -1.40185,0.36344 -1.88211,1.02543 h -0.026 l 0.75284,-3.72529 z m 0.29854,5.8021 c 0.23365,-1.12927 0.94755,-1.89509 1.64848,-1.89509 0.62304,0 0.85668,0.54516 0.85668,1.20715 0,1.16821 -0.7788,3.0633 -2.02489,3.0633 -0.48027,0 -0.72689,-0.27258 -0.73987,-0.73986 -0.013,-0.28557 0.026,-0.50623 0.0649,-0.71391 z"
               id="path2829"
               style="stroke-width:0.776697" />
            <path
               d="m 193.20871,571.63062 c 0.29854,0.22066 0.93456,0.42834 1.62251,0.42834 1.45377,0 2.5441,-0.75285 2.5441,-2.14172 0,-0.72688 -0.51921,-1.28503 -1.18119,-1.68741 -0.46728,-0.27258 -0.72689,-0.5192 -0.72689,-0.88265 0,-0.44132 0.37643,-0.75284 0.93457,-0.75284 0.44132,0 0.83073,0.1298 1.05139,0.24662 l 0.36344,-1.05139 c -0.2596,-0.15576 -0.75284,-0.29854 -1.36291,-0.29854 -1.44079,0 -2.45324,0.86967 -2.45324,2.06383 0,0.67497 0.46729,1.22013 1.12927,1.60954 0.54516,0.3245 0.76583,0.59708 0.76583,0.99947 0,0.44132 -0.35047,0.80476 -0.94755,0.80476 -0.53218,0 -1.06437,-0.20768 -1.36291,-0.37642 z"
               id="path2831"
               style="stroke-width:0.776697" />
            <path
               d="m 202.7231,570.52731 c -0.42835,0.20768 -0.93457,0.3894 -1.58358,0.3894 -0.55814,0 -0.9735,-0.22066 -1.18119,-0.63602 -0.14278,-0.27259 -0.16874,-0.71391 -0.15576,-0.92159 2.23258,0.0389 3.84211,-0.51921 3.84211,-2.14172 -0.013,-0.98649 -0.70092,-1.72635 -1.88211,-1.72635 -2.10278,0 -3.38781,2.16768 -3.38781,4.04979 0,1.45377 0.75285,2.51814 2.4143,2.51814 0.72689,0 1.47973,-0.15576 2.06384,-0.4543 z m -0.44133,-3.27099 c 0,0.77881 -0.96053,1.02543 -2.32344,1.01245 0.20769,-0.86967 0.79179,-1.66145 1.60954,-1.66145 0.44132,0 0.7139,0.24662 0.7139,0.649 z"
               id="path2833"
               style="stroke-width:0.776697" />
            <path
               d="m 205.43593,571.94214 0.50622,-2.71284 c 0.23365,-1.24609 0.92159,-2.29748 1.8951,-2.29748 0.10384,0 0.20768,0.013 0.27258,0.013 l 0.27258,-1.42781 c -0.0779,-0.013 -0.1947,-0.026 -0.28556,-0.026 -0.77881,0 -1.42781,0.55814 -1.85615,1.40185 h -0.0519 c 0.0649,-0.46728 0.10384,-0.86967 0.1298,-1.27205 h -1.25907 c -0.0649,0.55814 -0.15576,1.45377 -0.31152,2.31046 l -0.76583,4.01085 z"
               id="path2835"
               style="stroke-width:0.776697" />
            <path
               d="m 208.91456,565.62083 0.85669,6.32131 h 1.45377 l 3.30993,-6.32131 h -1.57059 l -1.47974,3.20608 c -0.3245,0.73987 -0.49324,1.18119 -0.649,1.60954 h -0.0389 c 0,-0.45431 -0.0649,-0.89563 -0.10384,-1.66146 l -0.28556,-3.15416 z"
               id="path2837"
               style="stroke-width:0.776697" />
            <path
               d="m 218.67559,570.52731 c -0.42835,0.20768 -0.93457,0.3894 -1.58357,0.3894 -0.55815,0 -0.97351,-0.22066 -1.18119,-0.63602 -0.14278,-0.27259 -0.16875,-0.71391 -0.15576,-0.92159 2.23257,0.0389 3.8421,-0.51921 3.8421,-2.14172 -0.013,-0.98649 -0.70092,-1.72635 -1.88211,-1.72635 -2.10278,0 -3.38781,2.16768 -3.38781,4.04979 0,1.45377 0.75285,2.51814 2.4143,2.51814 0.72689,0 1.47973,-0.15576 2.06384,-0.4543 z m -0.44133,-3.27099 c 0,0.77881 -0.96052,1.02543 -2.32343,1.01245 0.20768,-0.86967 0.79178,-1.66145 1.60953,-1.66145 0.44132,0 0.7139,0.24662 0.7139,0.649 z"
               id="path2839"
               style="stroke-width:0.776697" />
          </g>
          <g
             aria-label="Respond"
             id="g2857"
             style="font-style:italic;font-weight:600;font-stretch:semi-condensed;font-size:12.9801px;font-family:'Myriad Pro';-inkscape-font-specification:'Myriad Pro, Semi-Bold Italic Semi-Condensed';fill:#ffffff;stroke-width:0.776697;stroke-linecap:round;stroke-linejoin:round;stroke-opacity:0.996587">
            <path
               d="m 244.82237,571.94214 h 1.44079 l 0.68795,-3.62145 h 0.61006 c 0.76583,0 1.11629,0.40238 1.16821,1.51867 0.0519,1.03841 0.1298,1.88212 0.18172,2.10278 h 1.49271 c -0.11682,-0.33748 -0.18172,-1.32397 -0.2596,-2.40132 -0.0519,-0.90861 -0.31152,-1.50569 -0.8437,-1.71337 v -0.0389 c 1.09032,-0.33749 1.95999,-1.27205 1.95999,-2.5441 0,-0.67497 -0.29854,-1.19417 -0.73986,-1.53165 -0.50623,-0.41537 -1.27205,-0.57113 -2.07682,-0.57113 -0.70093,0 -1.42781,0.0649 -1.97298,0.18172 z m 2.88158,-7.58038 c 0.15576,-0.0389 0.38941,-0.0649 0.71391,-0.0649 0.80477,0 1.32397,0.40238 1.32397,1.14225 0,0.97351 -0.75285,1.76529 -1.85615,1.76529 h -0.71391 z"
               id="path2843"
               style="stroke-width:0.776697" />
            <path
               d="m 255.90736,570.52731 c -0.42834,0.20768 -0.93457,0.3894 -1.58357,0.3894 -0.55815,0 -0.97351,-0.22066 -1.18119,-0.63602 -0.14278,-0.27259 -0.16874,-0.71391 -0.15576,-0.92159 2.23257,0.0389 3.84211,-0.51921 3.84211,-2.14172 -0.013,-0.98649 -0.70093,-1.72635 -1.88212,-1.72635 -2.10278,0 -3.3878,2.16768 -3.3878,4.04979 0,1.45377 0.75284,2.51814 2.41429,2.51814 0.72689,0 1.47973,-0.15576 2.06384,-0.4543 z m -0.44132,-3.27099 c 0,0.77881 -0.96053,1.02543 -2.32344,1.01245 0.20768,-0.86967 0.79178,-1.66145 1.60953,-1.66145 0.44132,0 0.71391,0.24662 0.71391,0.649 z"
               id="path2845"
               style="stroke-width:0.776697" />
            <path
               d="m 256.94576,571.63062 c 0.29855,0.22066 0.93457,0.42834 1.62252,0.42834 1.45377,0 2.54409,-0.75285 2.54409,-2.14172 0,-0.72688 -0.5192,-1.28503 -1.18118,-1.68741 -0.46729,-0.27258 -0.72689,-0.5192 -0.72689,-0.88265 0,-0.44132 0.37642,-0.75284 0.93457,-0.75284 0.44132,0 0.83072,0.1298 1.05139,0.24662 l 0.36344,-1.05139 c -0.2596,-0.15576 -0.75285,-0.29854 -1.36291,-0.29854 -1.44079,0 -2.45324,0.86967 -2.45324,2.06383 0,0.67497 0.46728,1.22013 1.12927,1.60954 0.54516,0.3245 0.76582,0.59708 0.76582,0.99947 0,0.44132 -0.35046,0.80476 -0.94754,0.80476 -0.53219,0 -1.06437,-0.20768 -1.36291,-0.37642 z"
               id="path2847"
               style="stroke-width:0.776697" />
            <path
               d="m 262.87764,574.48624 0.49325,-2.66092 h 0.0389 c 0.20768,0.1298 0.62304,0.24662 1.10331,0.24662 2.07681,0 3.46568,-2.2196 3.46568,-4.37429 0,-1.14225 -0.50622,-2.20662 -1.77827,-2.20662 -0.75285,0 -1.47973,0.42834 -1.97298,1.15523 h -0.026 l 0.1298,-1.02543 h -1.29801 c -0.0779,0.62304 -0.20768,1.51867 -0.35046,2.29748 l -1.24609,6.56793 z m 1.05139,-5.62038 c 0.24662,-1.32398 0.99947,-2.16768 1.68741,-2.16768 0.64901,0 0.85669,0.59708 0.85669,1.14225 0,1.28503 -0.81775,3.11522 -1.99893,3.11522 -0.37643,0 -0.66199,-0.10384 -0.86967,-0.28556 z"
               id="path2849"
               style="stroke-width:0.776697" />
            <path
               d="m 272.17136,565.49103 c -2.08979,0 -3.4527,2.02489 -3.4527,4.11469 0,1.34993 0.80476,2.46622 2.33641,2.46622 2.0898,0 3.42675,-2.06384 3.42675,-4.10171 0,-1.24609 -0.68795,-2.4792 -2.31046,-2.4792 z m -0.1947,1.12927 c 0.77881,0 1.01245,0.70092 1.01245,1.31099 0,1.20715 -0.66199,3.01138 -1.73933,3.01138 -0.71391,0 -1.03841,-0.61006 -1.03841,-1.38887 0,-1.18119 0.66198,-2.9335 1.76529,-2.9335 z"
               id="path2851"
               style="stroke-width:0.776697" />
            <path
               d="m 276.46776,571.94214 0.5841,-3.07628 c 0.2596,-1.38888 1.05139,-2.18066 1.67444,-2.18066 0.50622,0 0.68794,0.33748 0.68794,0.80476 0,0.25961 -0.0389,0.51921 -0.0779,0.75285 l -0.70092,3.69933 h 1.45377 l 0.7139,-3.76423 c 0.0649,-0.35046 0.11682,-0.75285 0.11682,-1.06437 0,-1.05139 -0.5841,-1.62251 -1.47973,-1.62251 -0.80476,0 -1.54463,0.40238 -2.10277,1.19417 h -0.026 l 0.12981,-1.06437 h -1.28503 c -0.0779,0.55814 -0.16875,1.23311 -0.32451,2.01192 l -0.81774,4.30939 z"
               id="path2853"
               style="stroke-width:0.776697" />
            <path
               d="m 286.89077,562.79117 -0.54516,2.88158 c -0.23364,-0.11682 -0.57113,-0.18172 -0.86967,-0.18172 -2.19363,0 -3.68635,2.1547 -3.68635,4.36131 0,1.34993 0.70093,2.2196 1.7653,2.2196 0.73986,0 1.46675,-0.40238 1.95999,-1.20715 h 0.026 l -0.10384,1.07735 h 1.29801 c 0.0389,-0.66199 0.14278,-1.49271 0.28556,-2.2196 l 1.32397,-6.93137 z m -1.16821,6.23045 c -0.24662,1.19417 -0.94754,1.86913 -1.54463,1.86913 -0.63602,0 -0.88264,-0.54516 -0.88264,-1.27205 0,-1.34993 0.85668,-2.9984 2.07681,-2.9984 0.3245,0 0.59709,0.0909 0.75285,0.23364 z"
               id="path2855"
               style="stroke-width:0.776697" />
          </g>
          <g
             id="g2865"
             transform="translate(74.469567,389.38014)"
             style="stroke-width:0.776697">
            <path
               d="m 32.977093,176.19338 2.939339,3.29555 -2.939339,3.29556"
               id="path2859"
               style="fill:none;stroke:#22c55e;stroke-width:0.776697;stroke-linecap:round;stroke-opacity:1" />
            <path
               d="m 26.135476,176.19338 2.939339,3.29555 -2.939339,3.29556"
               id="path2861"
               style="fill:none;stroke:#22c55e;stroke-width:0.776697;stroke-linecap:round;stroke-opacity:1" />
            <path
               d="m 29.556285,176.19338 2.939338,3.29555 -2.939339,3.29556"
               id="path2863"
               style="fill:none;stroke:#22c55e;stroke-width:0.776697;stroke-linecap:round;stroke-opacity:1" />
          </g>
          <g
             id="g2873"
             transform="translate(135.79073,389.38014)"
             style="stroke-width:0.776697">
            <path
               d="m 32.977093,176.19338 2.939339,3.29555 -2.939339,3.29556"
               id="path2867"
               style="fill:none;stroke:#22c55e;stroke-width:0.776697;stroke-linecap:round;stroke-opacity:1" />
            <path
               d="m 26.135476,176.19338 2.939339,3.29555 -2.939339,3.29556"
               id="path2869"
               style="fill:none;stroke:#22c55e;stroke-width:0.776697;stroke-linecap:round;stroke-opacity:1" />
            <path
               d="m 29.556285,176.19338 2.939338,3.29555 -2.939339,3.29556"
               id="path2871"
               style="fill:none;stroke:#22c55e;stroke-width:0.776697;stroke-linecap:round;stroke-opacity:1" />
          </g>
          <g
             id="g2881"
             transform="translate(201.16618,389.38014)"
             style="stroke-width:0.776697">
            <path
               d="m 32.977093,176.19338 2.939339,3.29555 -2.939339,3.29556"
               id="path2875"
               style="fill:none;stroke:#22c55e;stroke-width:0.776697;stroke-linecap:round;stroke-opacity:1" />
            <path
               d="m 26.135476,176.19338 2.939339,3.29555 -2.939339,3.29556"
               id="path2877"
               style="fill:none;stroke:#22c55e;stroke-width:0.776697;stroke-linecap:round;stroke-opacity:1" />
            <path
               d="m 29.556285,176.19338 2.939338,3.29555 -2.939339,3.29556"
               id="path2879"
               style="fill:none;stroke:#22c55e;stroke-width:0.776697;stroke-linecap:round;stroke-opacity:1" />
          </g>
        </g>
      </g>
    </g>
  </g>
</svg>
