<?xml version="1.0" encoding="UTF-8" standalone="no"?>
<!-- Created with Inkscape (http://www.inkscape.org/) -->

<svg
   width="210mm"
   height="297mm"
   viewBox="0 0 210 297"
   version="1.1"
   id="svg5"
   xmlns:xlink="http://www.w3.org/1999/xlink"
   xmlns="http://www.w3.org/2000/svg"
   xmlns:svg="http://www.w3.org/2000/svg">
  <defs
     id="defs2">
    <linearGradient
       id="linearGradient7959">
      <stop
         style="stop-color:#0c526b;stop-opacity:1;"
         offset="0"
         id="stop7955" />
      <stop
         style="stop-color:#127498;stop-opacity:1;"
         offset="1"
         id="stop7957" />
    </linearGradient>
    <linearGradient
       xlink:href="#linearGradient7959"
       id="linearGradient7961"
       x1="-77.739372"
       y1="471.53812"
       x2="234.3549"
       y2="634.3855"
       gradientUnits="userSpaceOnUse" />
  </defs>
  <g
     id="layer1">
    <rect
       style="fill:url(#linearGradient7961);fill-opacity:1;stroke-width:0.1;stroke-linecap:round;stroke-linejoin:round;stroke-opacity:0.996587"
       id="rect234"
       width="317.5"
       height="166.6875"
       x="-79.090805"
       y="469.28024" />
    <path
       d="m -21.080701,515.59437 a 24.999968,24.999968 0 0 0 -24.999972,25.00001 24.999968,24.999968 0 0 0 24.999972,24.99999 24.999968,24.999968 0 0 0 24.9999699,-24.99999 24.999968,24.999968 0 0 0 -24.9999699,-25.00001 z m 2.07691,3.05094 c 2.454306,0.23279 4.85249,0.87505 7.094307,1.90075 a 0.50818116,0.50818116 0 0 1 0.22892,0.7164 l -3.682945,6.37932 a 0.50818116,0.50818116 0 0 1 -0.628603,0.21818 c -1.007091,-0.40201 -2.05845,-0.68375 -3.131822,-0.83922 a 0.50818116,0.50818116 0 0 1 -0.435501,-0.50338 V 519.151 a 0.50818116,0.50818116 0 0 1 0.556102,-0.50595 z m -4.076587,0.006 a 0.50818116,0.50818116 0 0 1 0.471669,0.50681 v 7.3748 a 0.50818116,0.50818116 0 0 1 -0.436881,0.50336 c -1.071836,0.15203 -2.121862,0.43034 -3.128408,0.82891 a 0.50818116,0.50818116 0 0 1 -0.627223,-0.21818 l -3.681592,-6.37667 a 0.50818116,0.50818116 0 0 1 0.228918,-0.71553 c 2.240241,-1.02553 4.636359,-1.66848 7.08931,-1.90195 a 0.50818116,0.50818116 0 0 1 0.08419,0 z m 14.5827009,3.89 a 0.50818116,0.50818116 0 0 1 0.192417,0.0858 c 2.009436,1.42875 3.765227,3.18459 5.193859,5.19392 a 0.50818116,0.50818116 0 0 1 -0.1602005,0.73443 l -6.3813555,3.68435 a 0.50818116,0.50818116 0 0 1 -0.6534229,-0.12535 c -0.670781,-0.8521 -1.439996,-1.62133 -2.292039,-2.29203 a 0.50818116,0.50818116 0 0 1 -0.125844,-0.65367 l 3.6845349,-6.38131 a 0.50818116,0.50818116 0 0 1 0.332,-0.24222 0.50818116,0.50818116 0 0 1 0.210017,0 z m -25.1635959,0.0172 a 0.50818116,0.50818116 0 0 1 0.210021,0 0.50818116,0.50818116 0 0 1 0.331997,0.24225 l 3.679993,6.37362 a 0.50818116,0.50818116 0 0 1 -0.125844,0.65285 c -0.850649,0.67 -1.619017,1.43818 -2.289084,2.28884 a 0.50818116,0.50818116 0 0 1 -0.653255,0.12535 l -6.373634,-3.67997 a 0.50818116,0.50818116 0 0 1 -0.159771,-0.73444 c 1.427294,-2.0065 3.180683,-3.75975 5.187044,-5.18705 a 0.50818116,0.50818116 0 0 1 0.192411,-0.0859 z m 12.575888,7.37024 a 0.50818116,0.50818116 0 0 1 7.82e-4,0 c 1.148545,0 2.289537,0.1864 3.378632,0.55062 a 0.50818116,0.50818116 0 0 1 0.279173,0.73613 l -2.649319,4.58869 a 0.50818116,0.50818116 0 0 1 -0.496922,0.25082 c -0.167927,-0.0172 -0.337154,-0.0258 -0.505937,-0.0258 -0.167076,0.005 -0.333285,0.0172 -0.499075,0.043 a 0.50818116,0.50818116 0 0 1 -0.50783,-0.24911 l -2.653629,-4.59615 a 0.50818116,0.50818116 0 0 1 0.278316,-0.73615 c 1.087902,-0.36592 2.227648,-0.55319 3.375445,-0.55577 z m 19.5367963,1.20232 a 0.50818116,0.50818116 0 0 1 0.2091606,0.0172 0.50818116,0.50818116 0 0 1 0.3075162,0.27229 c 1.02562811,2.24185 1.66810621,4.6398 1.90067461,7.09434 a 0.50818116,0.50818116 0 0 1 -0.5057642,0.55575 H -7.0035371 a 0.50818116,0.50818116 0 0 1 -0.502849,-0.4355 c -0.15461,-1.07339 -0.436357,-2.12452 -0.838791,-3.13158 a 0.50818116,0.50818116 0 0 1 0.21775,-0.62879 l 6.3793124,-3.68289 a 0.50818116,0.50818116 0 0 1 0.1997124,-0.0686 z m -39.0635863,0.005 a 0.50818116,0.50818116 0 0 1 0.199712,0.0688 l 6.377035,3.6816 a 0.50818116,0.50818116 0 0 1 0.218611,0.62706 c -0.398999,1.00648 -0.677051,2.05658 -0.829005,3.12859 a 0.50818116,0.50818116 0 0 1 -0.503105,0.43637 h -7.375224 a 0.50818116,0.50818116 0 0 1 -0.505769,-0.55663 c 0.233644,-2.45273 0.876385,-4.84912 1.901882,-7.08934 a 0.50818116,0.50818116 0 0 1 0.307515,-0.27232 0.50818116,0.50818116 0 0 1 0.208733,-0.0172 z m 26.184053,1.35667 a 0.50818116,0.50818116 0 0 1 0.41832,0.12112 c 1.730568,1.53277 2.916583,3.5866 3.379319,5.85139 a 0.50818116,0.50818116 0 0 1 -0.497782,0.60987 h -5.301124 a 0.50818116,0.50818116 0 0 1 -0.465736,-0.30492 c -0.136586,-0.31268 -0.307946,-0.60988 -0.510496,-0.88441 a 0.50818116,0.50818116 0 0 1 -0.03008,-0.55577 l 2.650004,-4.58997 a 0.50818116,0.50818116 0 0 1 0.35862,-0.2474 z m -13.305665,0.009 a 0.50818116,0.50818116 0 0 1 0.358628,0.2474 l 2.643395,4.57889 a 0.50818116,0.50818116 0 0 1 -0.0258,0.55147 c -0.198427,0.27488 -0.365924,0.57122 -0.498468,0.88372 a 0.50818116,0.50818116 0 0 1 -0.467716,0.30923 h -5.305445 a 0.50818116,0.50818116 0 0 1 -0.497694,-0.61074 c 0.464795,-2.25998 1.649521,-4.30857 3.376589,-5.83858 a 0.50818116,0.50818116 0 0 1 0.418327,-0.12113 z m -14.790432,9.61891 h 7.375215 a 0.50818116,0.50818116 0 0 1 0.503106,0.43721 c 0.152039,1.07185 0.430179,2.12203 0.829004,3.12841 a 0.50818116,0.50818116 0 0 1 -0.218611,0.62705 l -6.37658,3.68161 a 0.50818116,0.50818116 0 0 1 -0.716134,-0.22863 c -1.025548,-2.24022 -1.668359,-4.63635 -1.90188,-7.08934 a 0.50818116,0.50818116 0 0 1 0.505768,-0.55662 z m 11.493167,0 h 5.305448 a 0.50818116,0.50818116 0 0 1 0.46763,0.30923 c 0.132709,0.31181 0.299784,0.60815 0.498468,0.88371 a 0.50818116,0.50818116 0 0 1 0.0258,0.55148 l -2.64341,4.57837 a 0.50818116,0.50818116 0 0 1 -0.777035,0.12622 c -1.727158,-1.52994 -2.911814,-3.57844 -3.376584,-5.83867 a 0.50818116,0.50818116 0 0 1 0.497694,-0.61074 z m 14.587702,0 h 5.305911 a 0.50818116,0.50818116 0 0 1 0.49761,0.61072 c -0.464794,2.25999 -1.649679,4.30857 -3.376816,5.83858 a 0.50818116,0.50818116 0 0 1 -0.776948,-0.12622 l -2.64341,-4.57889 a 0.50818116,0.50818116 0 0 1 0.0258,-0.55147 c 0.198426,-0.27487 0.365501,-0.57122 0.498468,-0.88371 a 0.50818116,0.50818116 0 0 1 0.467458,-0.30925 z m 9.4236299,0 h 7.37522111 a 0.50818116,0.50818116 0 0 1 0.5057623,0.55662 c -0.2336438,2.45273 -0.8762852,4.84912 -1.90183621,7.08935 a 0.50818116,0.50818116 0 0 1 -0.7162168,0.22848 l -6.3765934,-3.6816 a 0.50818116,0.50818116 0 0 1 -0.218608,-0.62706 c 0.398998,-1.00639 0.677049,-2.05649 0.829003,-3.12842 a 0.50818116,0.50818116 0 0 1 0.503191,-0.43721 z m -14.5581609,3.00926 c 0.163637,0.0258 0.328133,0.0344 0.493315,0.043 0.164925,-0.005 0.329848,-0.0172 0.4934,-0.043 a 0.50818116,0.50818116 0 0 1 0.507915,0.24911 l 2.653629,4.59589 a 0.50818116,0.50818116 0 0 1 -0.278309,0.73614 c -1.087955,0.36593 -2.227856,0.55319 -3.375678,0.55577 a 0.50818116,0.50818116 0 0 1 -0.0023,0 c -1.147704,-0.005 -2.287496,-0.19068 -3.375444,-0.55577 a 0.50818116,0.50818116 0 0 1 -0.278309,-0.73528 l 2.653405,-4.59591 a 0.50818116,0.50818116 0 0 1 0.507828,-0.24909 z m -10.760215,3.7607 a 0.50818116,0.50818116 0 0 1 0.180386,0.005 0.50818116,0.50818116 0 0 1 0.303221,0.18468 c 0.670006,0.85039 1.438383,1.61893 2.289085,2.28893 a 0.50818116,0.50818116 0 0 1 0.125843,0.65283 l -3.679992,6.37364 a 0.50818116,0.50818116 0 0 1 -0.734603,0.15978 c -2.006521,-1.42736 -3.759773,-3.18065 -5.187042,-5.18705 a 0.50818116,0.50818116 0 0 1 0.159772,-0.73442 l 6.373632,-3.68006 a 0.50818116,0.50818116 0 0 1 0.169648,-0.0601 z m 22.5072439,0 a 0.50818116,0.50818116 0 0 1 0.169655,0.0601 l 6.373624,3.67996 a 0.50818116,0.50818116 0 0 1 0.1597719,0.73444 c -1.4272999,2.0065 -3.1806809,3.75976 -5.1870389,5.18704 a 0.50818116,0.50818116 0 0 1 -0.734598,-0.15976 l -3.6797719,-6.37395 a 0.50818116,0.50818116 0 0 1 0.125844,-0.65283 c 0.850562,-0.66999 1.618834,-1.43834 2.288859,-2.2891 a 0.50818116,0.50818116 0 0 1 0.303221,-0.18466 0.50818116,0.50818116 0 0 1 0.1803899,-0.005 z m -5.9874889,4.40221 a 0.50818116,0.50818116 0 0 1 0.177811,0.0258 v -9e-5 a 0.50818116,0.50818116 0 0 1 0.273156,0.22591 l 3.681588,6.37658 a 0.50818116,0.50818116 0 0 1 -0.228492,0.71639 c -2.240251,1.02553 -4.636813,1.66839 -7.089311,1.90187 a 0.50818116,0.50818116 0 0 1 -0.556361,-0.50595 v -7.37478 a 0.50818116,0.50818116 0 0 1 0.436881,-0.50338 c 1.071837,-0.15203 2.121854,-0.43033 3.1284,-0.82891 a 0.50818116,0.50818116 0 0 1 0.176523,-0.0344 z m -10.532039,8e-5 a 0.50818116,0.50818116 0 0 1 0.176523,0.0344 c 1.006475,0.39856 2.056455,0.67687 3.128409,0.82891 a 0.50818116,0.50818116 0 0 1 0.436872,0.50336 v 7.37523 a 0.50818116,0.50818116 0 0 1 -0.556189,0.50594 c -2.452724,-0.23364 -4.849083,-0.87634 -7.089312,-1.90188 a 0.50818116,0.50818116 0 0 1 -0.228488,-0.71639 l 3.681593,-6.37657 a 0.50818116,0.50818116 0 0 1 0.27272,-0.22591 0.50818116,0.50818116 0 0 1 0.177816,-0.0258 z"
       fill="currentColor"
       id="path898"
       style="fill:#f97316;stroke-width:0.264582;fill-opacity:1" />
    <text
       xml:space="preserve"
       style="font-weight:bold;font-size:68.7248px;font-family:Arial;-inkscape-font-specification:'Arial, Bold';fill:#ffffff;fill-opacity:1;stroke-width:0.1;stroke-linecap:round;stroke-linejoin:round;stroke-opacity:0.996587"
       x="21.611919"
       y="564.789"
       id="text2551"><tspan
         id="tspan2549"
         style="stroke-width:0.1"
         x="21.611919"
         y="564.789">Morio</tspan></text>
    <text
       xml:space="preserve"
       style="font-weight:bold;font-size:12.9801px;font-family:Arial;-inkscape-font-specification:'Arial, Bold';fill:#ffffff;fill-opacity:1;stroke-width:0.1;stroke-linecap:round;stroke-linejoin:round;stroke-opacity:0.996587"
       x="-61.339638"
       y="616.85559"
       id="text2605"><tspan
         id="tspan2603"
         style="stroke-width:0.1"
         x="-61.339638"
         y="616.85559">Connect</tspan></text>
    <text
       xml:space="preserve"
       style="font-weight:bold;font-size:12.9801px;font-family:Arial;-inkscape-font-specification:'Arial, Bold';fill:#ffffff;fill-opacity:1;stroke-width:0.1;stroke-linecap:round;stroke-linejoin:round;stroke-opacity:0.996587"
       x="17.386734"
       y="616.85559"
       id="text2609"><tspan
         id="tspan2607"
         style="stroke-width:0.1"
         x="17.386734"
         y="616.85559">Stream</tspan></text>
    <text
       xml:space="preserve"
       style="font-weight:bold;font-size:12.9801px;font-family:Arial;-inkscape-font-specification:'Arial, Bold';fill:#ffffff;fill-opacity:1;stroke-width:0.1;stroke-linecap:round;stroke-linejoin:round;stroke-opacity:0.996587"
       x="87.42379"
       y="616.85559"
       id="text2613"><tspan
         id="tspan2611"
         style="stroke-width:0.1"
         x="87.42379"
         y="616.85559">Observe</tspan></text>
    <text
       xml:space="preserve"
       style="font-weight:bold;font-size:12.9801px;font-family:Arial;-inkscape-font-specification:'Arial, Bold';fill:#ffffff;fill-opacity:1;stroke-width:0.1;stroke-linecap:round;stroke-linejoin:round;stroke-opacity:0.996587"
       x="165.3405"
       y="616.85559"
       id="text2617"><tspan
         id="tspan2615"
         style="stroke-width:0.1"
         x="165.3405"
         y="616.85559">Respond</tspan></text>
    <g
       id="g6372"
       transform="translate(-26.971919,434.82278)">
      <path
         d="m 32.977093,176.19338 2.939339,3.29555 -2.939339,3.29556"
         id="path2733"
         style="fill:none;stroke:#f97316;stroke-width:1;stroke-linecap:round;stroke-opacity:1" />
      <path
         d="m 26.135476,176.19338 2.939339,3.29555 -2.939339,3.29556"
         id="path3461"
         style="fill:none;stroke:#22c55e;stroke-width:1;stroke-linecap:round;stroke-opacity:1" />
      <path
         d="m 29.556285,176.19338 2.939338,3.29555 -2.939339,3.29556"
         id="path5641"
         style="fill:none;stroke:#8ecae6;stroke-width:1;stroke-linecap:round;stroke-opacity:1" />
    </g>
    <g
       id="g6398"
       transform="translate(43.16021,434.82278)">
      <path
         d="m 32.977093,176.19338 2.939339,3.29555 -2.939339,3.29556"
         id="path6392"
         style="fill:none;stroke:#f97316;stroke-width:1;stroke-linecap:round;stroke-opacity:1" />
      <path
         d="m 26.135476,176.19338 2.939339,3.29555 -2.939339,3.29556"
         id="path6394"
         style="fill:none;stroke:#22c55e;stroke-width:1;stroke-linecap:round;stroke-opacity:1" />
      <path
         d="m 29.556285,176.19338 2.939338,3.29555 -2.939339,3.29556"
         id="path6396"
         style="fill:none;stroke:#8ecae6;stroke-width:1;stroke-linecap:round;stroke-opacity:1" />
    </g>
    <g
       id="g6406"
       transform="translate(121.46353,434.82278)">
      <path
         d="m 32.977093,176.19338 2.939339,3.29555 -2.939339,3.29556"
         id="path6400"
         style="fill:none;stroke:#f97316;stroke-width:1;stroke-linecap:round;stroke-opacity:1" />
      <path
         d="m 26.135476,176.19338 2.939339,3.29555 -2.939339,3.29556"
         id="path6402"
         style="fill:none;stroke:#22c55e;stroke-width:1;stroke-linecap:round;stroke-opacity:1" />
      <path
         d="m 29.556285,176.19338 2.939338,3.29555 -2.939339,3.29556"
         id="path6404"
         style="fill:none;stroke:#8ecae6;stroke-width:1;stroke-linecap:round;stroke-opacity:1" />
    </g>
  </g>
</svg>
