<?xml version="1.0" encoding="UTF-8" standalone="no"?>
<!-- Created with Inkscape (http://www.inkscape.org/) -->

<!-- Morio wordmark font is phosphate (with some tweaks -->

<!-- Connect ... Respond font is Myriad Pro (Semi-Bold Italic Semi-Condensed) -->

<svg
   width="432.41629mm"
   height="103.25307mm"
   viewBox="0 0 432.41629 103.25307"
   version="1.1"
   id="svg5"
   xmlns:xlink="http://www.w3.org/1999/xlink"
   xmlns="http://www.w3.org/2000/svg"
   xmlns:svg="http://www.w3.org/2000/svg">
  <defs
     id="defs2">
    <linearGradient
       id="linearGradient7959">
      <stop
         style="stop-color:#0c526b;stop-opacity:1;"
         offset="0"
         id="stop7955" />
      <stop
         style="stop-color:#127498;stop-opacity:1;"
         offset="1"
         id="stop7957" />
    </linearGradient>
    <filter
       style="color-interpolation-filters:sRGB"
       id="filter2723"
       x="-0.064947893"
       y="-0.064947818"
       width="1.1298958"
       height="1.1298956">
      <feGaussianBlur
         stdDeviation="1.8250489"
         id="feGaussianBlur2725" />
    </filter>
    <filter
       style="color-interpolation-filters:sRGB"
       id="filter2729"
       x="-0.040099356"
       y="-0.18951272"
       width="1.0801987"
       height="1.3790254">
      <feGaussianBlur
         stdDeviation="3.7863698"
         id="feGaussianBlur2731" />
    </filter>
    <linearGradient
       xlink:href="#linearGradient7959"
       id="linearGradient2889"
       gradientUnits="userSpaceOnUse"
       x1="-77.739372"
       y1="471.53812"
       x2="234.3549"
       y2="634.3855"
       gradientTransform="translate(-9.5560571,-506.47103)" />
  </defs>
  <g
     id="layer1"
     transform="translate(100.46773,-175.27532)">
    <g
       id="g2887"
       transform="matrix(1.2697847,0,0,1.3054691,-44.203148,-478.3603)"
       style="stroke-width:0.776697">
      <g
         id="g2791"
         transform="matrix(1.0144928,0,0,1.0144928,0.54561325,2.3381596)"
         style="stroke-width:0.765601">
        <path
           d="M -5.2337814,495.71413 A 34.499956,34.499956 0 0 0 -39.733742,530.21414 34.499956,34.499956 0 0 0 -5.2337814,564.71413 34.499956,34.499956 0 0 0 29.266178,530.21414 34.499956,34.499956 0 0 0 -5.2337814,495.71413 Z m 2.866136,4.2103 c 3.386942,0.32125 6.696437,1.20756 9.790144,2.62303 a 0.70129001,0.70129001 0 0 1 0.315909,0.98864 l -5.082464,8.80346 a 0.70129001,0.70129001 0 0 1 -0.867472,0.30108 c -1.38978604,-0.55477 -2.8406611,-0.94357 -4.321914,-1.15812 a 0.70129001,0.70129001 0 0 1 -0.600992,-0.69467 v -10.16557 a 0.70129001,0.70129001 0 0 1 0.767421,-0.69821 z m -5.62569,0.008 a 0.70129001,0.70129001 0 0 1 0.650903,0.6994 v 10.17722 a 0.70129001,0.70129001 0 0 1 -0.602895,0.69463 c -1.479134,0.20981 -2.9281696,0.59388 -4.3172036,1.1439 a 0.70129001,0.70129001 0 0 1 -0.865568,-0.30108 l -5.080596,-8.79981 a 0.70129001,0.70129001 0 0 1 0.315906,-0.98743 c 3.091533,-1.41523 6.398175,-2.30251 9.7832486,-2.62469 a 0.70129001,0.70129001 0 0 1 0.116181,0 z m 20.1241274,5.3682 a 0.70129001,0.70129001 0 0 1 0.265536,0.1184 c 2.773021,1.97168 5.196013,4.39473 7.167525,7.16762 a 0.70129001,0.70129001 0 0 1 -0.221077,1.0135 l -8.80627,5.08441 a 0.70129001,0.70129001 0 0 1 -0.9017241,-0.17298 c -0.9256772,-1.1759 -1.9871953,-2.23744 -3.1630133,-3.16301 a 0.70129001,0.70129001 0 0 1 -0.173666,-0.90206 l 5.0846594,-8.8062 a 0.70129001,0.70129001 0 0 1 0.45816,-0.33428 0.70129001,0.70129001 0 0 1 0.289823,0 z m -34.725762,0.0237 a 0.70129001,0.70129001 0 0 1 0.289829,0 0.70129001,0.70129001 0 0 1 0.458156,0.3343 l 5.07839,8.7956 a 0.70129001,0.70129001 0 0 1 -0.173665,0.90093 c -1.173895,0.9246 -2.234244,1.98469 -3.158936,3.1586 a 0.70129001,0.70129001 0 0 1 -0.901492,0.17298 l -8.795615,-5.07836 a 0.70129001,0.70129001 0 0 1 -0.220484,-1.01352 c 1.969666,-2.76898 4.389343,-5.18846 7.158121,-7.15813 a 0.70129001,0.70129001 0 0 1 0.265527,-0.11855 z m 17.3547246,10.17093 a 0.70129001,0.70129001 0 0 1 0.0011,0 c 1.584993,0 3.159561,0.25723 4.66251192,0.75985 a 0.70129001,0.70129001 0 0 1 0.38525902,1.01587 l -3.65605994,6.33238 a 0.70129001,0.70129001 0 0 1 -0.685753,0.34613 c -0.231738,-0.0237 -0.465272,-0.0356 -0.698192,-0.0356 -0.230566,0.007 -0.459934,0.0237 -0.688724,0.0593 a 0.70129001,0.70129001 0 0 1 -0.700806,-0.34377 l -3.6620066,-6.34269 a 0.70129001,0.70129001 0 0 1 0.3840756,-1.01588 c 1.501304,-0.50498 3.074153,-0.76341 4.658114,-0.76697 z m 26.9607794,1.6592 a 0.70129001,0.70129001 0 0 1 0.288642,0.0237 0.70129001,0.70129001 0 0 1 0.424372,0.37577 c 1.415367,3.09374 2.301987,6.40292 2.622931,9.79018 a 0.70129001,0.70129001 0 0 1 -0.697954,0.76693 h -10.16582 a 0.70129001,0.70129001 0 0 1 -0.693931,-0.60098 c -0.213362,-1.48128 -0.602173,-2.93184 -1.157532,-4.32158 a 0.70129001,0.70129001 0 0 1 0.300495,-0.86773 l 8.803451,-5.08239 a 0.70129001,0.70129001 0 0 1 0.275603,-0.0947 z m -53.907749,0.007 a 0.70129001,0.70129001 0 0 1 0.275603,0.095 l 8.800307,5.08061 a 0.70129001,0.70129001 0 0 1 0.301684,0.86534 c -0.550619,1.38895 -0.934331,2.83808 -1.144027,4.31746 a 0.70129001,0.70129001 0 0 1 -0.694285,0.60219 h -10.177809 a 0.70129001,0.70129001 0 0 1 -0.697961,-0.76815 c 0.322429,-3.38477 1.209411,-6.69179 2.624597,-9.7833 a 0.70129001,0.70129001 0 0 1 0.42437,-0.37579 0.70129001,0.70129001 0 0 1 0.288052,-0.0237 z m 36.1339926,1.87221 a 0.70129001,0.70129001 0 0 1 0.577282,0.16715 c 2.388184,2.11522 4.0248841,4.94951 4.6634602,8.07492 a 0.70129001,0.70129001 0 0 1 -0.6869401,0.84162 H 1.1850286 a 0.70129001,0.70129001 0 0 1 -0.64271602,-0.42079 c -0.18848802,-0.4315 -0.42496402,-0.84164 -0.70448304,-1.22049 a 0.70129001,0.70129001 0 0 1 -0.04152,-0.76696 l 3.65700606,-6.33416 a 0.70129001,0.70129001 0 0 1 0.494896,-0.34141 z m -18.3618166,0.0124 a 0.70129001,0.70129001 0 0 1 0.494906,0.34141 l 3.647885,6.31887 a 0.70129001,0.70129001 0 0 1 -0.03561,0.76103 c -0.273829,0.37933 -0.504975,0.78829 -0.687886,1.21953 a 0.70129001,0.70129001 0 0 1 -0.645447,0.42674 h -7.321515 a 0.70129001,0.70129001 0 0 1 -0.686817,-0.84282 c 0.641417,-3.11878 2.276338,-5.94583 4.659692,-8.05724 a 0.70129001,0.70129001 0 0 1 0.577291,-0.16716 z m -20.410797,13.2741 h 10.177797 a 0.70129001,0.70129001 0 0 1 0.694286,0.60335 c 0.209814,1.47915 0.593647,2.9284 1.144026,4.31721 a 0.70129001,0.70129001 0 0 1 -0.301684,0.86532 l -8.79968,5.08062 a 0.70129001,0.70129001 0 0 1 -0.988265,-0.3155 c -1.415256,-3.09151 -2.302336,-6.39817 -2.624594,-9.7833 a 0.70129001,0.70129001 0 0 1 0.697959,-0.76813 z m 15.86057,0 h 7.321518 a 0.70129001,0.70129001 0 0 1 0.64533,0.42674 c 0.183138,0.43029 0.413702,0.83924 0.687886,1.21951 a 0.70129001,0.70129001 0 0 1 0.03561,0.76105 l -3.647906,6.31815 a 0.70129001,0.70129001 0 0 1 -1.072308,0.17418 c -2.383478,-2.11131 -4.018304,-4.93824 -4.659686,-8.05736 a 0.70129001,0.70129001 0 0 1 0.686818,-0.84283 z m 20.1310286,0 h 7.3221581 a 0.70129001,0.70129001 0 0 1 0.6867021,0.84279 c -0.6414161,3.11879 -2.2765572,5.94583 -4.6600062,8.05724 a 0.70129001,0.70129001 0 0 1 -1.072189,-0.17418 l -3.64790606,-6.31887 a 0.70129001,0.70129001 0 0 1 0.03561,-0.76103 c 0.27382702,-0.37932 0.50439102,-0.78829 0.68788504,-1.21952 a 0.70129001,0.70129001 0 0 1 0.64509202,-0.42676 z m 13.0046104,0 h 10.177805 a 0.70129001,0.70129001 0 0 1 0.697952,0.76813 c -0.322428,3.38477 -1.209274,6.69179 -2.624534,9.7833 a 0.70129001,0.70129001 0 0 1 -0.988379,0.31531 l -8.799699,-5.08061 a 0.70129001,0.70129001 0 0 1 -0.301679,-0.86534 c 0.550617,-1.38882 0.934327,-2.83796 1.144024,-4.31722 a 0.70129001,0.70129001 0 0 1 0.694404,-0.60335 z m -20.0902634,4.15277 c 0.22582,0.0356 0.452824,0.0475 0.680775,0.0593 0.227597,-0.007 0.455191,-0.0237 0.680892,-0.0593 a 0.70129001,0.70129001 0 0 1 0.700923,0.34378 l 3.66200794,6.34233 a 0.70129001,0.70129001 0 0 1 -0.38406602,1.01587 c -1.50137792,0.50498 -3.07444092,0.7634 -4.65843592,0.76696 a 0.70129001,0.70129001 0 0 1 -0.0032,0 c -1.583832,-0.007 -3.156745,-0.26314 -4.658113,-0.76696 a 0.70129001,0.70129001 0 0 1 -0.3840656,-1.01468 l 3.6616986,-6.34237 a 0.70129001,0.70129001 0 0 1 0.700803,-0.34374 z m -14.8490956,5.18977 a 0.70129001,0.70129001 0 0 1 0.248933,0.007 0.70129001,0.70129001 0 0 1 0.418445,0.25486 c 0.924608,1.17354 1.984968,2.23412 3.158936,3.15873 a 0.70129001,0.70129001 0 0 1 0.173664,0.9009 l -5.078389,8.79562 a 0.70129001,0.70129001 0 0 1 -1.013752,0.2205 c -2.768999,-1.96976 -5.188487,-4.3893 -7.158118,-7.15813 a 0.70129001,0.70129001 0 0 1 0.220485,-1.0135 l 8.795612,-5.07849 a 0.70129001,0.70129001 0 0 1 0.234114,-0.0829 z m 31.059997,0 a 0.70129001,0.70129001 0 0 1 0.234124,0.0829 l 8.795601,5.07834 a 0.70129001,0.70129001 0 0 1 0.220485,1.01354 c -1.969674,2.76896 -4.38934,5.18847 -7.158114,7.15811 a 0.70129001,0.70129001 0 0 1 -1.013745,-0.22061 l -5.0780854,-8.79605 a 0.70129001,0.70129001 0 0 1 0.173665,-0.90091 c 1.173775,-0.92459 2.2339911,-1.98491 3.1586253,-3.15895 a 0.70129001,0.70129001 0 0 1 0.4184441,-0.25483 0.70129001,0.70129001 0 0 1 0.248939,-0.007 z m -8.2627354,6.07505 a 0.70129001,0.70129001 0 0 1 0.245379,0.0356 v -1.1e-4 a 0.70129001,0.70129001 0 0 1 0.376955,0.31175 l 5.080592,8.79967 a 0.70129001,0.70129001 0 0 1 -0.31532,0.98862 c -3.091545,1.41524 -6.398801,2.30239 -9.783248,2.62458 a 0.70129001,0.70129001 0 0 1 -0.767779,-0.69821 v -10.17733 a 0.70129001,0.70129001 0 0 1 0.602897,-0.69467 c 1.4791339,-0.20979 2.92815696,-0.59385 4.317191,-1.1439 a 0.70129001,0.70129001 0 0 1 0.243601,-0.0475 z m -14.5342136,1.1e-4 a 0.70129001,0.70129001 0 0 1 0.243601,0.0475 c 1.388936,0.55002 2.8379086,0.93409 4.3172046,1.1439 a 0.70129001,0.70129001 0 0 1 0.602883,0.69463 v 10.17782 a 0.70129001,0.70129001 0 0 1 -0.76754,0.6982 c -3.3847586,-0.32242 -6.6917346,-1.20935 -9.7832506,-2.6246 a 0.70129001,0.70129001 0 0 1 -0.315313,-0.98861 l 5.080598,-8.79967 a 0.70129001,0.70129001 0 0 1 0.376354,-0.31175 0.70129001,0.70129001 0 0 1 0.245386,-0.0356 z"
           fill="currentColor"
           id="path2787"
           style="fill:#000000;fill-opacity:0.23;stroke:#000000;stroke-width:0.202564;filter:url(#filter2723)" />
        <path
           d="M -3.147353,494.1493 A 34.499956,34.499956 0 0 0 -37.647314,528.64931 34.499956,34.499956 0 0 0 -3.147353,563.1493 34.499956,34.499956 0 0 0 31.352606,528.64931 34.499956,34.499956 0 0 0 -3.147353,494.1493 Z m 2.866136,4.2103 c 3.386942,0.32125 6.696437,1.20756 9.790144,2.62303 a 0.70129001,0.70129001 0 0 1 0.315909,0.98864 l -5.082464,8.80346 A 0.70129001,0.70129001 0 0 1 3.8749,511.07581 c -1.389786,-0.55477 -2.840661,-0.94357 -4.321914,-1.15812 a 0.70129001,0.70129001 0 0 1 -0.600992,-0.69467 v -10.16557 a 0.70129001,0.70129001 0 0 1 0.767421,-0.69821 z m -5.62569,0.008 a 0.70129001,0.70129001 0 0 1 0.650903,0.6994 v 10.17722 a 0.70129001,0.70129001 0 0 1 -0.602895,0.69463 c -1.479134,0.20981 -2.92817,0.59388 -4.317204,1.1439 a 0.70129001,0.70129001 0 0 1 -0.865568,-0.30108 l -5.080596,-8.79981 a 0.70129001,0.70129001 0 0 1 0.315906,-0.98743 c 3.091533,-1.41523 6.398175,-2.30251 9.783249,-2.62469 a 0.70129001,0.70129001 0 0 1 0.116181,0 z m 20.124127,5.3682 a 0.70129001,0.70129001 0 0 1 0.265536,0.1184 c 2.773021,1.97168 5.196013,4.39473 7.167525,7.16762 a 0.70129001,0.70129001 0 0 1 -0.221077,1.0135 l -8.80627,5.08441 a 0.70129001,0.70129001 0 0 1 -0.901724,-0.17298 c -0.925677,-1.1759 -1.987195,-2.23744 -3.163013,-3.16301 a 0.70129001,0.70129001 0 0 1 -0.173666,-0.90206 l 5.084659,-8.8062 a 0.70129001,0.70129001 0 0 1 0.45816,-0.33428 0.70129001,0.70129001 0 0 1 0.289823,0 z m -34.725762,0.0237 a 0.70129001,0.70129001 0 0 1 0.289829,0 0.70129001,0.70129001 0 0 1 0.458156,0.3343 l 5.07839,8.7956 a 0.70129001,0.70129001 0 0 1 -0.173665,0.90093 c -1.173895,0.9246 -2.234244,1.98469 -3.158936,3.1586 a 0.70129001,0.70129001 0 0 1 -0.901492,0.17298 l -8.795615,-5.07836 a 0.70129001,0.70129001 0 0 1 -0.220484,-1.01352 c 1.969666,-2.76898 4.389343,-5.18846 7.158121,-7.15813 a 0.70129001,0.70129001 0 0 1 0.265527,-0.11855 z m 17.354725,10.17093 a 0.70129001,0.70129001 0 0 1 0.0011,0 c 1.584993,0 3.159561,0.25723 4.662512,0.75985 a 0.70129001,0.70129001 0 0 1 0.385259,1.01587 l -3.65606,6.33238 a 0.70129001,0.70129001 0 0 1 -0.685753,0.34613 c -0.231738,-0.0237 -0.465272,-0.0356 -0.698192,-0.0356 -0.230566,0.007 -0.459934,0.0237 -0.688724,0.0593 a 0.70129001,0.70129001 0 0 1 -0.700806,-0.34377 l -3.662007,-6.34269 a 0.70129001,0.70129001 0 0 1 0.384076,-1.01588 c 1.501304,-0.50498 3.074153,-0.76341 4.658114,-0.76697 z m 26.960779,1.6592 a 0.70129001,0.70129001 0 0 1 0.288642,0.0237 0.70129001,0.70129001 0 0 1 0.424372,0.37577 c 1.415367,3.09374 2.301987,6.40292 2.622931,9.79018 a 0.70129001,0.70129001 0 0 1 -0.697954,0.76693 h -10.16582 a 0.70129001,0.70129001 0 0 1 -0.693931,-0.60098 c -0.213362,-1.48128 -0.602173,-2.93184 -1.157532,-4.32158 a 0.70129001,0.70129001 0 0 1 0.300495,-0.86773 l 8.803451,-5.08239 a 0.70129001,0.70129001 0 0 1 0.275603,-0.0947 z m -53.907749,0.007 a 0.70129001,0.70129001 0 0 1 0.275603,0.095 l 8.800307,5.08061 a 0.70129001,0.70129001 0 0 1 0.301684,0.86534 c -0.550619,1.38895 -0.934331,2.83808 -1.144027,4.31746 a 0.70129001,0.70129001 0 0 1 -0.694285,0.60219 h -10.177809 a 0.70129001,0.70129001 0 0 1 -0.697961,-0.76815 c 0.322429,-3.38477 1.209411,-6.69179 2.624597,-9.7833 a 0.70129001,0.70129001 0 0 1 0.42437,-0.37579 0.70129001,0.70129001 0 0 1 0.288052,-0.0237 z m 36.133993,1.87221 a 0.70129001,0.70129001 0 0 1 0.577282,0.16715 c 2.388184,2.11522 4.024884,4.94951 4.66346,8.07492 a 0.70129001,0.70129001 0 0 1 -0.68694,0.84162 H 3.271457 a 0.70129001,0.70129001 0 0 1 -0.642716,-0.42079 c -0.188488,-0.4315 -0.424964,-0.84164 -0.704483,-1.22049 a 0.70129001,0.70129001 0 0 1 -0.04152,-0.76696 l 3.657006,-6.33416 a 0.70129001,0.70129001 0 0 1 0.494896,-0.34141 z m -18.361817,0.0124 a 0.70129001,0.70129001 0 0 1 0.494906,0.34141 l 3.647885,6.31887 a 0.70129001,0.70129001 0 0 1 -0.03561,0.76103 c -0.273829,0.37933 -0.504975,0.78829 -0.687886,1.21953 a 0.70129001,0.70129001 0 0 1 -0.645447,0.42674 h -7.321515 a 0.70129001,0.70129001 0 0 1 -0.686817,-0.84282 c 0.641417,-3.11878 2.276338,-5.94583 4.659692,-8.05724 a 0.70129001,0.70129001 0 0 1 0.577291,-0.16716 z m -20.410797,13.2741 h 10.177797 a 0.70129001,0.70129001 0 0 1 0.694286,0.60335 c 0.209814,1.47915 0.593647,2.9284 1.144026,4.31721 a 0.70129001,0.70129001 0 0 1 -0.301684,0.86532 l -8.79968,5.08062 a 0.70129001,0.70129001 0 0 1 -0.988265,-0.3155 c -1.415256,-3.09151 -2.302336,-6.39817 -2.624594,-9.7833 a 0.70129001,0.70129001 0 0 1 0.697959,-0.76813 z m 15.86057,0 h 7.321518 a 0.70129001,0.70129001 0 0 1 0.64533,0.42674 c 0.183138,0.43029 0.413702,0.83924 0.687886,1.21951 a 0.70129001,0.70129001 0 0 1 0.03561,0.76105 l -3.647906,6.31815 a 0.70129001,0.70129001 0 0 1 -1.072308,0.17418 c -2.383478,-2.11131 -4.018304,-4.93824 -4.659686,-8.05736 a 0.70129001,0.70129001 0 0 1 0.686818,-0.84283 z m 20.131029,0 h 7.322158 a 0.70129001,0.70129001 0 0 1 0.686702,0.84279 c -0.641416,3.11879 -2.276557,5.94583 -4.660006,8.05724 A 0.70129001,0.70129001 0 0 1 5.528856,539.48119 L 1.88095,533.16232 a 0.70129001,0.70129001 0 0 1 0.03561,-0.76103 c 0.273827,-0.37932 0.504391,-0.78829 0.687885,-1.21952 a 0.70129001,0.70129001 0 0 1 0.645092,-0.42676 z m 13.00461,0 h 10.177805 a 0.70129001,0.70129001 0 0 1 0.697952,0.76813 c -0.322428,3.38477 -1.209274,6.69179 -2.624534,9.7833 a 0.70129001,0.70129001 0 0 1 -0.988379,0.31531 l -8.799699,-5.08061 a 0.70129001,0.70129001 0 0 1 -0.301679,-0.86534 c 0.550617,-1.38882 0.934327,-2.83796 1.144024,-4.31722 a 0.70129001,0.70129001 0 0 1 0.694404,-0.60335 z m -20.090263,4.15277 c 0.22582,0.0356 0.452824,0.0475 0.680775,0.0593 0.227597,-0.007 0.455191,-0.0237 0.680892,-0.0593 a 0.70129001,0.70129001 0 0 1 0.700923,0.34378 l 3.662008,6.34233 a 0.70129001,0.70129001 0 0 1 -0.384066,1.01587 c -1.501378,0.50498 -3.074441,0.7634 -4.658436,0.76696 a 0.70129001,0.70129001 0 0 1 -0.0032,0 c -1.583832,-0.007 -3.156745,-0.26314 -4.658113,-0.76696 a 0.70129001,0.70129001 0 0 1 -0.384066,-1.01468 l 3.661699,-6.34237 a 0.70129001,0.70129001 0 0 1 0.700803,-0.34374 z m -14.849096,5.18977 a 0.70129001,0.70129001 0 0 1 0.248933,0.007 0.70129001,0.70129001 0 0 1 0.418445,0.25486 c 0.924608,1.17354 1.984968,2.23412 3.158936,3.15873 a 0.70129001,0.70129001 0 0 1 0.173664,0.9009 l -5.078389,8.79562 a 0.70129001,0.70129001 0 0 1 -1.013752,0.2205 c -2.768999,-1.96976 -5.188487,-4.3893 -7.158118,-7.15813 a 0.70129001,0.70129001 0 0 1 0.220485,-1.0135 l 8.795612,-5.07849 a 0.70129001,0.70129001 0 0 1 0.234114,-0.0829 z m 31.059997,0 a 0.70129001,0.70129001 0 0 1 0.234124,0.0829 l 8.795601,5.07834 a 0.70129001,0.70129001 0 0 1 0.220485,1.01354 c -1.969674,2.76896 -4.38934,5.18847 -7.158114,7.15811 A 0.70129001,0.70129001 0 0 1 13.45579,553.21016 L 8.377705,544.41411 A 0.70129001,0.70129001 0 0 1 8.55137,543.5132 c 1.173775,-0.92459 2.233991,-1.98491 3.158625,-3.15895 a 0.70129001,0.70129001 0 0 1 0.418444,-0.25483 0.70129001,0.70129001 0 0 1 0.248939,-0.007 z m -8.262735,6.07505 a 0.70129001,0.70129001 0 0 1 0.245379,0.0356 v -1.1e-4 a 0.70129001,0.70129001 0 0 1 0.376955,0.31175 l 5.080592,8.79967 a 0.70129001,0.70129001 0 0 1 -0.31532,0.98862 c -3.091545,1.41524 -6.398801,2.30239 -9.783248,2.62458 a 0.70129001,0.70129001 0 0 1 -0.767779,-0.69821 V 548.0575 a 0.70129001,0.70129001 0 0 1 0.602897,-0.69467 c 1.479134,-0.20979 2.928157,-0.59385 4.317191,-1.1439 a 0.70129001,0.70129001 0 0 1 0.243601,-0.0475 z m -14.534214,1.1e-4 a 0.70129001,0.70129001 0 0 1 0.243601,0.0475 c 1.388936,0.55002 2.837909,0.93409 4.317205,1.1439 a 0.70129001,0.70129001 0 0 1 0.602883,0.69463 v 10.17782 a 0.70129001,0.70129001 0 0 1 -0.76754,0.6982 c -3.384759,-0.32242 -6.691735,-1.20935 -9.783251,-2.6246 a 0.70129001,0.70129001 0 0 1 -0.315313,-0.98861 l 5.080598,-8.79967 a 0.70129001,0.70129001 0 0 1 0.376354,-0.31175 0.70129001,0.70129001 0 0 1 0.245386,-0.0356 z"
           fill="currentColor"
           id="path2789"
           style="fill:#22c55e;fill-opacity:1;stroke-width:0.202564" />
      </g>
      <g
         id="g2885"
         style="stroke-width:0.776697">
        <g
           id="g495"
           transform="translate(0,7.4696782)">
          <path
             id="path2793"
             style="font-weight:bold;font-size:68.7248px;font-family:Arial;-inkscape-font-specification:'Arial, Bold';fill:#000000;fill-opacity:0.22;stroke:#000000;stroke-width:0.776697;stroke-linecap:round;stroke-linejoin:round;stroke-opacity:0.996587;filter:url(#filter2729)"
             d="m 50.453097,505.23681 v 50 h 17.116867 v -15.68539 l 10.744438,15.68539 h 0.527942 L 89.50867,539.55142 v 15.68539 h 17.11686 v -50 H 92.48188 L 78.579204,525.8094 64.596755,505.23681 Z m 209.503503,0 a 26.800613,26.800613 0 0 0 -26.80043,26.80043 26.800613,26.800613 0 0 0 13.62402,23.19957 h 26.35282 a 26.800613,26.800613 0 0 0 13.62403,-23.19957 26.800613,26.800613 0 0 0 -26.80044,-26.80043 z m -123.63554,5.4e-4 a 26.800613,26.800613 0 0 0 -26.80043,26.80044 26.800613,26.800613 0 0 0 13.62291,23.19902 h 26.35449 a 26.800613,26.800613 0 0 0 13.62347,-23.19902 26.800613,26.800613 0 0 0 -26.80044,-26.80044 z m 29.50663,0 v 49.99946 h 17.11686 v -9.97939 l 5.90488,9.97939 h 20.17483 l -7.99836,-14.07829 c 1.33934,-0.96434 2.54434,-2.14257 3.61583,-3.5355 0.91074,-1.23221 1.7412,-2.78612 2.49124,-4.66119 0.75002,-1.8751 1.12513,-4.15187 1.12513,-6.83057 0,-3.37515 -0.61588,-6.34863 -1.84807,-8.92018 -1.17865,-2.62513 -2.83953,-4.82164 -4.9825,-6.58959 -2.14294,-1.76795 -4.68783,-3.10727 -7.63439,-4.01801 -2.893,-0.91075 -6.05375,-1.36613 -9.48247,-1.36613 z m 55.29659,0.001 c -4.75115,0 -8.57615,3.82499 -8.57615,8.57616 v 11.70503 24.74351 4.97363 h 18.16222 v -4.97358 -24.74351 -11.70504 c 0,-4.75116 -3.82498,-8.57616 -8.57616,-8.57616 z m -38.17973,14.46386 h 0.88415 c 2.03582,0 3.74968,0.45533 5.1426,1.36611 1.44651,0.91075 2.16994,2.43789 2.16994,4.58085 0,2.14297 -0.72343,3.66956 -2.16994,4.58031 -1.39292,0.91075 -3.10678,1.36611 -5.1426,1.36611 h -0.88415 z m 77.01205,1.60764 a 10.727265,10.727265 0 0 1 10.72727,10.72726 10.727265,10.727265 0 0 1 -10.72727,10.72782 10.727265,10.727265 0 0 1 -10.72726,-10.72782 10.727265,10.727265 0 0 1 10.72726,-10.72726 z m -123.63554,5.5e-4 a 10.727265,10.727265 0 0 1 10.72727,10.72727 10.727265,10.727265 0 0 1 -10.72727,10.72726 10.727265,10.727265 0 0 1 -10.72782,-10.72726 10.727265,10.727265 0 0 1 10.72782,-10.72727 z" />
          <path
             id="path2795"
             style="font-weight:bold;font-size:68.7248px;font-family:Arial;-inkscape-font-specification:'Arial, Bold';fill:#ffffff;stroke-width:0.776697;stroke-linecap:round;stroke-linejoin:round;stroke-opacity:0.996587"
             d="m 52.040598,503.6493 v 50 h 17.116867 v -15.68539 l 10.744438,15.68539 h 0.527942 l 10.666326,-15.68539 v 15.68539 h 17.116869 v -50 H 94.069381 L 80.166705,524.22189 66.184256,503.6493 Z m 209.503512,0 a 26.800613,26.800613 0 0 0 -26.80043,26.80043 26.800613,26.800613 0 0 0 13.62402,23.19957 h 26.35282 a 26.800613,26.800613 0 0 0 13.62403,-23.19957 26.800613,26.800613 0 0 0 -26.80044,-26.80043 z m -123.63554,5.4e-4 a 26.800613,26.800613 0 0 0 -26.80043,26.80044 26.800613,26.800613 0 0 0 13.62291,23.19902 h 26.35449 a 26.800613,26.800613 0 0 0 13.62347,-23.19902 26.800613,26.800613 0 0 0 -26.80044,-26.80044 z m 29.50663,0 v 49.99946 h 17.11686 v -9.97939 l 5.90488,9.97939 h 20.17483 l -7.99836,-14.07829 c 1.33934,-0.96434 2.54434,-2.14257 3.61583,-3.5355 0.91074,-1.23221 1.7412,-2.78612 2.49124,-4.66119 0.75002,-1.8751 1.12513,-4.15187 1.12513,-6.83057 0,-3.37515 -0.61588,-6.34863 -1.84807,-8.92018 -1.17865,-2.62513 -2.83953,-4.82164 -4.9825,-6.58959 -2.14294,-1.76795 -4.68783,-3.10727 -7.63439,-4.01801 -2.893,-0.91075 -6.05375,-1.36613 -9.48247,-1.36613 z m 55.29659,0.001 c -4.75115,0 -8.57615,3.82499 -8.57615,8.57616 v 11.70503 24.74351 4.97363 h 18.16222 v -4.97358 -24.74351 -11.70504 c 0,-4.75116 -3.82498,-8.57616 -8.57616,-8.57616 z m -38.17973,14.46386 h 0.88415 c 2.03582,0 3.74968,0.45533 5.1426,1.36611 1.44651,0.91075 2.16994,2.43789 2.16994,4.58085 0,2.14297 -0.72343,3.66956 -2.16994,4.58031 -1.39292,0.91075 -3.10678,1.36611 -5.1426,1.36611 h -0.88415 z m 77.01205,1.60764 a 10.727265,10.727265 0 0 1 10.72727,10.72726 10.727265,10.727265 0 0 1 -10.72727,10.72782 10.727265,10.727265 0 0 1 -10.72726,-10.72782 10.727265,10.727265 0 0 1 10.72726,-10.72726 z m -123.63554,5.5e-4 a 10.727265,10.727265 0 0 1 10.72727,10.72727 10.727265,10.727265 0 0 1 -10.72727,10.72726 10.727265,10.727265 0 0 1 -10.72782,-10.72726 10.727265,10.727265 0 0 1 10.72782,-10.72727 z" />
        </g>
      </g>
    </g>
  </g>
</svg>
