<svg width="355.15mm" height="591.92mm" version="1.1" viewBox="-5 -5 355.15 591.92" xmlns="http://www.w3.org/2000/svg">
  <style>
        path { fill: #ccc6; }
        @media (prefers-color-scheme: dark) {
            path { fill: #000; }
        }
    </style>
 <g stroke-linecap="round" stroke-linejoin="round" stroke-opacity=".99659" stroke-width=".7767">
  <path d="m-5 24.596v62.941h21.547l1e-5 -19.745 13.525 19.745h0.66458l13.427-19.745-1e-5 19.745 21.547 1e-5 1e-5 -62.941-17.804 1e-5 -17.501 25.897-17.601-25.897zm263.73-1e-5a33.737 33.737 0 0 0-33.737 33.737 33.737 33.737 0 0 0 17.15 29.204l33.173-1e-5a33.737 33.737 0 0 0 17.15-29.204 33.737 33.737 0 0 0-33.737-33.737zm-155.63 6.9e-4a33.737 33.737 0 0 0-33.737 33.737 33.737 33.737 0 0 0 17.149 29.203h33.175a33.737 33.737 0 0 0 17.149-29.203 33.737 33.737 0 0 0-33.737-33.737zm37.143-1e-5v62.94h21.547v-12.562l7.4331 12.562 25.396-1e-5 -10.068-17.722c1.686-1.2139 3.2028-2.6971 4.5516-4.4505 1.1464-1.5511 2.1918-3.5072 3.136-5.8676 0.94415-2.3604 1.4163-5.2264 1.4163-8.5984 0-4.2487-0.77529-7.9917-2.3264-11.229-1.4837-3.3045-3.5744-6.0695-6.272-8.295-2.6976-2.2255-5.9011-3.9115-9.6102-5.0579-3.6417-1.1465-7.6205-1.7197-11.937-1.7197zm69.608 1e-3c-5.9808 1e-5 -10.796 4.8149-10.796 10.796l1e-5 52.143 22.863 1e-5v-52.143c0-5.9808-4.8149-10.796-10.796-10.796zm-48.061 18.207h1.113c2.5627-1e-5 4.7201 0.57316 6.4736 1.7197 1.8209 1.1465 2.7315 3.0688 2.7315 5.7664 0 2.6976-0.91066 4.6193-2.7315 5.7657-1.7534 1.1465-3.9108 1.7197-6.4736 1.7197h-1.113zm96.944 2.0237a13.504 13.504 0 0 1 13.504 13.504 13.504 13.504 0 0 1-13.504 13.504 13.504 13.504 0 0 1-13.504-13.504 13.504 13.504 0 0 1 13.504-13.504zm-155.63 6.9e-4a13.504 13.504 0 0 1 13.504 13.504 13.504 13.504 0 0 1-13.504 13.504 13.504 13.504 0 0 1-13.504-13.504 13.504 13.504 0 0 1 13.504-13.504z"/>
  <path d="m172.58 142.98v62.941h21.547l1e-5 -19.745 13.525 19.745h0.66458l13.427-19.745-1e-5 19.745 21.547 1e-5 1e-5 -62.941-17.804 1e-5 -17.501 25.897-17.601-25.897zm263.73-1e-5a33.737 33.737 0 0 0-33.737 33.737 33.737 33.737 0 0 0 17.15 29.204l33.173-1e-5a33.737 33.737 0 0 0 17.15-29.204 33.737 33.737 0 0 0-33.737-33.737zm-155.63 6.9e-4a33.737 33.737 0 0 0-33.737 33.737 33.737 33.737 0 0 0 17.149 29.203h33.175a33.737 33.737 0 0 0 17.149-29.203 33.737 33.737 0 0 0-33.737-33.737zm37.143-1e-5v62.94h21.547v-12.562l7.4331 12.562 25.396-1e-5 -10.068-17.722c1.686-1.2139 3.2028-2.6971 4.5516-4.4505 1.1464-1.5511 2.1918-3.5072 3.136-5.8676 0.94415-2.3604 1.4163-5.2264 1.4163-8.5984 0-4.2487-0.77529-7.9917-2.3264-11.229-1.4837-3.3045-3.5744-6.0695-6.272-8.295-2.6976-2.2255-5.9011-3.9115-9.6102-5.0579-3.6417-1.1465-7.6205-1.7197-11.937-1.7197zm69.608 1e-3c-5.9808 1e-5 -10.796 4.8149-10.796 10.796l1e-5 52.143 22.863 1e-5v-52.143c0-5.9808-4.8149-10.796-10.796-10.796zm-48.061 18.207h1.113c2.5627-1e-5 4.7201 0.57316 6.4736 1.7197 1.8209 1.1465 2.7315 3.0688 2.7315 5.7664 0 2.6976-0.91066 4.6193-2.7315 5.7657-1.7534 1.1465-3.9108 1.7197-6.4736 1.7197h-1.113zm96.944 2.0237a13.504 13.504 0 0 1 13.504 13.504 13.504 13.504 0 0 1-13.504 13.504 13.504 13.504 0 0 1-13.504-13.504 13.504 13.504 0 0 1 13.504-13.504zm-155.63 6.9e-4a13.504 13.504 0 0 1 13.504 13.504 13.504 13.504 0 0 1-13.504 13.504 13.504 13.504 0 0 1-13.504-13.504 13.504 13.504 0 0 1 13.504-13.504z"/>
  <path d="m-5 261.36v62.941h21.547l1e-5 -19.745 13.525 19.745h0.66458l13.427-19.745-1e-5 19.745 21.547 1e-5 1e-5 -62.941-17.804 1e-5 -17.501 25.897-17.601-25.897zm263.73-1e-5a33.737 33.737 0 0 0-33.737 33.737 33.737 33.737 0 0 0 17.15 29.204l33.173-1e-5a33.737 33.737 0 0 0 17.15-29.204 33.737 33.737 0 0 0-33.737-33.737zm-155.63 6.9e-4a33.737 33.737 0 0 0-33.737 33.737 33.737 33.737 0 0 0 17.149 29.203h33.175a33.737 33.737 0 0 0 17.149-29.203 33.737 33.737 0 0 0-33.737-33.737zm37.143-1e-5v62.94h21.547v-12.562l7.4331 12.562 25.396-1e-5 -10.068-17.722c1.686-1.2139 3.2028-2.6971 4.5516-4.4505 1.1464-1.5511 2.1918-3.5072 3.136-5.8676 0.94415-2.3604 1.4163-5.2264 1.4163-8.5984 0-4.2487-0.77529-7.9917-2.3264-11.229-1.4837-3.3045-3.5744-6.0695-6.272-8.295-2.6976-2.2255-5.9011-3.9115-9.6102-5.0579-3.6417-1.1465-7.6205-1.7197-11.937-1.7197zm69.608 1e-3c-5.9808 1e-5 -10.796 4.8149-10.796 10.796l1e-5 52.143 22.863 1e-5v-52.143c0-5.9808-4.8149-10.796-10.796-10.796zm-48.061 18.207h1.113c2.5627-1e-5 4.7201 0.57316 6.4736 1.7197 1.8209 1.1465 2.7315 3.0688 2.7315 5.7664 0 2.6976-0.91066 4.6193-2.7315 5.7657-1.7534 1.1465-3.9108 1.7197-6.4736 1.7197h-1.113zm96.944 2.0237a13.504 13.504 0 0 1 13.504 13.504 13.504 13.504 0 0 1-13.504 13.504 13.504 13.504 0 0 1-13.504-13.504 13.504 13.504 0 0 1 13.504-13.504zm-155.63 6.9e-4a13.504 13.504 0 0 1 13.504 13.504 13.504 13.504 0 0 1-13.504 13.504 13.504 13.504 0 0 1-13.504-13.504 13.504 13.504 0 0 1 13.504-13.504z"/>
  <path d="m172.58 379.75v62.941h21.547l1e-5 -19.745 13.525 19.745h0.66458l13.427-19.745-1e-5 19.745 21.547 1e-5 1e-5 -62.941-17.804 1e-5 -17.501 25.897-17.601-25.897zm263.73-1e-5a33.737 33.737 0 0 0-33.737 33.737 33.737 33.737 0 0 0 17.15 29.204l33.173-1e-5a33.737 33.737 0 0 0 17.15-29.204 33.737 33.737 0 0 0-33.737-33.737zm-155.63 6.9e-4a33.737 33.737 0 0 0-33.737 33.737 33.737 33.737 0 0 0 17.149 29.203h33.175a33.737 33.737 0 0 0 17.149-29.203 33.737 33.737 0 0 0-33.737-33.737zm37.143-1e-5v62.94h21.547v-12.562l7.4331 12.562 25.396-1e-5 -10.068-17.722c1.686-1.2139 3.2028-2.6971 4.5516-4.4505 1.1464-1.5511 2.1918-3.5072 3.136-5.8676 0.94415-2.3604 1.4163-5.2264 1.4163-8.5984 0-4.2487-0.77529-7.9917-2.3264-11.229-1.4837-3.3045-3.5744-6.0695-6.272-8.295-2.6976-2.2255-5.9011-3.9115-9.6102-5.0579-3.6417-1.1465-7.6205-1.7197-11.937-1.7197zm69.608 1e-3c-5.9808 1e-5 -10.796 4.8149-10.796 10.796l1e-5 52.143 22.863 1e-5v-52.143c0-5.9808-4.8149-10.796-10.796-10.796zm-48.061 18.207h1.113c2.5627-1e-5 4.7201 0.57316 6.4736 1.7197 1.8209 1.1465 2.7315 3.0688 2.7315 5.7664 0 2.6976-0.91066 4.6193-2.7315 5.7657-1.7534 1.1465-3.9108 1.7197-6.4736 1.7197h-1.113zm96.944 2.0237a13.504 13.504 0 0 1 13.504 13.504 13.504 13.504 0 0 1-13.504 13.504 13.504 13.504 0 0 1-13.504-13.504 13.504 13.504 0 0 1 13.504-13.504zm-155.63 6.9e-4a13.504 13.504 0 0 1 13.504 13.504 13.504 13.504 0 0 1-13.504 13.504 13.504 13.504 0 0 1-13.504-13.504 13.504 13.504 0 0 1 13.504-13.504z"/>
  <path d="m-5 498.13v62.941h21.547l1e-5 -19.745 13.525 19.745h0.66458l13.427-19.745-1e-5 19.745 21.547 1e-5 1e-5 -62.941-17.804 1e-5 -17.501 25.897-17.601-25.897zm263.73-1e-5a33.737 33.737 0 0 0-33.737 33.737 33.737 33.737 0 0 0 17.15 29.204l33.173-1e-5a33.737 33.737 0 0 0 17.15-29.204 33.737 33.737 0 0 0-33.737-33.737zm-155.63 6.9e-4a33.737 33.737 0 0 0-33.737 33.737 33.737 33.737 0 0 0 17.149 29.203h33.175a33.737 33.737 0 0 0 17.149-29.203 33.737 33.737 0 0 0-33.737-33.737zm37.143-1e-5v62.94h21.547v-12.562l7.4331 12.562 25.396-1e-5 -10.068-17.722c1.686-1.2139 3.2028-2.6971 4.5516-4.4505 1.1464-1.5511 2.1918-3.5072 3.136-5.8676 0.94415-2.3604 1.4163-5.2264 1.4163-8.5984 0-4.2487-0.77529-7.9917-2.3264-11.229-1.4837-3.3045-3.5744-6.0695-6.272-8.295-2.6976-2.2255-5.9011-3.9115-9.6102-5.0579-3.6417-1.1465-7.6205-1.7197-11.937-1.7197zm69.608 1e-3c-5.9808 1e-5 -10.796 4.8149-10.796 10.796l1e-5 52.143 22.863 1e-5v-52.143c0-5.9808-4.8149-10.796-10.796-10.796zm-48.061 18.207h1.113c2.5627-1e-5 4.7201 0.57316 6.4736 1.7197 1.8209 1.1465 2.7315 3.0688 2.7315 5.7664 0 2.6976-0.91066 4.6193-2.7315 5.7657-1.7534 1.1465-3.9108 1.7197-6.4736 1.7197h-1.113zm96.944 2.0237a13.504 13.504 0 0 1 13.504 13.504 13.504 13.504 0 0 1-13.504 13.504 13.504 13.504 0 0 1-13.504-13.504 13.504 13.504 0 0 1 13.504-13.504zm-155.63 6.9e-4a13.504 13.504 0 0 1 13.504 13.504 13.504 13.504 0 0 1-13.504 13.504 13.504 13.504 0 0 1-13.504-13.504 13.504 13.504 0 0 1 13.504-13.504z"/>
  <path d="m-182.58 379.75v62.941h21.547l1e-5 -19.745 13.525 19.745h0.66458l13.427-19.745-1e-5 19.745 21.547 1e-5 1e-5 -62.941-17.804 1e-5 -17.501 25.897-17.601-25.897zm263.73-1e-5a33.737 33.737 0 0 0-33.737 33.737 33.737 33.737 0 0 0 17.15 29.204l33.173-1e-5a33.737 33.737 0 0 0 17.15-29.204 33.737 33.737 0 0 0-33.737-33.737zm-155.63 6.9e-4a33.737 33.737 0 0 0-33.737 33.737 33.737 33.737 0 0 0 17.149 29.203h33.175a33.737 33.737 0 0 0 17.149-29.203 33.737 33.737 0 0 0-33.737-33.737zm37.143-1e-5v62.94h21.547v-12.562l7.4331 12.562 25.396-1e-5 -10.068-17.722c1.686-1.2139 3.2028-2.6971 4.5516-4.4505 1.1464-1.5511 2.1918-3.5072 3.136-5.8676 0.94415-2.3604 1.4163-5.2264 1.4163-8.5984 0-4.2487-0.77529-7.9917-2.3264-11.229-1.4837-3.3045-3.5744-6.0695-6.272-8.295-2.6976-2.2255-5.9011-3.9115-9.6102-5.0579-3.6417-1.1465-7.6205-1.7197-11.937-1.7197zm69.608 1e-3c-5.9808 1e-5 -10.796 4.8149-10.796 10.796l1e-5 52.143 22.863 1e-5v-52.143c0-5.9808-4.8149-10.796-10.796-10.796zm-48.061 18.207h1.113c2.5627-1e-5 4.7201 0.57316 6.4736 1.7197 1.8209 1.1465 2.7315 3.0688 2.7315 5.7664 0 2.6976-0.91066 4.6193-2.7315 5.7657-1.7534 1.1465-3.9108 1.7197-6.4736 1.7197h-1.113zm96.944 2.0237a13.504 13.504 0 0 1 13.504 13.504 13.504 13.504 0 0 1-13.504 13.504 13.504 13.504 0 0 1-13.504-13.504 13.504 13.504 0 0 1 13.504-13.504zm-155.63 6.9e-4a13.504 13.504 0 0 1 13.504 13.504 13.504 13.504 0 0 1-13.504 13.504 13.504 13.504 0 0 1-13.504-13.504 13.504 13.504 0 0 1 13.504-13.504z"/>
  <path d="m-182.58 142.98v62.941h21.547l1e-5 -19.745 13.525 19.745h0.66458l13.427-19.745-1e-5 19.745 21.547 1e-5 1e-5 -62.941-17.804 1e-5 -17.501 25.897-17.601-25.897zm263.73-1e-5a33.737 33.737 0 0 0-33.737 33.737 33.737 33.737 0 0 0 17.15 29.204l33.173-1e-5a33.737 33.737 0 0 0 17.15-29.204 33.737 33.737 0 0 0-33.737-33.737zm-155.63 6.9e-4a33.737 33.737 0 0 0-33.737 33.737 33.737 33.737 0 0 0 17.149 29.203h33.175a33.737 33.737 0 0 0 17.149-29.203 33.737 33.737 0 0 0-33.737-33.737zm37.143-1e-5v62.94h21.547v-12.562l7.4331 12.562 25.396-1e-5 -10.068-17.722c1.686-1.2139 3.2028-2.6971 4.5516-4.4505 1.1464-1.5511 2.1918-3.5072 3.136-5.8676 0.94415-2.3604 1.4163-5.2264 1.4163-8.5984 0-4.2487-0.77529-7.9917-2.3264-11.229-1.4837-3.3045-3.5744-6.0695-6.272-8.295-2.6976-2.2255-5.9011-3.9115-9.6102-5.0579-3.6417-1.1465-7.6205-1.7197-11.937-1.7197zm69.608 1e-3c-5.9808 1e-5 -10.796 4.8149-10.796 10.796l1e-5 52.143 22.863 1e-5v-52.143c0-5.9808-4.8149-10.796-10.796-10.796zm-48.061 18.207h1.113c2.5627-1e-5 4.7201 0.57316 6.4736 1.7197 1.8209 1.1465 2.7315 3.0688 2.7315 5.7664 0 2.6976-0.91066 4.6193-2.7315 5.7657-1.7534 1.1465-3.9108 1.7197-6.4736 1.7197h-1.113zm96.944 2.0237a13.504 13.504 0 0 1 13.504 13.504 13.504 13.504 0 0 1-13.504 13.504 13.504 13.504 0 0 1-13.504-13.504 13.504 13.504 0 0 1 13.504-13.504zm-155.63 6.9e-4a13.504 13.504 0 0 1 13.504 13.504 13.504 13.504 0 0 1-13.504 13.504 13.504 13.504 0 0 1-13.504-13.504 13.504 13.504 0 0 1 13.504-13.504z"/>
 </g>
</svg>
