<?xml version="1.0" encoding="UTF-8"?>
<svg version="1.1" width="100" height="100" viewBox="0 0 24 24" xmlns="http://www.w3.org/2000/svg">
  <style>
        path { fill: #000; }
        @media (prefers-color-scheme: dark) {
            path { fill: #fff; }
        }
    </style>
 <path d="m12 1a11 11 0 0 0-11 11 11 11 0 0 0 11 11 11 11 0 0 0 11-11 11 11 0 0 0-11-11zm0.91384 1.3424c1.0799 0.10233 2.1351 0.38502 3.1215 0.83632a0.2236 0.2236 0 0 1 0.10073 0.3151l-1.6205 2.8069a0.2236 0.2236 0 0 1-0.27657 0.09585c-0.44312-0.17705-0.90572-0.30097-1.378-0.36911a0.2236 0.2236 0 0 1-0.19164-0.22127v-3.2412a0.2236 0.2236 0 0 1 0.24469-0.2226zm-1.7937 0.00264a0.2236 0.2236 0 0 1 0.20755 0.22305v3.2449a0.2236 0.2236 0 0 1-0.19221 0.22137c-0.47161 0.066841-0.93362 0.1893-1.3765 0.36478a0.2236 0.2236 0 0 1-0.27598-0.096076l-1.6199-2.8057a0.2236 0.2236 0 0 1 0.10072-0.31504c0.98571-0.45124 2.04-0.73414 3.1193-0.83687a0.2236 0.2236 0 0 1 0.03722 0zm6.4164 1.7116a0.2236 0.2236 0 0 1 0.08467 0.036831c0.88415 0.62865 1.6567 1.4012 2.2853 2.2853a0.2236 0.2236 0 0 1-0.07049 0.32313l-2.8078 1.6211a0.2236 0.2236 0 0 1-0.28752-0.055328c-0.29514-0.37486-0.6336-0.71339-1.0085-1.0085a0.2236 0.2236 0 0 1-0.055374-0.28744l1.6212-2.8078a0.2236 0.2236 0 0 1 0.14608-0.10668 0.2236 0.2236 0 0 1 0.09241 0zm-11.072 7e-3a0.2236 0.2236 0 0 1 0.09241 0 0.2236 0.2236 0 0 1 0.14608 0.10666l1.6192 2.8044a0.2236 0.2236 0 0 1-0.05537 0.28743c-0.37429 0.29478-0.71237 0.63281-1.0072 1.0071a0.2236 0.2236 0 0 1-0.28743 0.055332l-2.8044-1.6192a0.2236 0.2236 0 0 1-0.0703-0.32323c0.62801-0.88286 1.3995-1.6543 2.2823-2.2823a0.2236 0.2236 0 0 1 0.084663-0.036831zm5.5334 3.2429a0.2236 0.2236 0 0 1 5e-4 0c0.50536 0 1.0074 0.08196 1.4866 0.24217a0.2236 0.2236 0 0 1 0.12284 0.32383l-1.1657 2.019a0.2236 0.2236 0 0 1-0.21863 0.11038c-0.07389-0.0084-0.14835-0.01229-0.2226-0.01247-0.07351 0.0019-0.14665 0.0074-0.21959 0.01739a0.2236 0.2236 0 0 1-0.22345-0.10978l-1.1676-2.0223a0.2236 0.2236 0 0 1 0.12246-0.3237c0.47868-0.16088 0.98017-0.24346 1.4852-0.24459zm8.5962 0.52902a0.2236 0.2236 0 0 1 0.09203 0.00945 0.2236 0.2236 0 0 1 0.13531 0.11994c0.45128 0.98641 0.73397 2.0415 0.8363 3.1215a0.2236 0.2236 0 0 1-0.22252 0.24459h-3.2413a0.2236 0.2236 0 0 1-0.22127-0.19164c-0.068035-0.47227-0.19202-0.93478-0.36907-1.3779a0.2236 0.2236 0 0 1 0.09581-0.27661l2.8069-1.6205a0.2236 0.2236 0 0 1 0.08788-0.02867zm-17.188 0.0021a0.2236 0.2236 0 0 1 0.087875 0.02863l2.8059 1.6199a0.2236 0.2236 0 0 1 0.09619 0.27598c-0.17556 0.44285-0.2979 0.90492-0.36478 1.3766a0.2236 0.2236 0 0 1-0.22135 0.19213h-3.2451a0.2236 0.2236 0 0 1-0.22254-0.24477c0.1028-1.0792 0.38561-2.1336 0.83683-3.1193a0.2236 0.2236 0 0 1 0.13531-0.11991 0.2236 0.2236 0 0 1 0.091843-0.00945zm11.521 0.59692a0.2236 0.2236 0 0 1 0.18406 0.053329c0.76145 0.67444 1.2833 1.5781 1.4869 2.5746a0.2236 0.2236 0 0 1-0.21901 0.26829h-2.3325a0.2236 0.2236 0 0 1-0.20493-0.13406c-0.06009-0.13771-0.1355-0.26823-0.22462-0.38916a0.2236 0.2236 0 0 1-0.01323-0.24448l1.166-2.0196a0.2236 0.2236 0 0 1 0.1578-0.10893zm-5.8545 0.00548a0.2236 0.2236 0 0 1 0.1578 0.10883l1.1631 2.0147a0.2236 0.2236 0 0 1-0.01134 0.24257c-0.08731 0.12108-0.16101 0.25149-0.21931 0.38882a0.2236 0.2236 0 0 1-0.20578 0.13595h-2.3344a0.2236 0.2236 0 0 1-0.21897-0.26858c0.20451-0.9944 0.72579-1.8958 1.4857-2.569a0.2236 0.2236 0 0 1 0.18406-0.05331zm-6.5078 4.2323h3.2451a0.2236 0.2236 0 0 1 0.22135 0.19221c0.066898 0.47161 0.18928 0.9337 0.36478 1.3765a0.2236 0.2236 0 0 1-0.09619 0.27598l-2.8057 1.6199a0.2236 0.2236 0 0 1-0.31508-0.10054c-0.45124-0.9857-0.73408-2.04-0.83683-3.1193a0.2236 0.2236 0 0 1 0.22254-0.24482zm5.057 0h2.3344a0.2236 0.2236 0 0 1 0.20576 0.13605c0.0584 0.13735 0.13191 0.26776 0.21931 0.38882a0.2236 0.2236 0 0 1 0.01134 0.24257l-1.1631 2.0145a0.2236 0.2236 0 0 1-0.3419 0.05554c-0.75995-0.67314-1.2812-1.5745-1.4857-2.569a0.2236 0.2236 0 0 1 0.21899-0.26865zm6.4186 0h2.3346a0.2236 0.2236 0 0 1 0.21895 0.26865c-0.20449 0.9944-0.72586 1.8958-1.4858 2.569a0.2236 0.2236 0 0 1-0.34186-0.05554l-1.1631-2.0147a0.2236 0.2236 0 0 1 0.01134-0.2425c0.08731-0.12108 0.16082-0.25147 0.21931-0.38882a0.2236 0.2236 0 0 1 0.20568-0.13604zm4.1464 0h3.2451a0.2236 0.2236 0 0 1 0.22252 0.24482c-0.10281 1.0792-0.38557 2.1336-0.83681 3.1193a0.2236 0.2236 0 0 1-0.31512 0.10054l-2.8057-1.6199a0.2236 0.2236 0 0 1-0.09618-0.27604c0.17556-0.44283 0.29792-0.90486 0.36478-1.3765a0.2236 0.2236 0 0 1 0.2214-0.19221zm-6.4056 1.3241c0.07201 0.0097 0.14438 0.01513 0.21708 0.01701 0.07257-0.0019 0.14514-0.0071 0.2171-0.01701a0.2236 0.2236 0 0 1 0.22348 0.10976l1.1676 2.0222a0.2236 0.2236 0 0 1-0.12246 0.32378c-0.4787 0.16088-0.98026 0.2434-1.4853 0.24454a0.2236 0.2236 0 0 1-1e-3 0c-0.50499-0.0017-1.0065-0.08373-1.4852-0.24463a0.2236 0.2236 0 0 1-0.12246-0.32368l1.1675-2.0222a0.2236 0.2236 0 0 1 0.22345-0.10976zm-4.7345 1.6547a0.2236 0.2236 0 0 1 0.07937 0.0017 0.2236 0.2236 0 0 1 0.13342 0.08125c0.2948 0.37427 0.63289 0.71231 1.0072 1.0071a0.2236 0.2236 0 0 1 0.055371 0.28745l-1.6192 2.8044a0.2236 0.2236 0 0 1-0.32323 0.07043c-0.88287-0.62805-1.6543-1.3995-2.2823-2.2823a0.2236 0.2236 0 0 1 0.0703-0.32321l2.8044-1.6192a0.2236 0.2236 0 0 1 0.074646-0.02685zm9.9032 0a0.2236 0.2236 0 0 1 0.07465 0.02684l2.8044 1.6192a0.2236 0.2236 0 0 1 0.0703 0.32323c-0.62801 0.88285-1.3995 1.6543-2.2823 2.2823a0.2236 0.2236 0 0 1-0.32323-0.07043l-1.6191-2.8044a0.2236 0.2236 0 0 1 0.05537-0.28743c0.37423-0.29479 0.71229-0.63289 1.0071-1.0072a0.2236 0.2236 0 0 1 0.13342-0.0812 0.2236 0.2236 0 0 1 0.07936-0.0017zm-2.6345 1.937a0.2236 0.2236 0 0 1 0.07823 0.01229v-1.6e-5a0.2236 0.2236 0 0 1 0.12019 0.09936l1.6199 2.8057a0.2236 0.2236 0 0 1-0.10054 0.3151c-0.98571 0.45124-2.0402 0.73408-3.1193 0.83681a0.2236 0.2236 0 0 1-0.24478-0.22262v-3.2449a0.2236 0.2236 0 0 1 0.19223-0.22135c0.47161-0.06684 0.93362-0.18928 1.3765-0.36478a0.2236 0.2236 0 0 1 0.07767-0.01569zm-4.6341 1.6e-5a0.2236 0.2236 0 0 1 0.07767 0.01569c0.44285 0.17548 0.90484 0.2979 1.3765 0.36478a0.2236 0.2236 0 0 1 0.19223 0.22135v3.2451a0.2236 0.2236 0 0 1-0.24474 0.2226c-1.0792-0.10273-2.1336-0.38558-3.1193-0.83682a0.2236 0.2236 0 0 1-0.10054-0.3151l1.6199-2.8057a0.2236 0.2236 0 0 1 0.12-0.09934 0.2236 0.2236 0 0 1 0.07824-0.01229z" />
</svg>
