<?xml version="1.0" encoding="UTF-8"?>
<!-- Source: https://www.freevector.com/fantasy-world-game-background-95208# -->
<svg version="1.1" viewBox="0 0 881.94 564.44" xml:space="preserve" xmlns="http://www.w3.org/2000/svg"><defs><clipPath id="clipPath626"><path d="m21846 10578c-682.6 0-1237.4 547-1249.9 1226.6 3.5-191.7 50.3-372.9 130.8-534.2 2.4 0.5 4.9 1 7.2 1.7 50 14 88.3 53.3 111 106.9 82.7-110.4 183.2-206.6 297.3-284.4 8.9-16.3 19.1-32.4 30.4-48.2 73.7-102.3 178.2-161.5 268.3-161.5 36.7 0 71 9.8 99.8 30.5 97.7-24.4 199.8-37.4 305.1-37.4 105.2 0 207.4 13 305 37.4 28.9-20.7 63.2-30.5 99.9-30.5 90.1 0 194.6 59.2 268.2 161.5 11.4 15.8 21.5 31.9 30.4 48.2 114.1 77.8 214.6 174 297.3 284.4 22.8-53.6 61-92.9 111-106.9 2.4-0.7 4.8-1.2 7.2-1.7 80.6 161.3 127.4 342.5 130.9 534.2-12.5-679.6-567.3-1226.6-1249.9-1226.6m1249.9 1226.6v2.3-2.3m-2499.8 0c-0.1 0.8-0.1 1.5-0.1 2.3 0-0.8 0-1.5 0.1-2.3m2499.8 2.5c0 0.7 0 1.3 0.1 2-0.1-0.7-0.1-1.4-0.1-2m-2499.9 0v2.1-2.1m0 2.3v2.2-2.2m2500 0v6.8-6.8m-2500 2.3c-0.1 1.5-0.1 3-0.1 4.5 0-1.5 0-3 0.1-4.5m2500 5c0.1 0.6 0.1 1.1 0.1 1.7 0-0.6 0-1.1-0.1-1.7m-2500.1 0v1.7-1.7m0 2.4v1.5-1.5m2500.2 0v1.5-1.5m0 2.3v1.4-1.4m-2500.2 0v1.5-1.5m0 2.3v0.9-0.4-0.5m2500.2 0v0.6 0.2-0.8m-2470 30.1c-3 0.3-5.9 0.5-8.9 0.6 1.3 7.2 2.7 14.3 4.2 21.5 1.5-7.4 3.1-14.7 4.7-22.1m2439.7 0c1.4 6.1 2.7 12.2 4 18.3 1.2-5.9 2.3-11.8 3.4-17.8-2.4-0.1-4.9-0.2-7.4-0.5"/></clipPath></defs><g transform="matrix(.035278 0 0 -.035278 0 564.44)"><g><path d="m0 0h25000v16000h-25000z" fill="#ffcdd2"/><path d="m0 0v11107s2 0.1 5.8672 0.1c110.45 0 1752.9-29.8 2297.4-1790.4 154.09 202.61 503.1 324.6 888.86 324.6 327.7 0 682.04-87.99 966.3-289.2-1042-68.23-1882.2-887.66-1983.2-1920.5-13.99 0.46-27.86 0.68-41.56 0.68-253.54 0-455.43-75.2-455.43-75.2-270.3 1649.9-1678.2 1756.9-1678.2 1756.9v-9113.6m9415.4 3745.9c-254.05 844.7-1037.6 932.6-1353 932.6-82.99 0-133.63-6.1-133.63-6.1-86.46 458.2-258.33 769.2-466.35 978.4v460.46h-970.56v18.77h-58.09v1092c0 536.66-199.05 1027.6-527.26 1403.1 38.54 3.34 77.58 5.09 116.89 5.09 517.99 0 1097.5-302.16 1598.6-1228.4 212.83 83.41 427.91 128.23 630.31 128.23 453.46 0 843.66-224.74 1005.2-743.79 138.05 242.25 433.64 375.4 738.79 375.4 342.53 0 697.23-167.65 855.03-536.94 158.7 833.78 1034.4 1446.4 1920.7 1446.4 340.1 0 681.6-90.12 985-292.58 334.6 403.53 876.6 629.61 1424 629.61 597.6 0 1201.5-269.29 1549.3-871.13 0 0 1.2 947.66 945.3 947.66 43.3 0 88.5-1.98 135.9-6.16 26.4 711.21 579.8 1593.5 1516.7 1593.5 261.4 0 552.7-68.7 870.8-229.04 137.5 497.44 459.4 841.54 847.5 1023.7 197.6-164.4 446.6-269.1 719.4-286.3v-1155.1h160v1155.1c230.5 14.5 444.1 91.6 624 214.4 248.9-150.1 463.5-376.3 609.3-681.1 0 0 427.5 939 1375.2 939 141.9 0 295.4-21 461-69.4v-1506c-331.3 102.46-623 145.81-879.8 145.81-999.4 0-1467.5-657.73-1658.3-1052h-384.7c-340.7 300.2-737.4 448.39-1113.2 448.39-632 0-1204.8-419.58-1351.1-1241-165.9 42.71-315.7 61.59-451.4 61.59-1049.1 0-1238.4-1131.6-1238.4-1131.6-335.2 171.98-666 243.07-978.8 243.07-414.8 0-798-125.06-1117.4-305.77-11.8-6.64-23.5-13.38-35.2-20.2-377.3 550.34-1010.8 911.4-1728.5 911.4-1156.7 0-2094.4-937.69-2094.4-2094.4v-256.9c-13.4 3.1-26.7 6-40 8.8-208.7 44.4-401 64.3-578.1 64.3-1543.2 0-1930.8-1512.8-1930.8-1512.8" fill="#ffe6e9"/><path d="m25000 7140h-4.5v2337.2c1.5-0.45 3-0.95 4.5-1.4v-2335.8" fill="#fff5f6"/><path d="m11964 0h-11964v9113.6s1407.9-107 1678.2-1756.9c0 0 201.89 75.2 455.43 75.2 13.7 0 27.57-0.22 41.56-0.68-6.74-68.87-10.18-138.63-10.18-209.24v-3672c0-22.1 17.91-40 40.01-40 22.08 0 39.99 17.9 39.99 40h1060.2c4.51-8.5 12.07-15.4 21.83-18.9 4.46-1.6 9.01-2.3 13.49-2.3 14.56 0 28.32 8 35.32 21.2h2978c0-22.1 17.91-40 40-40s40.01 17.9 40.01 40h1028.6v2100.8c208.02-209.2 379.89-520.2 466.35-978.4 0 0 50.64 6.1 133.63 6.1 315.42 0 1098.9-87.9 1353-932.6 0 0 387.63 1512.8 1930.8 1512.8 177.1 0 369.4-19.9 578.1-64.3 13.3-2.8 26.6-5.7 40-8.8v-5185.6m5472.1 3587.8h-1283.3v1854.7c0 439-135 846.39-365.9 1183 11.7 6.82 23.4 13.56 35.2 20.2 319.4 180.71 702.6 305.77 1117.4 305.77 312.8 0 643.6-71.09 978.8-243.07 0 0 189.3 1131.6 1238.4 1131.6 135.7 0 285.5-18.88 451.4-61.59 146.3 821.47 719.1 1241 1351.1 1241 375.8 0 772.5-148.19 1113.2-448.39h-59.5v18.77h-185.5v-18.77h-1119.5v-1431.1h-2191.3c-71.7 0-130-58.3-130-130v-423.5c0-98.3 52.5-186 134.1-242.8v-1782.5h-1084.6v-973.4m1124.6 2825.3c-57.6 42.16-94.1 104.28-94.1 173.41v423.5c0 27.6 22.4 50 50 50h44.1v-646.91m6434.5 726.91h-2011.7v1431.1h-526.4c190.8 394.22 658.9 1052 1658.3 1052 256.8 0 548.5-43.35 879.8-145.81v-2337.2" fill="#fffafb"/><path d="m6393.8 3550h-4188.8v3672c0 1156.7 937.69 2094.4 2094.4 2094.4h0.01c1156.7 0 2094.4-937.68 2094.4-2094.4v-3672" fill="#d4e157"/><path d="m3547.5 6102.4c-230.28 113.95-446.85 246.74-650.16 394.29l3272 984.09c16.07-103.29 24.42-209.79 24.42-318.86v-263.63l-2646.3-795.89" fill="#e9f095"/><path d="m2532 8268.5c187.78 315.9 457.88 577.51 780.43 754.93 242.96 98.62 508.57 152.97 786.93 152.97 310.57 0 605.41-61.86 870.49-174.7l-318.16-95.69c-78.62 15.46-155.17 23.17-227.87 23.17-239.06 0-436.81-83.28-531.74-247.71-0.91-1.57-1.81-3.16-2.69-4.73l-1357.4-408.24" fill="#e9f095"/><path d="m2333.3 6973c-29.76 28.91-59.25 58.21-88.32 87.72v161.27c0 109.44 8.62 216.98 25.18 321.85l1699 510.99c105.33-164.3 268.4-322.51 474.59-447.1l-2110.5-634.73m3414.1 1026.8c-41.5 166.26-151.03 341.22-313.04 495.69l195.54 58.81c139.99-142.15 258.22-305.02 349.72-484.66l-232.22-69.84" fill="#e5ee61"/><path d="m5186.8 5669.1c-223.29 13.7-437.74 43.4-643.36 87l643.36 193.5v-280.5m1007 442.16h-469.52l469.52 141.21v-141.21" fill="#e9f095"/><path d="m5186.8 3550h-1811c0.89 1.7 1.67 3.5 2.33 5.3 1.59 4.4 3.22 8.8 4.91 13.1l1803.8-18.4" fill="#bad036"/><path d="m3305.2 3550h-27.09l24.1 7.3c0.76-2.5 1.76-5 2.99-7.3m-1060.2 279.1v645.9l2941.8 884.8v-645.9l-2941.8-884.8m0 1235.8v645.8l1302.5 391.75c306.91-151.85 638.23-270.35 995.98-346.35l-2298.5-691.2m0 1235.6v645.88l88.32 26.56c175.7-170.72 363.42-330.67 564.01-476.25l-652.33-196.19" fill="#bad036"/><path d="m2245 5710.7v589.85l652.33 196.19c203.31-147.55 419.88-280.34 650.16-394.29l-1302.5-391.75" fill="#dae772"/><path d="m3278.1 3550h-1033.1v279.1l2941.8 884.8v-166.2c-73.68 46.9-153.51 70.7-230.42 70.7-62.78 0-123.61-15.9-177.56-48.1-120.17-71.6-185.55-208.6-180.87-373.2-34.46 8.2-81.3 16.2-133.06 16.2-61.77 0-130.55-11.4-193.78-47.3-88.41-50.3-148.08-137.8-177.77-260.6-17.33 4.7-38.19 8.5-61.01 8.5-18.63 0-38.56-2.5-58.94-9-50.4-16.1-91.96-52.2-123.91-107.5-41.75 14.5-115.5 35-197.43 35-50.28 0-103.64-7.7-154.61-29.4-90.45-38.4-155.94-112.7-194.65-220.7-3-8.4-3.04-17.1-0.65-25l-24.1-7.3" fill="#dae772"/><path d="m2245 6946.4v114.28c29.07-29.51 58.56-58.81 88.32-87.72l-88.32-26.56" fill="#d4e43f"/><path d="m2245 4475v589.9l2298.5 691.2c205.62-43.6 420.07-73.3 643.36-87v-309.3l-2941.8-884.8" fill="#dae772"/><path d="m5176.9 7385c-215.95 0-465.61 67.95-703.68 205.4-9.89 5.71-19.7 11.5-29.4 17.36l1303.6 392.08c33.18-132.9 22.88-260.25-38.82-367.13-94.94-164.43-292.69-247.71-531.75-247.71m-1207.7 669.86c-139.79 218.06-177.83 446.83-79.77 621.88l762.3 229.27c154.9-30.47 317.9-91.06 475.82-182.23 116.03-67 219.13-144.61 306.85-228.25l-1465.2-440.67" fill="#e5ed9a"/><path d="m3889.4 8676.7c0.88 1.57 1.78 3.16 2.69 4.73 94.93 164.43 292.68 247.71 531.74 247.71 72.7 0 149.25-7.71 227.87-23.17l-762.3-229.27" fill="#f2f6bf"/><path d="m4443.8 7607.7c-206.19 124.59-369.26 282.8-474.59 447.1l1465.2 440.67c162.01-154.47 271.54-329.43 313.04-495.69l-1303.6-392.08" fill="#eff5a0"/><path d="m4299.4 9316.4h-0.01c-490.26 0-941.15-168.5-1298-450.69 319.27 196.96 695.33 310.7 1098 310.7 1156.7 0 2094.4-857.69 2094.4-2014.4v-3612h200v3672c0 1156.7-937.69 2094.4-2094.4 2094.4" fill="#fff"/><path d="m4299.4 9356.4c-1176.9 0-2134.4-957.48-2134.4-2134.4v-3672c0-22.1 17.91-40 40.01-40 22.08 0 39.99 17.9 39.99 40v3672c0 1132.8 921.6 2054.4 2054.4 2054.4 1132.8 0 2054.4-921.59 2054.4-2054.4v-3672c0-22.1 17.91-40 40-40s40.01 17.9 40.01 40v3672c0 1176.9-957.49 2134.4-2134.4 2134.4" fill="#263238"/><path d="m5186.8 4499.5c-270.72 193.6-591.7 16.3-544.49-357.2 0 0-441.38 171.2-519.3-291.5 0 0-164.23 96.2-254.33-103.7 0 0-399.81 180.2-528.23-178.3l1846.4-18.8v949.5" fill="#7cb342"/><path d="m3900.1 3661.7c71.88 130.8 196.17 112.2 251.06 96 14.75-4.4 29.88 5 33.19 20 76.5 347.9 400.13 288.4 514.3 255.6 18.19-5.2 36.06 9.7 33.73 28.4-43.68 353.2 210.9 490.4 454.45 369.9v67.9c-270.72 193.6-591.7 16.3-544.49-357.2 0 0-441.38 171.2-519.3-291.5 0 0-164.23 96.2-254.33-103.7 0 0-399.81 180.2-528.23-178.3l126.71-1.3c129.58 174.1 332.78 110.3 399.86 82.7 12.34-5.1 26.62-0.2 33.05 11.5" fill="#dce775"/><path d="m5210.1 4532c-138.96 99.4-304.2 114.1-431.25 38.3-120.17-71.6-185.55-208.6-180.87-373.2-75.59 18-210.62 35-326.84-31.1-88.41-50.3-148.08-137.8-177.77-260.6-31.47 8.7-74.61 14-119.95-0.5-50.4-16.1-91.96-52.2-123.91-107.5-67.37 23.3-218.02 62.6-352.04 5.6-90.45-38.4-155.94-112.7-194.65-220.7-7.45-20.8 3.37-43.7 24.17-51.2 4.46-1.6 9.01-2.3 13.49-2.3 16.41 0 31.8 10.2 37.65 26.5 30.83 86.1 81.38 144.6 150.28 174 142.78 60.9 322.13-17.9 323.87-18.7 20.16-9 43.83-0.1 52.9 20.1 23.79 52.7 54.71 85.7 91.91 97.8 53 17.3 105.43-12 105.74-12.2 11.35-6.6 25.23-7.3 37.15-1.7 11.91 5.6 20.33 16.6 22.51 29.6 20.73 123.1 70.47 207.9 147.82 252 135.3 77.3 315.82 9.4 317.56 8.8 13.15-5.1 27.98-2.9 39.1 5.7 11.1 8.7 16.82 22.6 15.05 36.6-20.03 158.4 31.49 290.9 137.81 354.3 100.83 60.1 229.33 47.2 343.73-34.6 17.97-12.9 42.94-8.8 55.8 9.2s8.71 43-9.26 55.8" fill="#263238"/><path d="m5186.8 3550h2275.6v2561.3h-2275.6z" fill="#7cb342"/><path d="m6677.4 3550h371.07v2561.3h-371.07z" fill="#dce775"/><path d="m6306.4 3568.8h185.54v2561.2h-185.54z" fill="#dce775"/><path d="m5505.3 3550h-318.5v2561.3h1119.5v-318.46h-801.01v-2242.8" fill="#447a25"/><path d="m7462.4 5792.8h-413.95v318.46h413.95v-318.46m-785.02 0h-185.54v318.46h185.54v-318.46" fill="#447a25"/><path d="m6677.4 5792.8h371.07v318.46h-371.07z" fill="#799e42"/><path d="m6306.4 5792.8h185.54v318.46h-185.54z" fill="#799e42"/><path d="m7544.9 6111.2h-2440.6c-42.6 0-77.13 34.53-77.13 77.13v699.9c0 42.6 34.53 77.13 77.13 77.13h2440.6c42.59 0 77.12-34.53 77.12-77.13v-699.9c0-42.6-34.53-77.13-77.12-77.13" fill="#7cb342"/></g><g fill="#dce775"><path d="m5027.2 6888.3v-102.09h2594.8v102.09c0 42.6-34.53 77.13-77.12 77.13h-2440.6c-42.6 0-77.13-34.53-77.13-77.13"/><path d="m7234 6111.2h-371.07v854.16h371.07v-854.16"/><path d="m6677.4 6111.2h-185.54v854.16h185.54v-854.16"/></g><path d="m7582.1 6188.4c0-20.47-16.66-37.13-37.13-37.13h-2440.6c-20.47 0-37.13 16.66-37.13 37.13v699.9c0 20.47 16.66 37.13 37.13 37.13h2440.6c20.47 0 37.13-16.66 37.13-37.13zm-37.13 817.03h-2440.6c-64.58 0-117.13-52.54-117.13-117.13v-699.9c0-64.59 52.55-117.13 117.13-117.13h42.48v-2521.2c0-22.1 17.91-40 40-40s40 17.9 40 40v2521.2h2195.6v-2521.2c0-22.1 17.91-40 40-40s40 17.9 40 40v2521.2h42.48c64.58 0 117.13 52.54 117.13 117.13v699.9c0 64.59-52.55 117.13-117.13 117.13" fill="#263238"/><path d="m10033 3550h-10033v-3550h10033v3550" fill="#c17e52"/><g fill="#b26b47"><path d="m2185 947h-523.7v523.7h523.7v-523.7"/><path d="m2708.7 1470.7h-523.7v523.7h523.7v-523.7"/><path d="m3232.4 1470.7h-523.7v523.7h523.7v-523.7"/><path d="m5083.6 947h-523.7v523.7h523.7v-523.7"/><path d="m5607.3 947h-523.7v523.7h523.7v-523.7"/><path d="m4503.6 0h-523.7v523.7h523.7v-523.7"/><path d="m5027.3 0h-523.7v523.7h523.7v-523.7"/><path d="m6131 423.3h-523.7v523.7h523.7v-523.7"/><path d="m7527.5 0h-523.7v523.7h523.7v-523.7"/><path d="m6654.7 947h-523.71v523.7h523.71v-523.7"/><path d="m8051.2 523.7h-523.7v523.7h523.7v-523.7"/><path d="m8051.2 1047.4h-523.7v523.7h523.7v-523.7"/><path d="m1661.3 423.3h-523.71v523.7h523.71v-523.7"/><path d="m523.7 1047.4h-523.7v523.7h523.7v-523.7"/><path d="m1047.4 1571.1h-523.7v523.7h523.7v-523.7"/><path d="m523.7 0h-523.7v523.7h523.7v-523.7"/><path d="m8574.9 523.7h-523.7v523.7h523.7v-523.7"/><path d="m9098.6 1047.4h-523.7v523.7h523.7v-523.7"/><path d="m9622.3 1571.1h-523.7v523.7h523.7v-523.7"/><path d="m10033 423.3h-523.65v523.7h523.65v-523.7"/><path d="m3756.1 947h-523.7v523.7h523.7v-523.7"/><path d="m5607.3 1470.7h-523.7v523.7h523.7v-523.7"/><path d="m3232.4 423.3h-523.7v523.7h523.7v-523.7"/></g><g><path d="m151.06 2722.9c7e-3 -149 140.14-269.8 313-269.8 172.87 0 313.01 120.8 313.01 269.8 0-149 140.14-269.8 313.01-269.8 172.86 0 313 120.8 313 269.8 0-149 140.14-269.8 313-269.8h0.01c172.86 0 313 120.8 313 269.8 0-149 140.14-269.8 313-269.8 172.87 0 313.01 120.8 313.01 269.8 0-149 140.13-269.8 313-269.8s313.01 120.8 313.01 269.8c0-149 140.14-269.8 313-269.8 172.87 0 313.01 120.8 313.01 269.8 0-149 140.13-269.8 313-269.8s313.01 120.8 313.01 269.8c0-149 140.13-269.8 313-269.8s313 120.8 313 269.8c0-149 140.14-269.8 313.01-269.8s313 120.8 313 269.8c0-149 140.14-269.8 313.01-269.8s313 120.8 313 269.8c0-149 140.14-269.8 313.01-269.8 172.86 0 313 120.8 313 269.8 0-149 140.14-269.8 313-269.8h0.01c172.86 0 313 120.8 313 269.8 0-149 140.14-269.8 313-269.8 172.87 0 313.01 120.8 313.01 269.8 0-149 140.14-269.8 313-269.8 172.87 0 313.01 120.8 313.01 269.8 0-149 140.13-269.8 313-269.8s313.01 120.8 313.01 269.8c0-149 140.13-269.8 313-269.8 66.56 0 128.22 18 178.9 48.5v848.4h-10033v-858c90.543 47.3 151.06 133 151.06 230.9" fill="#ad5c40"/><path d="m10067 3550h-10067v-758c90.543 47.3 151.06 133 151.06 230.9 7e-3 -149 140.14-269.8 313-269.8 172.87 0 313.01 120.8 313.01 269.8 0-149 140.14-269.8 313.01-269.8 172.86 0 313 120.8 313 269.8 0-149 140.14-269.8 313-269.8h0.01c172.86 0 313 120.8 313 269.8 0-149 140.14-269.8 313-269.8 172.87 0 313.01 120.8 313.01 269.8 0-149 140.13-269.8 313-269.8s313.01 120.8 313.01 269.8c0-149 140.14-269.8 313-269.8 172.87 0 313.01 120.8 313.01 269.8 0-149 140.13-269.8 313-269.8s313.01 120.8 313.01 269.8c0-149 140.13-269.8 313-269.8s313 120.8 313 269.8c0-149 140.14-269.8 313.01-269.8s313 120.8 313 269.8c0-149 140.14-269.8 313.01-269.8s313 120.8 313 269.8c0-149 140.14-269.8 313.01-269.8 172.86 0 313 120.8 313 269.8 0-149 140.14-269.8 313-269.8h0.01c172.86 0 313 120.8 313 269.8 0-149 140.14-269.8 313-269.8 172.87 0 313.01 120.8 313.01 269.8 0-149 140.14-269.8 313-269.8 172.87 0 313.01 120.8 313.01 269.8 0-149 140.13-269.8 313-269.8s313.01 120.8 313.01 269.8c0-149 140.13-269.8 313-269.8 172.9 0 313 120.8 313 269.8v427.1c0 55.2-44.8 100-100 100" fill="#7cb342"/><path d="m10167 3450c0 55.2-44.8 100-100 100h-10067v-200h10167v100" fill="#dce775"/><path d="m10207 3450v-427.1c0-98.3-52.5-185.9-134.1-242.7v-2780.2h-80v2738.2c-42.6-16.1-89.6-25.1-138.9-25.1-135.8 0-254 67.7-313 166.7-59-99-177.2-166.7-313-166.7s-254 67.7-313 166.7c-59-99-177.2-166.7-313-166.7-135.9 0-254 67.7-313 166.7-59-99-177.2-166.7-313-166.7-135.9 0-254 67.7-313 166.7-59-99-177.2-166.7-313-166.7-135.9 0-254 67.7-313 166.7-59-99-177.2-166.7-313-166.7-135.9 0-254 67.7-313 166.7-59.1-99-177.2-166.7-313.1-166.7-135.8 0-254 67.7-313 166.7-59-99-177.1-166.7-313-166.7-135.8 0-254 67.7-313 166.7-59-99-177.1-166.7-313-166.7-135.8 0-254 67.7-313 166.7-59-99-177.1-166.7-313-166.7-135.8 0-254 67.7-313 166.7-59-99-177.1-166.7-313-166.7-135.8 0-254 67.7-313 166.7-59-99-177.2-166.7-313-166.7s-254 67.7-313 166.7c-59-99-177.2-166.7-313-166.7s-254 67.7-313 166.7c-59-99-177.2-166.7-313-166.7-135.9 0-254 67.7-313 166.7-59-99-177.2-166.7-313-166.7-135.9 0-254 67.7-313 166.7-59-99-177.2-166.7-313-166.7-135.9 0-254.2 67.8-313.1 166.8-29.801-50.1-74.898-93-131.4-122.8l-19.602-11.7v92.7c69.898 43.3 111.1 111.1 111.1 184.8 0 22.1 17.898 40 40 40 22.097 0 40-17.9 40-40 0-126.7 122.4-229.8 273-229.8 150.5 0 273 103.1 273 229.8 0 22.1 17.898 40 40 40 22.097 0 40-17.9 40-40 0-126.7 122.4-229.8 273-229.8 150.5 0 273 103.1 273 229.8 0 22.1 17.9 40 40 40s40-17.9 40-40c0-126.7 122.5-229.8 273-229.8s273 103.1 273 229.8c0 22.1 17.9 40 40 40s40-17.9 40-40c0-126.7 122.5-229.8 273-229.8s273 103.1 273 229.8c0 22.1 17.9 40 40 40s40-17.9 40-40c0-126.7 122.5-229.8 273-229.8s273 103.1 273 229.8c0 22.1 17.9 40 40 40s40-17.9 40-40c0-126.7 122.5-229.8 273-229.8s273 103.1 273 229.8c0 22.1 17.9 40 40 40s40-17.9 40-40c0-126.7 122.5-229.8 273-229.8 150.6 0 273 103.1 273 229.8 0 22.1 17.9 40 40 40s40-17.9 40-40c0-126.7 122.5-229.8 273-229.8 150.6 0 273 103.1 273 229.8 0 22.1 17.9 40 40 40s40-17.9 40-40c0-126.7 122.5-229.8 273-229.8 150.6 0 273 103.1 273 229.8 0 22.1 18 40 40 40 22.1 0 40-17.9 40-40 0-126.7 122.5-229.8 273-229.8 150.6 0 273.1 103.1 273.1 229.8 0 22.1 17.9 40 40 40 22 0 40-17.9 40-40 0-126.7 122.4-229.8 273-229.8 150.5 0 273 103.1 273 229.8 0 22.1 17.9 40 40 40s40-17.9 40-40c0-126.7 122.4-229.8 273-229.8 150.5 0 273 103.1 273 229.8 0 22.1 17.9 40 40 40s40-17.9 40-40c0-126.7 122.4-229.8 273-229.8 150.5 0 273 103.1 273 229.8 0 22.1 17.9 40 40 40s40-17.9 40-40c0-126.7 122.5-229.8 273-229.8s273 103.1 273 229.8c0 22.1 17.9 40 40 40s40-17.9 40-40c0-126.7 122.5-229.8 273-229.8s273 103.1 273 229.8c0 22.1 17.9 40 40 40s40-17.9 40-40c0-126.7 122.5-229.8 273-229.8s273 103.1 273 229.8v427.1c0 33.1-26.9 60-60 60h-10067v80h10067c77.2 0 140-62.8 140-140" fill="#263238"/><path d="m16153 0h-4188.8v5442.5c0 1156.7 937.7 2094.4 2094.4 2094.4s2094.4-937.69 2094.4-2094.4v-5442.5" fill="#ffb300"/></g><g fill="#ffe082"><path d="m16086 1376.9c-70.8 0-102.9 18.9-143.5 43-45.1 26.7-96.3 57-194.5 57-98.1 0-149.3-30.3-194.4-57-40.6-24.1-72.7-43-143.4-43-70.8 0-102.9 18.9-143.5 43-45.1 26.7-96.3 57-194.4 57-98.2 0-149.3-30.3-194.4-57-40.7-24.1-72.7-43-143.5-43s-102.9 18.9-143.5 43c-45.1 26.7-96.2 57-194.4 57-98.1 0-149.3-30.3-194.4-57-40.6-24.1-72.7-43-143.4-43-70.8 0-102.9 18.9-143.5 43-45.1 26.7-96.2 57-194.3 57-98.2 0-149.3-30.3-194.5-57-40.6-24.1-72.6-43-143.4-43s-102.9 18.9-143.5 43c-45.1 26.7-96.2 57-194.4 57s-149.3-30.3-194.4-57c-40.6-24.1-72.7-43-143.5-43-70.7 0-102.8 18.9-143.4 43-45.1 26.7-96.2 57-194.4 57s-149.3-30.3-194.4-57c-40.6-24.1-72.7-43-143.4-43-27.3 0-48.7 2.8-67.2 7.6v-102.1c19.8-3.5 41.9-5.5 67.2-5.5 98.1 0 149.2 30.2 194.4 56.9 40.6 24.1 72.6 43.1 143.4 43.1s102.8-19 143.5-43.1c45.1-26.7 96.2-56.9 194.3-56.9 98.2 0 149.3 30.2 194.4 56.9 40.6 24.1 72.7 43.1 143.5 43.1s102.9-19 143.5-43.1c45.1-26.7 96.2-56.9 194.4-56.9 98.1 0 149.3 30.2 194.4 56.9 40.6 24.1 72.7 43.1 143.5 43.1 70.7 0 102.8-19 143.4-43.1 45.1-26.7 96.2-56.9 194.4-56.9 98.1 0 149.3 30.2 194.4 56.9 40.6 24.1 72.6 43.1 143.4 43.1s102.9-19 143.5-43.1c45.1-26.7 96.2-56.9 194.4-56.9 98.1 0 149.3 30.2 194.4 56.9 40.6 24.1 72.7 43.1 143.5 43.1s102.8-19 143.4-43.1c45.2-26.7 96.3-56.9 194.5-56.9 98.1 0 149.3 30.2 194.4 56.9 40.6 24.1 72.7 43.1 143.4 43.1 70.8 0 102.9-19 143.5-43.1 45.2-26.7 96.3-56.9 194.5-56.9 25.3 0 47.4 2 67.2 5.5v102.1c-18.5-4.8-40-7.6-67.2-7.6"/><path d="m16086 1853.9c-70.8 0-102.9 19-143.5 43.1-45.1 26.7-96.3 56.9-194.5 56.9-98.1 0-149.3-30.2-194.4-56.9-40.6-24.1-72.7-43.1-143.4-43.1-70.8 0-102.9 19-143.5 43.1-45.1 26.7-96.3 56.9-194.4 56.9-98.2 0-149.3-30.2-194.4-56.9-40.7-24.1-72.7-43.1-143.5-43.1s-102.9 19-143.5 43.1c-45.1 26.7-96.2 56.9-194.4 56.9-98.1 0-149.3-30.2-194.4-56.9-40.6-24.1-72.7-43.1-143.4-43.1-70.8 0-102.9 19-143.5 43.1-45.1 26.7-96.2 56.9-194.3 56.9-98.2 0-149.3-30.2-194.5-56.9-40.6-24.1-72.6-43.1-143.4-43.1s-102.9 19-143.5 43.1c-45.1 26.7-96.2 56.9-194.4 56.9s-149.3-30.2-194.4-56.9c-40.6-24.1-72.7-43.1-143.5-43.1-70.7 0-102.8 19-143.4 43.1-45.1 26.7-96.2 56.9-194.4 56.9s-149.3-30.2-194.4-56.9c-40.6-24.1-72.7-43.1-143.4-43.1-27.3 0-48.7 2.9-67.2 7.7v-102.2c19.8-3.4 41.9-5.5 67.2-5.5 98.1 0 149.2 30.3 194.4 57 40.6 24 72.6 43 143.4 43s102.8-19 143.5-43c45.1-26.7 96.2-57 194.3-57 98.2 0 149.3 30.3 194.4 57 40.6 24 72.7 43 143.5 43s102.9-19 143.5-43c45.1-26.7 96.2-57 194.4-57 98.1 0 149.3 30.3 194.4 57 40.6 24 72.7 43 143.5 43 70.7 0 102.8-19 143.4-43 45.1-26.7 96.2-57 194.4-57 98.1 0 149.3 30.3 194.4 57 40.6 24 72.6 43 143.4 43s102.9-19 143.5-43c45.1-26.7 96.2-57 194.4-57 98.1 0 149.3 30.3 194.4 57 40.6 24 72.7 43 143.5 43s102.8-19 143.4-43c45.2-26.7 96.3-57 194.5-57 98.1 0 149.3 30.3 194.4 57 40.6 24 72.7 43 143.4 43 70.8 0 102.9-19 143.5-43 45.2-26.7 96.3-57 194.5-57 25.3 0 47.4 2.1 67.2 5.5v102.2c-18.5-4.8-40-7.7-67.2-7.7"/><path d="m12226 856.8c40.6 24 72.6 43 143.4 43s102.8-19 143.5-43c45.1-26.699 96.2-57 194.3-57 98.2 0 149.3 30.301 194.4 57 40.6 24 72.7 43 143.5 43s102.9-19 143.5-43c45.1-26.699 96.2-57 194.4-57 98.1 0 149.3 30.301 194.4 57 40.6 24 72.7 43 143.5 43 70.7 0 102.8-19 143.4-43 45.1-26.699 96.2-57 194.4-57 98.1 0 149.3 30.301 194.4 57 40.6 24 72.6 43 143.4 43s102.9-19 143.5-43c45.1-26.699 96.2-57 194.4-57 98.1 0 149.3 30.301 194.4 57 40.6 24 72.7 43 143.5 43s102.8-19 143.4-43c45.2-26.699 96.3-57 194.5-57 98.1 0 149.3 30.301 194.4 57 40.6 24 72.7 43 143.4 43 70.8 0 102.9-19 143.5-43 45.2-26.699 96.3-57 194.5-57 25.3 0 47.4 2 67.2 5.5v102.2c-18.5-4.898-40-7.699-67.2-7.699-70.8 0-102.9 19-143.5 43-45.1 26.699-96.3 57-194.5 57-98.1 0-149.3-30.301-194.4-57-40.6-24-72.7-43-143.4-43-70.8 0-102.9 19-143.5 43-45.1 26.699-96.3 57-194.4 57-98.2 0-149.3-30.301-194.4-57-40.7-24-72.7-43-143.5-43s-102.9 19-143.5 43c-45.1 26.699-96.2 57-194.4 57-98.1 0-149.3-30.301-194.4-57-40.6-24-72.7-43-143.4-43-70.8 0-102.9 19-143.5 43-45.1 26.699-96.2 57-194.3 57-98.2 0-149.3-30.301-194.5-57-40.6-24-72.6-43-143.4-43s-102.9 19-143.5 43c-45.1 26.699-96.2 57-194.4 57s-149.3-30.301-194.4-57c-40.6-24-72.7-43-143.5-43-70.7 0-102.8 19-143.4 43-45.1 26.699-96.2 57-194.4 57s-149.3-30.301-194.4-57c-40.6-24-72.7-43-143.4-43-27.3 0-48.7 2.801-67.2 7.601v-102.1c19.8-3.403 41.9-5.5 67.2-5.5 98.1 0 149.2 30.301 194.4 57"/><path d="m16086 2331c-70.8 0-102.9 19-143.5 43-45.1 26.7-96.3 57-194.5 57-98.1 0-149.3-30.3-194.4-57-40.6-24-72.7-43-143.4-43-70.8 0-102.9 19-143.5 43-45.1 26.7-96.3 57-194.4 57-98.2 0-149.3-30.3-194.4-57-40.7-24-72.7-43-143.5-43s-102.9 19-143.5 43c-45.1 26.7-96.2 57-194.4 57-98.1 0-149.3-30.3-194.4-57-40.6-24-72.7-43-143.4-43-70.8 0-102.9 19-143.5 43-45.1 26.7-96.2 57-194.3 57-98.2 0-149.3-30.3-194.5-57-40.6-24-72.6-43-143.4-43s-102.9 19-143.5 43c-45.1 26.7-96.2 57-194.4 57s-149.3-30.3-194.4-57c-40.6-24-72.7-43-143.5-43-70.7 0-102.8 19-143.4 43-45.1 26.7-96.2 57-194.4 57s-149.3-30.3-194.4-57c-40.6-24-72.7-43-143.4-43-27.3 0-48.7 2.8-67.2 7.7v-102.2c19.8-3.4 41.9-5.5 67.2-5.5 98.1 0 149.2 30.3 194.4 57 40.6 24 72.6 43 143.4 43s102.8-19 143.5-43c45.1-26.7 96.2-57 194.3-57 98.2 0 149.3 30.3 194.4 57 40.6 24 72.7 43 143.5 43s102.9-19 143.5-43c45.1-26.7 96.2-57 194.4-57 98.1 0 149.3 30.3 194.4 57 40.6 24 72.7 43 143.5 43 70.7 0 102.8-19 143.4-43 45.1-26.7 96.2-57 194.4-57 98.1 0 149.3 30.3 194.4 57 40.6 24 72.6 43 143.4 43s102.9-19 143.5-43c45.1-26.7 96.2-57 194.4-57 98.1 0 149.3 30.3 194.4 57 40.6 24 72.7 43 143.5 43s102.8-19 143.4-43c45.2-26.7 96.3-57 194.5-57 98.1 0 149.3 30.3 194.4 57 40.6 24 72.7 43 143.4 43 70.8 0 102.9-19 143.5-43 45.2-26.7 96.3-57 194.5-57 25.3 0 47.4 2 67.2 5.5v102.2c-18.5-4.9-40-7.7-67.2-7.7"/><path d="m16153 430.4c-18.5-4.8-40-7.703-67.2-7.703-70.8 0-102.9 19-143.5 43-45.1 26.801-96.3 57-194.5 57-98.1 0-149.3-30.199-194.4-57-40.6-24-72.7-43-143.4-43-70.8 0-102.9 19-143.5 43-45.1 26.801-96.3 57-194.4 57-98.2 0-149.3-30.297-194.4-57-40.7-24-72.7-43-143.5-43s-102.9 19-143.5 43c-45.1 26.703-96.2 57-194.4 57-98.1 0-149.3-30.297-194.4-57-40.6-24-72.7-43-143.4-43-70.8 0-102.9 19-143.5 43-45.1 26.703-96.2 57-194.3 57-98.2 0-149.3-30.297-194.5-57-40.6-24-72.6-43-143.4-43s-102.9 19-143.5 43c-45.1 26.801-96.2 57-194.4 57s-149.3-30.297-194.4-57c-40.6-24-72.7-43-143.5-43-70.7 0-102.8 19-143.4 43-45.1 26.703-96.2 57-194.4 57s-149.3-30.297-194.4-57c-40.6-24-72.7-43-143.4-43-27.3 0-48.7 2.801-67.2 7.703v-102.2c19.8-3.398 41.9-5.5 67.2-5.5 98.1 0 149.2 30.301 194.4 57 40.6 24 72.6 43 143.4 43s102.8-19 143.5-43c45.1-26.699 96.2-57 194.3-57 98.2 0 149.3 30.301 194.4 57 40.6 24 72.7 43 143.5 43s102.9-19 143.5-43c45.1-26.699 96.2-57 194.4-57 98.1 0 149.3 30.301 194.4 57 40.6 24 72.7 43 143.5 43 70.7 0 102.8-19 143.4-43 45.1-26.699 96.2-57 194.4-57 98.1 0 149.3 30.301 194.4 57 40.6 24 72.6 43 143.4 43s102.9-19 143.5-43c45.1-26.699 96.2-57 194.4-57 98.1 0 149.3 30.301 194.4 57 40.6 24 72.7 43 143.5 43s102.8-19 143.4-43c45.2-26.699 96.3-57 194.5-57 98.1 0 149.3 30.301 194.4 57 40.6 24 72.7 43 143.4 43 70.8 0 102.9-19 143.5-43 45.2-26.699 96.3-57 194.5-57 25.3 0 47.4 2.102 67.2 5.5v102.2"/><path d="m12369 6624.6c70.8 0 102.8-18.99 143.5-43.03 45.1-26.7 96.2-56.97 194.3-56.97 98.2 0 149.3 30.27 194.4 56.97 40.6 24.04 72.7 43.03 143.5 43.03s102.9-18.99 143.5-43.03c45.1-26.71 96.2-56.97 194.4-56.97 98.1 0 149.3 30.26 194.4 56.97 40.6 24.04 72.7 43.03 143.5 43.03 70.7 0 102.8-18.99 143.4-43.03 45.1-26.7 96.2-56.97 194.4-56.97 98.1 0 149.3 30.27 194.4 56.97 40.6 24.04 72.6 43.03 143.4 43.03s102.9-18.99 143.5-43.03c45.1-26.71 96.2-56.97 194.4-56.97 98.1 0 149.3 30.26 194.4 56.97 40.6 24.04 72.7 43.03 143.5 43.03s102.8-18.99 143.4-43.03c45.2-26.71 96.3-56.97 194.5-56.97 98.1 0 149.3 30.26 194.4 56.97 40.6 24.04 72.7 43.03 143.4 43.03 15.6 0 29.3-0.97 41.6-2.66-23.6 34.58-48.2 68.4-73.8 101.45-77.6-5.81-122.3-32.15-162.2-55.77-40.6-24.04-72.7-43.02-143.4-43.02-70.8 0-102.9 18.98-143.5 43.02-45.1 26.71-96.3 56.98-194.4 56.98-98.2 0-149.3-30.28-194.4-56.98-40.7-24.04-72.7-43.02-143.5-43.02s-102.9 18.98-143.5 43.02c-45.1 26.7-96.2 56.98-194.4 56.98-98.1 0-149.3-30.28-194.4-56.98-40.6-24.04-72.7-43.02-143.4-43.02-70.8 0-102.9 18.98-143.5 43.02-45.1 26.7-96.2 56.98-194.3 56.98-98.2 0-149.3-30.28-194.5-56.98-40.6-24.04-72.6-43.02-143.4-43.02s-102.9 18.98-143.5 43.02c-45.1 26.71-96.2 56.98-194.4 56.98s-149.3-30.28-194.4-56.98c-40.6-24.04-72.7-43.02-143.5-43.02-70.7 0-102.8 18.98-143.4 43.02-39.9 23.59-84.5 49.93-162 55.76-25.6-33.04-50.2-66.85-73.8-101.42 12.3 1.68 25.9 2.64 41.4 2.64"/><path d="m12707 7001.7c98.2 0 149.3 30.27 194.4 56.97 40.6 24.05 72.7 43.03 143.5 43.03s102.9-18.98 143.5-43.03c45.1-26.71 96.2-56.97 194.4-56.97 98.1 0 149.3 30.26 194.4 56.97 40.6 24.05 72.7 43.03 143.5 43.03 70.7 0 102.8-18.98 143.4-43.03 45.1-26.7 96.2-56.97 194.4-56.97 98.1 0 149.3 30.27 194.4 56.97 40.6 24.05 72.6 43.03 143.4 43.03s102.9-18.98 143.5-43.03c45.1-26.71 96.2-56.97 194.4-56.97 98.1 0 149.3 30.26 194.4 56.97 40.6 24.05 72.7 43.03 143.5 43.03s102.8-18.98 143.4-43.03c45.2-26.71 96.3-56.97 194.5-56.97 15.9 0 30.5 0.87 44.2 2.32-45.3 40.49-92.3 79.12-140.9 115.59-16.2 7.04-30.9 15.68-46.8 25.12-45.1 26.71-96.3 56.97-194.4 56.97-98.2 0-149.3-30.28-194.4-56.97-40.7-24.05-72.7-43.03-143.5-43.03s-102.9 18.98-143.5 43.03c-45.1 26.69-96.2 56.97-194.4 56.97-98.1 0-149.3-30.28-194.4-56.97-40.6-24.05-72.7-43.03-143.4-43.03-70.8 0-102.9 18.98-143.5 43.03-45.1 26.69-96.2 56.97-194.3 56.97-98.2 0-149.3-30.28-194.5-56.97-40.6-24.05-72.6-43.03-143.4-43.03s-102.9 18.98-143.5 43.03c-45.1 26.71-96.2 56.97-194.4 56.97s-149.3-30.28-194.4-56.97c-15.8-9.35-30.3-17.9-46.3-24.9-48.7-36.54-95.8-75.25-141.2-115.83 13.6-1.44 28.2-2.3 44-2.3"/><path d="m16086 3285.1c-70.8 0-102.9 19-143.5 43.1-45.1 26.7-96.3 56.9-194.5 56.9-98.1 0-149.3-30.2-194.4-56.9-40.6-24.1-72.7-43.1-143.4-43.1-70.8 0-102.9 19-143.5 43.1-45.1 26.7-96.3 56.9-194.4 56.9-98.2 0-149.3-30.2-194.4-56.9-40.7-24.1-72.7-43.1-143.5-43.1s-102.9 19-143.5 43.1c-45.1 26.7-96.2 56.9-194.4 56.9-98.1 0-149.3-30.2-194.4-56.9-40.6-24.1-72.7-43.1-143.4-43.1-70.8 0-102.9 19-143.5 43.1-45.1 26.7-96.2 56.9-194.3 56.9-98.2 0-149.3-30.2-194.5-56.9-40.6-24.1-72.6-43.1-143.4-43.1s-102.9 19-143.5 43.1c-45.1 26.7-96.2 56.9-194.4 56.9s-149.3-30.2-194.4-56.9c-40.6-24.1-72.7-43.1-143.5-43.1-70.7 0-102.8 19-143.4 43.1-45.1 26.7-96.2 56.9-194.4 56.9s-149.3-30.2-194.4-56.9c-40.6-24.1-72.7-43.1-143.4-43.1-27.3 0-48.7 2.9-67.2 7.7v-102.1c19.8-3.5 41.9-5.6 67.2-5.6 98.1 0 149.2 30.3 194.4 57 40.6 24.1 72.6 43 143.4 43s102.8-18.9 143.5-43c45.1-26.7 96.2-57 194.3-57 98.2 0 149.3 30.3 194.4 57 40.6 24.1 72.7 43 143.5 43s102.9-18.9 143.5-43c45.1-26.7 96.2-57 194.4-57 98.1 0 149.3 30.3 194.4 57 40.6 24.1 72.7 43 143.5 43 70.7 0 102.8-18.9 143.4-43 45.1-26.7 96.2-57 194.4-57 98.1 0 149.3 30.3 194.4 57 40.6 24.1 72.6 43 143.4 43s102.9-18.9 143.5-43c45.1-26.7 96.2-57 194.4-57 98.1 0 149.3 30.3 194.4 57 40.6 24.1 72.7 43 143.5 43s102.8-18.9 143.4-43c45.2-26.7 96.3-57 194.5-57 98.1 0 149.3 30.3 194.4 57 40.6 24.1 72.7 43 143.4 43 70.8 0 102.9-18.9 143.5-43 45.2-26.7 96.3-57 194.5-57 25.3 0 47.4 2.1 67.2 5.5v102.2c-18.5-4.8-40-7.7-67.2-7.7"/><path d="m16086 5193.4c-70.8 0-102.9 19-143.5 43.1-45.1 26.7-96.3 56.9-194.5 56.9-98.1 0-149.3-30.2-194.4-56.9-40.6-24.1-72.7-43.1-143.4-43.1-70.8 0-102.9 19-143.5 43.1-45.1 26.7-96.3 56.9-194.4 56.9-98.2 0-149.3-30.2-194.4-56.9-40.7-24.1-72.7-43.1-143.5-43.1s-102.9 19-143.5 43.1c-45.1 26.7-96.2 56.9-194.4 56.9-98.1 0-149.3-30.2-194.4-56.9-40.6-24.1-72.7-43.1-143.4-43.1-70.8 0-102.9 19-143.5 43.1-45.1 26.7-96.2 56.9-194.3 56.9-98.2 0-149.3-30.2-194.5-56.9-40.6-24.1-72.6-43.1-143.4-43.1s-102.9 19-143.5 43.1c-45.1 26.7-96.2 56.9-194.4 56.9s-149.3-30.2-194.4-56.9c-40.6-24.1-72.7-43.1-143.5-43.1-70.7 0-102.8 19-143.4 43.1-45.1 26.7-96.2 56.9-194.4 56.9s-149.3-30.2-194.4-56.9c-40.6-24.1-72.7-43.1-143.4-43.1-27.3 0-48.7 2.9-67.2 7.7v-102.2c19.8-3.4 41.9-5.5 67.2-5.5 98.1 0 149.2 30.3 194.4 57 40.6 24 72.6 43 143.4 43s102.8-19 143.5-43c45.1-26.7 96.2-57 194.3-57 98.2 0 149.3 30.3 194.4 57 40.6 24 72.7 43 143.5 43s102.9-19 143.5-43c45.1-26.7 96.2-57 194.4-57 98.1 0 149.3 30.3 194.4 57 40.6 24 72.7 43 143.5 43 70.7 0 102.8-19 143.4-43 45.1-26.7 96.2-57 194.4-57 98.1 0 149.3 30.3 194.4 57 40.6 24 72.6 43 143.4 43s102.9-19 143.5-43c45.1-26.7 96.2-57 194.4-57 98.1 0 149.3 30.3 194.4 57 40.6 24 72.7 43 143.5 43s102.8-19 143.4-43c45.2-26.7 96.3-57 194.5-57 98.1 0 149.3 30.3 194.4 57 40.6 24 72.7 43 143.4 43 70.8 0 102.9-19 143.5-43 45.2-26.7 96.3-57 194.5-57 25.3 0 47.4 2.1 67.2 5.5v102.2c-18.5-4.8-40-7.7-67.2-7.7"/><path d="m16086 5670.5c-70.8 0-102.9 19-143.5 43-45.1 26.7-96.3 57-194.5 57-98.1 0-149.3-30.3-194.4-57-40.6-24-72.7-43-143.4-43-70.8 0-102.9 19-143.5 43-45.1 26.7-96.3 57-194.4 57-98.2 0-149.3-30.3-194.4-57-40.7-24-72.7-43-143.5-43s-102.9 19-143.5 43c-45.1 26.7-96.2 57-194.4 57-98.1 0-149.3-30.3-194.4-57-40.6-24-72.7-43-143.4-43-70.8 0-102.9 19-143.5 43-45.1 26.7-96.2 57-194.3 57-98.2 0-149.3-30.3-194.5-57-40.6-24-72.6-43-143.4-43s-102.9 19-143.5 43c-45.1 26.7-96.2 57-194.4 57s-149.3-30.3-194.4-57c-40.6-24-72.7-43-143.5-43-70.7 0-102.8 19-143.4 43-45.1 26.7-96.2 57-194.4 57s-149.3-30.3-194.4-57c-40.6-24-72.7-43-143.4-43-21.1 0-38.8 1.7-54.2 4.7-3.7-33.1-6.6-66.4-8.7-99.9 18.7-3 39.4-4.8 62.9-4.8 98.1 0 149.2 30.3 194.4 57 40.6 24 72.6 43 143.4 43s102.8-19 143.5-43c45.1-26.7 96.2-57 194.3-57 98.2 0 149.3 30.3 194.4 57 40.6 24 72.7 43 143.5 43s102.9-19 143.5-43c45.1-26.7 96.2-57 194.4-57 98.1 0 149.3 30.3 194.4 57 40.6 24 72.7 43 143.5 43 70.7 0 102.8-19 143.4-43 45.1-26.7 96.2-57 194.4-57 98.1 0 149.3 30.3 194.4 57 40.6 24 72.6 43 143.4 43s102.9-19 143.5-43c45.1-26.7 96.2-57 194.4-57 98.1 0 149.3 30.3 194.4 57 40.6 24 72.7 43 143.5 43s102.8-19 143.4-43c45.2-26.7 96.3-57 194.5-57 98.1 0 149.3 30.3 194.4 57 40.6 24 72.7 43 143.4 43 70.8 0 102.9-19 143.5-43 45.2-26.7 96.3-57 194.5-57 23.5 0 44.2 1.8 62.9 4.8-2.1 33.5-5 66.9-8.6 99.9-15.5-3-33.2-4.7-54.3-4.7"/><path d="m15942 6190.6c-45.1 26.7-96.3 56.97-194.5 56.97-98.1 0-149.3-30.27-194.4-56.97-40.6-24.05-72.7-43.03-143.4-43.03-70.8 0-102.9 18.98-143.5 43.03-45.1 26.7-96.3 56.97-194.4 56.97-98.2 0-149.3-30.27-194.4-56.97-40.7-24.05-72.7-43.03-143.5-43.03s-102.9 18.98-143.5 43.03c-45.1 26.7-96.2 56.97-194.4 56.97-98.1 0-149.3-30.27-194.4-56.97-40.6-24.05-72.7-43.03-143.4-43.03-70.8 0-102.9 18.98-143.5 43.03-45.1 26.7-96.2 56.97-194.3 56.97-98.2 0-149.3-30.27-194.5-56.97-40.6-24.05-72.6-43.03-143.4-43.03s-102.9 18.98-143.5 43.03c-45.1 26.7-96.2 56.97-194.4 56.97s-149.3-30.27-194.4-56.97c-40.6-24.05-72.7-43.03-143.5-43.03-70.7 0-102.8 18.98-143.4 43.03-45.1 26.7-96.2 56.97-194.4 56.97s-149.3-30.27-194.4-56.97c-27.9-16.53-51.8-30.67-87-37.89-12.4-34.44-23.9-69.31-34.5-104.55 84 4.14 130.8 31.76 172.5 56.38 40.6 24.04 72.6 43.03 143.4 43.03s102.8-18.99 143.5-43.03c45.1-26.7 96.2-56.97 194.3-56.97 98.2 0 149.3 30.27 194.4 56.97 40.6 24.04 72.7 43.03 143.5 43.03s102.9-18.99 143.5-43.03c45.1-26.71 96.2-56.97 194.4-56.97 98.1 0 149.3 30.26 194.4 56.97 40.6 24.04 72.7 43.03 143.5 43.03 70.7 0 102.8-18.99 143.4-43.03 45.1-26.7 96.2-56.97 194.4-56.97 98.1 0 149.3 30.27 194.4 56.97 40.6 24.04 72.6 43.03 143.4 43.03s102.9-18.99 143.5-43.03c45.1-26.71 96.2-56.97 194.4-56.97 98.1 0 149.3 30.26 194.4 56.97 40.6 24.04 72.7 43.03 143.5 43.03s102.8-18.99 143.4-43.03c45.2-26.71 96.3-56.97 194.5-56.97 98.1 0 149.3 30.26 194.4 56.97 40.6 24.04 72.7 43.03 143.4 43.03 70.8 0 102.9-18.99 143.5-43.03 41.7-24.64 88.5-52.26 172.6-56.39-10.6 35.25-22.1 70.11-34.5 104.53-35.3 7.22-59.2 21.37-87.1 37.92"/><path d="m16086 3762.2c-70.8 0-102.9 19-143.5 43-45.1 26.8-96.3 57-194.5 57-98.1 0-149.3-30.2-194.4-57-40.6-24-72.7-43-143.4-43-70.8 0-102.9 19-143.5 43-45.1 26.8-96.3 57-194.4 57-98.2 0-149.3-30.3-194.4-57-40.7-24-72.7-43-143.5-43s-102.9 19-143.5 43c-45.1 26.7-96.2 57-194.4 57-98.1 0-149.3-30.3-194.4-57-40.6-24-72.7-43-143.4-43-70.8 0-102.9 19-143.5 43-45.1 26.7-96.2 57-194.3 57-98.2 0-149.3-30.3-194.5-57-40.6-24-72.6-43-143.4-43s-102.9 19-143.5 43c-45.1 26.8-96.2 57-194.4 57s-149.3-30.3-194.4-57c-40.6-24-72.7-43-143.5-43-70.7 0-102.8 19-143.4 43-45.1 26.7-96.2 57-194.4 57s-149.3-30.3-194.4-57c-40.6-24-72.7-43-143.4-43-27.3 0-48.7 2.8-67.2 7.7v-102.2c19.8-3.4 41.9-5.5 67.2-5.5 98.1 0 149.2 30.3 194.4 57 40.6 24 72.6 43 143.4 43s102.8-19 143.5-43c45.1-26.7 96.2-57 194.3-57 98.2 0 149.3 30.3 194.4 57 40.6 24 72.7 43 143.5 43s102.9-19 143.5-43c45.1-26.7 96.2-57 194.4-57 98.1 0 149.3 30.3 194.4 57 40.6 24 72.7 43 143.5 43 70.7 0 102.8-19 143.4-43 45.1-26.7 96.2-57 194.4-57 98.1 0 149.3 30.3 194.4 57 40.6 24 72.6 43 143.4 43s102.9-19 143.5-43c45.1-26.7 96.2-57 194.4-57 98.1 0 149.3 30.3 194.4 57 40.6 24 72.7 43 143.5 43s102.8-19 143.4-43c45.2-26.7 96.3-57 194.5-57 98.1 0 149.3 30.3 194.4 57 40.6 24 72.7 43 143.4 43 70.8 0 102.9-19 143.5-43 45.2-26.7 96.3-57 194.5-57 25.3 0 47.4 2.1 67.2 5.5v102.2c-18.5-4.9-40-7.7-67.2-7.7"/><path d="m16086 4716.4c-70.8 0-102.9 18.9-143.5 43-45.1 26.7-96.3 57-194.5 57-98.1 0-149.3-30.3-194.4-57-40.6-24.1-72.7-43-143.4-43-70.8 0-102.9 18.9-143.5 43-45.1 26.7-96.3 57-194.4 57-98.2 0-149.3-30.3-194.4-57-40.7-24.1-72.7-43-143.5-43s-102.9 18.9-143.5 43c-45.1 26.7-96.2 57-194.4 57-98.1 0-149.3-30.3-194.4-57-40.6-24.1-72.7-43-143.4-43-70.8 0-102.9 18.9-143.5 43-45.1 26.7-96.2 57-194.3 57-98.2 0-149.3-30.3-194.5-57-40.6-24.1-72.6-43-143.4-43s-102.9 18.9-143.5 43c-45.1 26.7-96.2 57-194.4 57s-149.3-30.3-194.4-57c-40.6-24.1-72.7-43-143.5-43-70.7 0-102.8 18.9-143.4 43-45.1 26.7-96.2 57-194.4 57s-149.3-30.3-194.4-57c-40.6-24.1-72.7-43-143.4-43-27.3 0-48.7 2.8-67.2 7.6v-102.1c19.8-3.5 41.9-5.5 67.2-5.5 98.1 0 149.2 30.2 194.4 56.9 40.6 24.1 72.6 43.1 143.4 43.1s102.8-19 143.5-43.1c45.1-26.7 96.2-56.9 194.3-56.9 98.2 0 149.3 30.2 194.4 56.9 40.6 24.1 72.7 43.1 143.5 43.1s102.9-19 143.5-43.1c45.1-26.7 96.2-56.9 194.4-56.9 98.1 0 149.3 30.2 194.4 56.9 40.6 24.1 72.7 43.1 143.5 43.1 70.7 0 102.8-19 143.4-43.1 45.1-26.7 96.2-56.9 194.4-56.9 98.1 0 149.3 30.2 194.4 56.9 40.6 24.1 72.6 43.1 143.4 43.1s102.9-19 143.5-43.1c45.1-26.7 96.2-56.9 194.4-56.9 98.1 0 149.3 30.2 194.4 56.9 40.6 24.1 72.7 43.1 143.5 43.1s102.8-19 143.4-43.1c45.2-26.7 96.3-56.9 194.5-56.9 98.1 0 149.3 30.2 194.4 56.9 40.6 24.1 72.7 43.1 143.4 43.1 70.8 0 102.9-19 143.5-43.1 45.2-26.7 96.3-56.9 194.5-56.9 25.3 0 47.4 2 67.2 5.4v102.2c-18.5-4.8-40-7.6-67.2-7.6"/><path d="m16086 2808.1c-70.8 0-102.9 19-143.5 43-45.1 26.7-96.3 57-194.5 57-98.1 0-149.3-30.3-194.4-57-40.6-24-72.7-43-143.4-43-70.8 0-102.9 19-143.5 43-45.1 26.7-96.3 57-194.4 57-98.2 0-149.3-30.3-194.4-57-40.7-24-72.7-43-143.5-43s-102.9 19-143.5 43c-45.1 26.7-96.2 57-194.4 57-98.1 0-149.3-30.3-194.4-57-40.6-24-72.7-43-143.4-43-70.8 0-102.9 19-143.5 43-45.1 26.7-96.2 57-194.3 57-98.2 0-149.3-30.3-194.5-57-40.6-24-72.6-43-143.4-43s-102.9 19-143.5 43c-45.1 26.7-96.2 57-194.4 57s-149.3-30.3-194.4-57c-40.6-24-72.7-43-143.5-43-70.7 0-102.8 19-143.4 43-45.1 26.7-96.2 57-194.4 57s-149.3-30.3-194.4-57c-40.6-24-72.7-43-143.4-43-27.3 0-48.7 2.8-67.2 7.6v-102.1c19.8-3.5 41.9-5.5 67.2-5.5 98.1 0 149.2 30.3 194.4 56.9 40.6 24.1 72.6 43.1 143.4 43.1s102.8-19 143.5-43.1c45.1-26.6 96.2-56.9 194.3-56.9 98.2 0 149.3 30.3 194.4 56.9 40.6 24.1 72.7 43.1 143.5 43.1s102.9-19 143.5-43.1c45.1-26.7 96.2-56.9 194.4-56.9 98.1 0 149.3 30.2 194.4 56.9 40.6 24.1 72.7 43.1 143.5 43.1 70.7 0 102.8-19 143.4-43.1 45.1-26.6 96.2-56.9 194.4-56.9 98.1 0 149.3 30.3 194.4 56.9 40.6 24.1 72.6 43.1 143.4 43.1s102.9-19 143.5-43.1c45.1-26.7 96.2-56.9 194.4-56.9 98.1 0 149.3 30.2 194.4 56.9 40.6 24.1 72.7 43.1 143.5 43.1s102.8-19 143.4-43.1c45.2-26.7 96.3-56.9 194.5-56.9 98.1 0 149.3 30.2 194.4 56.9 40.6 24.1 72.7 43.1 143.4 43.1 70.8 0 102.9-19 143.5-43.1 45.2-26.7 96.3-56.9 194.5-56.9 25.3 0 47.4 2 67.2 5.5v102.1c-18.5-4.8-40-7.6-67.2-7.6"/><path d="m16086 4239.3c-70.8 0-102.9 19-143.5 43-45.1 26.7-96.3 57-194.5 57-98.1 0-149.3-30.3-194.4-57-40.6-24-72.7-43-143.4-43-70.8 0-102.9 19-143.5 43-45.1 26.7-96.3 57-194.4 57-98.2 0-149.3-30.3-194.4-57-40.7-24-72.7-43-143.5-43s-102.9 19-143.5 43c-45.1 26.7-96.2 57-194.4 57-98.1 0-149.3-30.3-194.4-57-40.6-24-72.7-43-143.4-43-70.8 0-102.9 19-143.5 43-45.1 26.7-96.2 57-194.3 57-98.2 0-149.3-30.3-194.5-57-40.6-24-72.6-43-143.4-43s-102.9 19-143.5 43c-45.1 26.7-96.2 57-194.4 57s-149.3-30.3-194.4-57c-40.6-24-72.7-43-143.5-43-70.7 0-102.8 19-143.4 43-45.1 26.7-96.2 57-194.4 57s-149.3-30.3-194.4-57c-40.6-24-72.7-43-143.4-43-27.3 0-48.7 2.8-67.2 7.6v-102.1c19.8-3.4 41.9-5.5 67.2-5.5 98.1 0 149.2 30.3 194.4 57 40.6 24 72.6 43 143.4 43s102.8-19 143.5-43c45.1-26.7 96.2-57 194.3-57 98.2 0 149.3 30.3 194.4 57 40.6 24 72.7 43 143.5 43s102.9-19 143.5-43c45.1-26.7 96.2-57 194.4-57 98.1 0 149.3 30.3 194.4 57 40.6 24 72.7 43 143.5 43 70.7 0 102.8-19 143.4-43 45.1-26.7 96.2-57 194.4-57 98.1 0 149.3 30.3 194.4 57 40.6 24 72.6 43 143.4 43s102.9-19 143.5-43c45.1-26.7 96.2-57 194.4-57 98.1 0 149.3 30.3 194.4 57 40.6 24 72.7 43 143.5 43s102.8-19 143.4-43c45.2-26.7 96.3-57 194.5-57 98.1 0 149.3 30.3 194.4 57 40.6 24 72.7 43 143.4 43 70.8 0 102.9-19 143.5-43 45.2-26.7 96.3-57 194.5-57 25.3 0 47.4 2 67.2 5.5v102.2c-18.5-4.9-40-7.7-67.2-7.7"/></g><path d="m16153 3587.8v375.4-375.4" fill="#fff7f8"/><path d="m13513 0h-1548.6v328.2c19.8-3.398 41.9-5.5 67.2-5.5 98.1 0 149.2 30.301 194.4 57 40.6 24 72.6 43 143.4 43s102.8-19 143.5-43c45.1-26.699 96.2-57 194.3-57 98.2 0 149.3 30.301 194.4 57 40.6 24 72.7 43 143.5 43s102.9-19 143.5-43c45.1-26.699 96.2-57 194.4-57 56.2 0 96.9 9.903 130 23.403v-346.1m-130 422.7c-70.8 0-102.9 19-143.5 43-45.1 26.801-96.2 57-194.4 57s-149.3-30.297-194.4-57c-40.6-24-72.7-43-143.5-43-70.7 0-102.8 19-143.4 43-45.1 26.703-96.2 57-194.4 57s-149.3-30.297-194.4-57c-40.6-24-72.7-43-143.4-43-27.3 0-48.7 2.801-67.2 7.703v374.9c19.8-3.403 41.9-5.5 67.2-5.5 98.1 0 149.2 30.301 194.4 57 40.6 24 72.6 43 143.4 43s102.8-19 143.5-43c45.1-26.699 96.2-57 194.3-57 98.2 0 149.3 30.301 194.4 57 40.6 24 72.7 43 143.5 43s102.9-19 143.5-43c45.1-26.699 96.2-57 194.4-57 56.2 0 96.9 9.898 130 23.398v-365.4c-34.9-20.102-67.2-35.102-130-35.102m0 477.1c-70.8 0-102.9 19-143.5 43-45.1 26.699-96.2 57-194.4 57s-149.3-30.301-194.4-57c-40.6-24-72.7-43-143.5-43-70.7 0-102.8 19-143.4 43-45.1 26.699-96.2 57-194.4 57s-149.3-30.301-194.4-57c-40.6-24-72.7-43-143.4-43-27.3 0-48.7 2.801-67.2 7.601v375c19.8-3.5 41.9-5.5 67.2-5.5 98.1 0 149.2 30.2 194.4 56.9 40.6 24.1 72.6 43.1 143.4 43.1s102.8-19 143.5-43.1c45.1-26.7 96.2-56.9 194.3-56.9 98.2 0 149.3 30.2 194.4 56.9 40.6 24.1 72.7 43.1 143.5 43.1s102.9-19 143.5-43.1c45.1-26.7 96.2-56.9 194.4-56.9 56.2 0 96.9 9.9 130 23.4v-365.4c-34.9-20.101-67.2-35.101-130-35.101m0 477.1c-70.8 0-102.9 18.9-143.5 43-45.1 26.7-96.2 57-194.4 57s-149.3-30.3-194.4-57c-40.6-24.1-72.7-43-143.5-43-70.7 0-102.8 18.9-143.4 43-45.1 26.7-96.2 57-194.4 57s-149.3-30.3-194.4-57c-40.6-24.1-72.7-43-143.4-43-27.3 0-48.7 2.8-67.2 7.6v374.9c19.8-3.4 41.9-5.5 67.2-5.5 98.1 0 149.2 30.3 194.4 57 40.6 24 72.6 43 143.4 43s102.8-19 143.5-43c45.1-26.7 96.2-57 194.3-57 98.2 0 149.3 30.3 194.4 57 40.6 24 72.7 43 143.5 43s102.9-19 143.5-43c45.1-26.7 96.2-57 194.4-57 56.2 0 96.9 10 130 23.4v-365.3c-34.9-20.2-67.2-35.1-130-35.1m0 477c-70.8 0-102.9 19-143.5 43.1-45.1 26.7-96.2 56.9-194.4 56.9s-149.3-30.2-194.4-56.9c-40.6-24.1-72.7-43.1-143.5-43.1-70.7 0-102.8 19-143.4 43.1-45.1 26.7-96.2 56.9-194.4 56.9s-149.3-30.2-194.4-56.9c-40.6-24.1-72.7-43.1-143.4-43.1-27.3 0-48.7 2.9-67.2 7.7v374.9c19.8-3.4 41.9-5.5 67.2-5.5 98.1 0 149.2 30.3 194.4 57 40.6 24 72.6 43 143.4 43s102.8-19 143.5-43c45.1-26.7 96.2-57 194.3-57 98.2 0 149.3 30.3 194.4 57 40.6 24 72.7 43 143.5 43s102.9-19 143.5-43c45.1-26.7 96.2-57 194.4-57 56.2 0 96.9 9.9 130 23.4v-365.3c-34.9-20.2-67.2-35.2-130-35.2m0 477.1c-70.8 0-102.9 19-143.5 43-45.1 26.7-96.2 57-194.4 57s-149.3-30.3-194.4-57c-40.6-24-72.7-43-143.5-43-70.7 0-102.8 19-143.4 43-45.1 26.7-96.2 57-194.4 57s-149.3-30.3-194.4-57c-40.6-24-72.7-43-143.4-43-27.3 0-48.7 2.8-67.2 7.7v374.9c19.8-3.5 41.9-5.5 67.2-5.5 98.1 0 149.2 30.3 194.4 56.9 40.6 24.1 72.6 43.1 143.4 43.1s102.8-19 143.5-43.1c45.1-26.6 96.2-56.9 194.3-56.9 98.2 0 149.3 30.3 194.4 56.9 40.6 24.1 72.7 43.1 143.5 43.1s102.9-19 143.5-43.1c45.1-26.7 96.2-56.9 194.4-56.9 56.2 0 96.9 9.9 130 23.4v-365.4c-34.9-20.1-67.2-35.1-130-35.1m0 477.1c-70.8 0-102.9 19-143.5 43-45.1 26.7-96.2 57-194.4 57s-149.3-30.3-194.4-57c-40.6-24-72.7-43-143.5-43-70.7 0-102.8 19-143.4 43-45.1 26.7-96.2 57-194.4 57s-149.3-30.3-194.4-57c-40.6-24-72.7-43-143.4-43-27.3 0-48.7 2.8-67.2 7.6v375c19.8-3.5 41.9-5.6 67.2-5.6 98.1 0 149.2 30.3 194.4 57 40.6 24.1 72.6 43 143.4 43s102.8-18.9 143.5-43c45.1-26.7 96.2-57 194.3-57 98.2 0 149.3 30.3 194.4 57 40.6 24.1 72.7 43 143.5 43s102.9-18.9 143.5-43c44.5-26.3 94.8-56.1 190.3-56.9v-150.9c0-81.4 36-155.5 94.7-210.9-23.6-9.4-51.1-15.3-90.6-15.3m-675.8 477c-70.7 0-102.8 19-143.4 43.1-45.1 26.7-96.2 56.9-194.4 56.9s-149.3-30.2-194.4-56.9c-40.6-24.1-72.7-43.1-143.4-43.1-27.3 0-48.7 2.9-67.2 7.7v374.9c19.8-3.4 41.9-5.5 67.2-5.5 98.1 0 149.2 30.3 194.4 57 40.6 24 72.6 43 143.4 43s102.8-19 143.5-43c45.1-26.7 96.2-57 194.3-57 98.2 0 149.3 30.3 194.4 57 40.6 24 72.7 43 143.5 43s102.9-19 143.5-43c45.1-26.7 96.2-57 194.4-57 98.1 0 149.3 30.3 194.4 57 40.6 24 72.7 43 143.5 43 70.7 0 102.8-19 143.4-43 45.1-26.7 96.2-57 194.4-57 98.1 0 149.3 30.3 194.4 57 40.6 24 72.6 43 143.4 43s102.9-19 143.5-43c45.1-26.7 96.2-57 194.4-57 98.1 0 149.3 30.3 194.4 57 40.6 24 72.7 43 143.5 43s102.8-19 143.4-43c45.2-26.7 96.3-57 194.5-57 98.1 0 149.3 30.3 194.4 57 40.6 24 72.7 43 143.4 43 70.8 0 102.9-19 143.5-43 45.2-26.7 96.3-57 194.5-57 25.3 0 47.4 2.1 67.2 5.5v-79.9h-2644.3c-71.6 0-130-58.3-130-130v-172.6c-68 0.7-99.6 19.4-139.4 43-45.1 26.7-96.2 56.9-194.4 56.9s-149.3-30.2-194.4-56.9c-40.6-24.1-72.7-43.1-143.5-43.1m3378.8 477.1c-70.8 0-102.9 19-143.5 43-45.1 26.8-96.3 57-194.5 57-98.1 0-149.3-30.2-194.4-57-40.6-24-72.7-43-143.4-43-70.8 0-102.9 19-143.5 43-45.1 26.8-96.3 57-194.4 57-98.2 0-149.3-30.3-194.4-57-40.7-24-72.7-43-143.5-43s-102.9 19-143.5 43c-45.1 26.7-96.2 57-194.4 57-98.1 0-149.3-30.3-194.4-57-40.6-24-72.7-43-143.4-43-70.8 0-102.9 19-143.5 43-45.1 26.7-96.2 57-194.3 57-98.2 0-149.3-30.3-194.5-57-40.6-24-72.6-43-143.4-43s-102.9 19-143.5 43c-45.1 26.8-96.2 57-194.4 57s-149.3-30.3-194.4-57c-40.6-24-72.7-43-143.5-43-70.7 0-102.8 19-143.4 43-45.1 26.7-96.2 57-194.4 57s-149.3-30.3-194.4-57c-40.6-24-72.7-43-143.4-43-27.3 0-48.7 2.8-67.2 7.7v374.9c19.8-3.4 41.9-5.5 67.2-5.5 98.1 0 149.2 30.3 194.4 57 40.6 24 72.6 43 143.4 43s102.8-19 143.5-43c45.1-26.7 96.2-57 194.3-57 98.2 0 149.3 30.3 194.4 57 40.6 24 72.7 43 143.5 43s102.9-19 143.5-43c45.1-26.7 96.2-57 194.4-57 98.1 0 149.3 30.3 194.4 57 1.5 0.8 2.9 1.7 4.4 2.6 490.9-201.1 1040.4-318.2 1654.2-318.2 291 0 596.6 26.4 917.2 82.5v-193.3c-18.5-4.9-40-7.7-67.2-7.7" fill="#ff9200"/><g fill="#ffcf5e"><path d="m13383 1276.9c-98.2 0-149.3 30.2-194.4 56.9-40.6 24.1-72.7 43.1-143.5 43.1s-102.9-19-143.5-43.1c-45.1-26.7-96.2-56.9-194.4-56.9-98.1 0-149.2 30.2-194.3 56.9-40.7 24.1-72.7 43.1-143.5 43.1s-102.8-19-143.4-43.1c-45.2-26.7-96.3-56.9-194.4-56.9-25.3 0-47.4 2-67.2 5.5v102.1c18.5-4.8 39.9-7.6 67.2-7.6 70.7 0 102.8 18.9 143.4 43 45.1 26.7 96.2 57 194.4 57s149.3-30.3 194.4-57c40.6-24.1 72.7-43 143.4-43 70.8 0 102.9 18.9 143.5 43 45.1 26.7 96.2 57 194.4 57s149.3-30.3 194.4-57c40.6-24.1 72.7-43 143.5-43 62.8 0 95.1 14.9 130 35.1v-111.7c-33.1-13.5-73.8-23.4-130-23.4"/><path d="m13383 1753.9c-98.2 0-149.3 30.3-194.4 57-40.6 24-72.7 43-143.5 43s-102.9-19-143.5-43c-45.1-26.7-96.2-57-194.4-57-98.1 0-149.2 30.3-194.3 57-40.7 24-72.7 43-143.5 43s-102.8-19-143.4-43c-45.2-26.7-96.3-57-194.4-57-25.3 0-47.4 2.1-67.2 5.5v102.2c18.5-4.8 39.9-7.7 67.2-7.7 70.7 0 102.8 19 143.4 43.1 45.1 26.7 96.2 56.9 194.4 56.9s149.3-30.2 194.4-56.9c40.6-24.1 72.7-43.1 143.4-43.1 70.8 0 102.9 19 143.5 43.1 45.1 26.7 96.2 56.9 194.4 56.9s149.3-30.2 194.4-56.9c40.6-24.1 72.7-43.1 143.5-43.1 62.8 0 95.1 15 130 35.2v-111.8c-33.1-13.4-73.8-23.4-130-23.4"/><path d="m13383 799.8c-98.2 0-149.3 30.301-194.4 57-40.6 24-72.7 43-143.5 43s-102.9-19-143.5-43c-45.1-26.699-96.2-57-194.4-57-98.1 0-149.2 30.301-194.3 57-40.7 24-72.7 43-143.5 43s-102.8-19-143.4-43c-45.2-26.699-96.3-57-194.4-57-25.3 0-47.4 2.097-67.2 5.5v102.1c18.5-4.8 39.9-7.601 67.2-7.601 70.7 0 102.8 19 143.4 43 45.1 26.699 96.2 57 194.4 57s149.3-30.301 194.4-57c40.6-24 72.7-43 143.4-43 70.8 0 102.9 19 143.5 43 45.1 26.699 96.2 57 194.4 57s149.3-30.301 194.4-57c40.6-24 72.7-43 143.5-43 62.8 0 95.1 15 130 35.101v-111.7c-33.1-13.5-73.8-23.398-130-23.398"/><path d="m13383 2231c-98.2 0-149.3 30.3-194.4 57-40.6 24-72.7 43-143.5 43s-102.9-19-143.5-43c-45.1-26.7-96.2-57-194.4-57-98.1 0-149.2 30.3-194.3 57-40.7 24-72.7 43-143.5 43s-102.8-19-143.4-43c-45.2-26.7-96.3-57-194.4-57-25.3 0-47.4 2.1-67.2 5.5v102.2c18.5-4.9 39.9-7.7 67.2-7.7 70.7 0 102.8 19 143.4 43 45.1 26.7 96.2 57 194.4 57s149.3-30.3 194.4-57c40.6-24 72.7-43 143.4-43 70.8 0 102.9 19 143.5 43 45.1 26.7 96.2 57 194.4 57s149.3-30.3 194.4-57c40.6-24 72.7-43 143.5-43 62.8 0 95.1 15 130 35.1v-111.7c-33.1-13.5-73.8-23.4-130-23.4"/><path d="m13383 322.7c-98.2 0-149.3 30.301-194.4 57-40.6 24-72.7 43-143.5 43s-102.9-19-143.5-43c-45.1-26.699-96.2-57-194.4-57-98.1 0-149.2 30.301-194.3 57-40.7 24-72.7 43-143.5 43s-102.8-19-143.4-43c-45.2-26.699-96.3-57-194.4-57-25.3 0-47.4 2.102-67.2 5.5v102.2c18.5-4.902 39.9-7.703 67.2-7.703 70.7 0 102.8 19 143.4 43 45.1 26.703 96.2 57 194.4 57s149.3-30.297 194.4-57c40.6-24 72.7-43 143.4-43 70.8 0 102.9 19 143.5 43 45.1 26.703 96.2 57 194.4 57s149.3-30.199 194.4-57c40.6-24 72.7-43 143.5-43 62.8 0 95.1 15 130 35.102v-111.7c-33.1-13.5-73.8-23.403-130-23.403"/><path d="m12707 3185.1c-98.1 0-149.2 30.3-194.3 57-40.7 24.1-72.7 43-143.5 43s-102.8-18.9-143.4-43c-45.2-26.7-96.3-57-194.4-57-25.3 0-47.4 2.1-67.2 5.6v102.1c18.5-4.8 39.9-7.7 67.2-7.7 70.7 0 102.8 19 143.4 43.1 45.1 26.7 96.2 56.9 194.4 56.9s149.3-30.2 194.4-56.9c40.6-24.1 72.7-43.1 143.4-43.1 70.8 0 102.9 19 143.5 43.1 45.1 26.7 96.2 56.9 194.4 56.9s149.3-30.2 194.4-56.9c39.8-23.6 71.4-42.3 139.4-43v-100c-95.5 0.8-145.8 30.6-190.3 56.9-40.6 24.1-72.7 43-143.5 43s-102.9-18.9-143.5-43c-45.1-26.7-96.2-57-194.4-57"/><path d="m16086 3662.2c-98.2 0-149.3 30.3-194.5 57-40.6 24-72.7 43-143.5 43-70.7 0-102.8-19-143.4-43-45.1-26.7-96.3-57-194.4-57-98.2 0-149.3 30.3-194.5 57-40.6 24-72.6 43-143.4 43s-102.9-19-143.5-43c-45.1-26.7-96.3-57-194.4-57-98.2 0-149.3 30.3-194.4 57-40.6 24-72.7 43-143.5 43s-102.8-19-143.4-43c-45.1-26.7-96.3-57-194.4-57-98.2 0-149.3 30.3-194.4 57-40.6 24-72.7 43-143.4 43-70.8 0-102.9-19-143.5-43-45.1-26.7-96.3-57-194.4-57-98.2 0-149.3 30.3-194.4 57-40.6 24-72.7 43-143.5 43s-102.9-19-143.5-43c-45.1-26.7-96.2-57-194.4-57-98.1 0-149.2 30.3-194.3 57-40.7 24-72.7 43-143.5 43s-102.8-19-143.4-43c-45.2-26.7-96.3-57-194.4-57-25.3 0-47.4 2.1-67.2 5.5v102.2c18.5-4.9 39.9-7.7 67.2-7.7 70.7 0 102.8 19 143.4 43 45.1 26.7 96.2 57 194.4 57s149.3-30.3 194.4-57c40.6-24 72.7-43 143.4-43 70.8 0 102.9 19 143.5 43 45.1 26.7 96.2 57 194.4 57s149.3-30.2 194.4-57c40.6-24 72.7-43 143.5-43s102.8 19 143.4 43c45.2 26.7 96.3 57 194.5 57 98.1 0 149.2-30.3 194.3-57 40.6-24 72.7-43 143.5-43 70.7 0 102.8 19 143.4 43 45.1 26.7 96.3 57 194.4 57 98.2 0 149.3-30.3 194.4-57 40.6-24 72.7-43 143.5-43s102.8 19 143.5 43c45.1 26.7 96.2 57 194.4 57 98.1 0 149.3-30.2 194.4-57 40.6-24 72.7-43 143.5-43 70.7 0 102.8 19 143.4 43 45.1 26.8 96.3 57 194.4 57 98.2 0 149.4-30.2 194.5-57 40.6-24 72.7-43 143.5-43 27.2 0 48.7 2.8 67.2 7.7v-102.2c-19.8-3.4-41.9-5.5-67.2-5.5"/><path d="m13383 2708.1c-98.2 0-149.3 30.2-194.4 56.9-40.6 24.1-72.7 43.1-143.5 43.1s-102.9-19-143.5-43.1c-45.1-26.6-96.2-56.9-194.4-56.9-98.1 0-149.2 30.3-194.3 56.9-40.7 24.1-72.7 43.1-143.5 43.1s-102.8-19-143.4-43.1c-45.2-26.6-96.3-56.9-194.4-56.9-25.3 0-47.4 2-67.2 5.5v102.1c18.5-4.8 39.9-7.6 67.2-7.6 70.7 0 102.8 19 143.4 43 45.1 26.7 96.2 57 194.4 57s149.3-30.3 194.4-57c40.6-24 72.7-43 143.4-43 70.8 0 102.9 19 143.5 43 45.1 26.7 96.2 57 194.4 57s149.3-30.3 194.4-57c40.6-24 72.7-43 143.5-43 39.5 0 67 5.9 90.6 15.3 12.2-11.5 25.4-22.1 39.4-31.9v-60c-33.1-13.5-73.8-23.4-130-23.4"/></g><path d="m13383 4239.3c-70.8 0-102.9 19-143.5 43-45.1 26.7-96.2 57-194.4 57s-149.3-30.3-194.4-57c-40.6-24-72.7-43-143.5-43-70.7 0-102.8 19-143.4 43-45.1 26.7-96.2 57-194.4 57s-149.3-30.3-194.4-57c-40.6-24-72.7-43-143.4-43-27.3 0-48.7 2.8-67.2 7.6v375c19.8-3.5 41.9-5.5 67.2-5.5 98.1 0 149.2 30.2 194.4 56.9 40.6 24.1 72.6 43.1 143.4 43.1s102.8-19 143.5-43.1c45.1-26.7 96.2-56.9 194.3-56.9 31.7 0 58.5 3.1 81.8 8.3 210.5-142.1 434.4-268.2 672.6-374.4-21-6.9-45.6-11-78.6-11m-1351.4 477.1c-27.3 0-48.7 2.8-67.2 7.6v374.9c19.8-3.4 41.9-5.5 67.2-5.5 60.8 0 103.5 11.7 138 26.9 151.6-141.7 312-275.5 481.4-398.8-35.3 7.2-59.2 21.3-87.2 37.9-45.1 26.7-96.2 57-194.4 57s-149.3-30.3-194.4-57c-40.6-24.1-72.7-43-143.4-43m0 477c-27.3 0-48.7 2.9-67.2 7.7v121.2c40.4-41.8 81.5-83.2 123.2-123.8-15.9-3.2-34.1-5.1-56-5.1" fill="#ff9200"/><g fill="#ffcf5e"><path d="m12032 5093.4c-25.3 0-47.4 2.1-67.2 5.5v102.2c18.5-4.8 39.9-7.7 67.2-7.7 21.9 0 40.1 1.9 56 5.1 27.1-26.4 54.3-52.4 82-78.2-34.5-15.2-77.2-26.9-138-26.9"/><path d="m12707 4616.4c-98.1 0-149.2 30.2-194.3 56.9-40.7 24.1-72.7 43.1-143.5 43.1s-102.8-19-143.4-43.1c-45.2-26.7-96.3-56.9-194.4-56.9-25.3 0-47.4 2-67.2 5.5v102.1c18.5-4.8 39.9-7.6 67.2-7.6 70.7 0 102.8 18.9 143.4 43 45.1 26.7 96.2 57 194.4 57s149.3-30.3 194.4-57c28-16.6 51.9-30.7 87.2-37.9 45.4-33.1 91.3-65.3 138-96.8-23.3-5.2-50.1-8.3-81.8-8.3"/><path d="m13383 4139.3c-98.2 0-149.3 30.3-194.4 57-40.6 24-72.7 43-143.5 43s-102.9-19-143.5-43c-45.1-26.7-96.2-57-194.4-57-98.1 0-149.2 30.3-194.3 57-40.7 24-72.7 43-143.5 43s-102.8-19-143.4-43c-45.2-26.7-96.3-57-194.4-57-25.3 0-47.4 2.1-67.2 5.5v102.1c18.5-4.8 39.9-7.6 67.2-7.6 70.7 0 102.8 19 143.4 43 45.1 26.7 96.2 57 194.4 57s149.3-30.3 194.4-57c40.6-24 72.7-43 143.4-43 70.8 0 102.9 19 143.5 43 45.1 26.7 96.2 57 194.4 57s149.3-30.3 194.4-57c40.6-24 72.7-43 143.5-43 33 0 57.6 4.1 78.6 11 39.7-17.8 79.6-34.8 120.2-51.4-1.5-0.9-2.9-1.8-4.4-2.6-45.1-26.7-96.3-57-194.4-57"/></g><path d="m14968 5593.1c-31.3 0-63.2 1.4-95.8 4.3 21.1 9.3 39.1 19.9 56.2 30.1 40.6 24 72.7 43 143.5 43 70.5 0 102.6-18.8 143-42.8-74.4-23-157.8-34.6-246.9-34.6m-234 77.4c-70.8 0-102.9 19-143.5 43-45.1 26.7-96.2 57-194.4 57-26.5 0-49.6-2.2-70-6-20.7 10.9-41.3 22.2-61.8 34-141.9 81.9-264.4 179.8-363.2 285.04 37.7-19.41 84.6-35.96 157.2-35.96 98.1 0 149.3 30.27 194.4 56.97 40.6 24.04 72.6 43.03 143.4 43.03s102.9-18.99 143.5-43.03c45.1-26.71 96.2-56.97 194.4-56.97 98.1 0 149.3 30.26 194.4 56.97 40.6 24.04 72.7 43.03 143.5 43.03s102.8-18.99 143.4-43.03c45.2-26.71 96.3-56.97 194.5-56.97 66.3 0 111.1 13.81 147.1 31 2.4-85.48-15.8-166.18-57.1-237.78-38.9-67.2-94.9-120.9-163.8-160.8-26.3 7.8-46.6 19.9-69.7 33.5-45.1 26.7-96.3 57-194.4 57-98.2 0-149.3-30.3-194.4-57-40.7-24-72.7-43-143.5-43m675.8 477.08c-70.8 0-102.9 18.98-143.5 43.03-45.1 26.7-96.3 56.97-194.4 56.97-98.2 0-149.3-30.27-194.4-56.97-40.7-24.05-72.7-43.03-143.5-43.03s-102.9 18.98-143.5 43.03c-45.1 26.7-96.2 56.97-194.4 56.97-98.1 0-149.3-30.27-194.4-56.97-40.6-24.05-72.7-43.03-143.4-43.03-70.8 0-102.9 18.98-143.5 43.03-36.3 21.52-76.6 45.37-142.3 53.81-81.2 121.33-131.1 246.59-143.5 364.53 23.8 9.63 51.4 15.7 91.5 15.7 70.7 0 102.8-18.99 143.4-43.03 45.1-26.7 96.2-56.97 194.4-56.97 98.1 0 149.3 30.27 194.4 56.97 40.6 24.04 72.6 43.03 143.4 43.03s102.9-18.99 143.5-43.03c45.1-26.71 96.2-56.97 194.4-56.97 98.1 0 149.3 30.26 194.4 56.97 40.6 24.04 72.7 43.03 143.5 43.03s102.8-18.99 143.4-43.03c40.9-24.15 86.6-51.22 167.6-56.17 81.9-112.03 137.2-228.5 161-340.36-36.5-21.37-68.9-37.51-134.1-37.51m-675.8 477.07c-70.8 0-102.9 18.98-143.5 43.02-45.1 26.7-96.2 56.98-194.4 56.98-98.1 0-149.3-30.28-194.4-56.98-40.6-24.04-72.7-43.02-143.4-43.02-70.8 0-102.9 18.98-143.5 43.02-45.1 26.7-96.2 56.98-194.3 56.98-36.7 0-66.8-4.22-92.4-10.89 5.9 62.55 24 121.8 55.2 175.82 41.7 72.32 103.3 128.94 179.6 169.68 0.4-0.19 0.7-0.38 1-0.57 45.1-26.7 96.2-56.97 194.4-56.97 98.1 0 149.3 30.27 194.4 56.97 40.6 24.05 72.6 43.03 143.4 43.03s102.9-18.98 143.5-43.03c45.1-26.71 96.2-56.97 194.4-56.97 16.3 0 31.2 0.83 45.1 2.34 46.8-21.45 93.4-45.49 139.6-72.17 129.7-74.91 243.3-163.11 337.3-258.15-42.8 25.02-93.3 50.91-184.1 50.91-98.2 0-149.3-30.28-194.4-56.98-40.7-24.04-72.7-43.02-143.5-43.02m-675.7 477.07c-27.3 0-48.8 2.81-67.2 7.64 60.8 16.52 127.2 25.73 197.3 27.58-34.9-20.22-67.2-35.22-130.1-35.22" fill="#ffd166"/><g fill="#ffecb4"><path d="m14734 6524.6c-98.2 0-149.3 30.26-194.4 56.97-40.6 24.04-72.7 43.03-143.5 43.03s-102.8-18.99-143.4-43.03c-45.1-26.7-96.3-56.97-194.4-56.97-98.2 0-149.3 30.27-194.4 56.97-40.6 24.04-72.7 43.03-143.4 43.03-40.1 0-67.7-6.07-91.5-15.7-3.8 35.71-4.2 70.74-0.9 104.81 25.6 6.67 55.7 10.89 92.4 10.89 98.1 0 149.2-30.28 194.3-56.98 40.6-24.04 72.7-43.02 143.5-43.02 70.7 0 102.8 18.98 143.4 43.02 45.1 26.7 96.3 56.98 194.4 56.98 98.2 0 149.3-30.28 194.4-56.98 40.6-24.04 72.7-43.02 143.5-43.02s102.8 18.98 143.5 43.02c45.1 26.7 96.2 56.98 194.4 56.98 90.8 0 141.3-25.89 184.1-50.91 47.4-47.97 89.9-97.68 126.9-148.29-81 4.95-126.7 32.02-167.6 56.17-40.6 24.04-72.6 43.03-143.4 43.03s-102.9-18.99-143.5-43.03c-45.1-26.71-96.3-56.97-194.4-56.97"/><path d="m14734 7001.7c-98.2 0-149.3 30.26-194.4 56.97-40.6 24.05-72.7 43.03-143.5 43.03s-102.8-18.98-143.4-43.03c-45.1-26.7-96.3-56.97-194.4-56.97-98.2 0-149.3 30.27-194.4 56.97-0.3 0.19-0.6 0.38-1 0.57 39.1 20.87 82.1 37.59 128.2 50.1 18.4-4.83 39.9-7.64 67.2-7.64 62.9 0 95.2 15 130.1 35.22 8.8 0.23 17.7 0.35 26.6 0.35 174 0 370-44.14 564.1-133.23-13.9-1.51-28.8-2.34-45.1-2.34"/><path d="m14872 5597.4c-172.9 15.2-361.8 70.6-546.1 167.1 20.4 3.8 43.5 6 70 6 98.2 0 149.3-30.3 194.4-57 40.6-24 72.7-43 143.5-43s102.8 19 143.5 43c45.1 26.7 96.2 57 194.4 57 98.1 0 149.3-30.3 194.4-57 23.1-13.6 43.4-25.7 69.7-33.5-36.9-21.4-77.4-38.8-121.1-52.3-40.4 24-72.5 42.8-143 42.8-70.8 0-102.9-19-143.5-43-17.1-10.2-35.1-20.8-56.2-30.1"/><path d="m15410 6047.6c-98.2 0-149.3 30.26-194.5 56.97-40.6 24.04-72.6 43.03-143.4 43.03s-102.9-18.99-143.5-43.03c-45.1-26.71-96.3-56.97-194.4-56.97-98.2 0-149.3 30.26-194.4 56.97-40.6 24.04-72.7 43.03-143.5 43.03s-102.8-18.99-143.4-43.03c-45.1-26.7-96.3-56.97-194.4-56.97-72.6 0-119.5 16.55-157.2 35.96-48.9 52.14-91.9 106.12-128.6 160.88 65.7-8.44 106-32.29 142.3-53.81 40.6-24.05 72.7-43.03 143.5-43.03 70.7 0 102.8 18.98 143.4 43.03 45.1 26.7 96.3 56.97 194.4 56.97 98.2 0 149.3-30.27 194.4-56.97 40.6-24.05 72.7-43.03 143.5-43.03s102.8 18.98 143.5 43.03c45.1 26.7 96.2 56.97 194.4 56.97 98.1 0 149.3-30.27 194.4-56.97 40.6-24.05 72.7-43.03 143.5-43.03 65.2 0 97.6 16.14 134.1 37.51 7.6-36.06 12.1-71.7 13-106.51-36-17.19-80.8-31-147.1-31"/></g><g><path d="m14059 7536.9c-490.3 0-941.1-168.51-1298-450.69 319.3 196.95 695.3 310.69 1098 310.69 1156.7 0 2094.4-857.69 2094.4-2014.4v-5382.5h200v5442.5c0 1156.7-937.7 2094.4-2094.4 2094.4" fill="#fff"/><path d="m16193 5442.5v-5442.5h-80v5442.5c0 430.9-133.4 831.3-361 1162-370.7 538.6-991.5 892.4-1693.4 892.4-1132.8 0-2054.4-921.6-2054.4-2054.4v-5442.5h-80v5442.5c0 1176.9 957.5 2134.4 2134.4 2134.4 570.1 0 1106.1-222 1509.2-625.2 95.1-95 180.1-197.5 254.5-306 241.1-351.8 370.7-767.5 370.7-1203.2" fill="#263238"/><path d="m20708 7109.8h2275.6v1461.2h-2275.6z" fill="#7cb342"/><path d="m22199 7109.8h371v1461.2h-371z" fill="#dce775"/><path d="m21828 7128.6h185.5v1461.2h-185.5z" fill="#dce775"/><path d="m21027 7140h-318.5v1431.1h1119.5v-318.5h-801v-1112.6" fill="#447a25"/><path d="m22984 8252.6h-414v318.5h414v-318.5m-785 0h-185.6v318.5h185.6v-318.5" fill="#447a25"/><path d="m22199 8252.6h371v318.5h-371z" fill="#799e42"/><path d="m21828 8252.6h185.5v318.5h-185.5z" fill="#799e42"/><path d="m23066 8571.1h-2440.6c-42.6 0-77.1 34.53-77.1 77.13v699.9c0 42.59 34.5 77.12 77.1 77.12h2440.6c42.6 0 77.1-34.53 77.1-77.12v-699.9c0-42.6-34.5-77.13-77.1-77.13" fill="#7cb342"/></g><g fill="#dce775"><path d="m20549 9348.1v-102.1h2594.8v102.1c0 42.59-34.5 77.12-77.1 77.12h-2440.6c-42.6 0-77.1-34.53-77.1-77.12"/><path d="m22755 8571.1h-371.1v854.15h371.1v-854.15"/><path d="m22199 8571.1h-185.6v854.15h185.6v-854.15"/></g><path d="m23103 8648.2c0-20.48-16.7-37.13-37.1-37.13h-2440.6c-20.5 0-37.1 16.65-37.1 37.13v699.9c0 20.47 16.6 37.12 37.1 37.12h2440.6c20.4 0 37.1-16.65 37.1-37.12zm-37.1 817.02h-2440.6c-64.6 0-117.1-52.54-117.1-117.12v-699.9c0-64.59 52.5-117.13 117.1-117.13h42.5v-1421.2c0-22.09 17.9-40 40-40s40 17.91 40 40v1421.2h2195.6v-1421.2c0-22.09 17.9-40 40-40s40 17.91 40 40v1421.2h42.5c64.5 0 117.1 52.54 117.1 117.13v699.9c0 64.58-52.6 117.12-117.1 117.12" fill="#263238"/><path d="m18561 3550h6439v3550h-6439z" fill="#c17e52"/><g fill="#b26b47"><path d="m21793 5020.8h-523.7v523.7h523.7v-523.7"/><path d="m22317 5020.8h-523.7v523.7h523.7v-523.7"/><path d="m24472 4597.4h-523.7v523.7h523.7v-523.7"/><path d="m24996 4597.4h-523.7v523.7h523.7v-523.7"/><path d="m23892 3550h-523.7v523.7h523.7v-523.7"/><path d="m24416 3550h-523.7v523.7h523.7v-523.7"/><path d="m20746 3973.4h-523.7v523.7h523.7v-523.7"/><path d="m19085 3550h-523.7v523.7h523.7v-523.7"/><path d="m19608 4597.4h-523.7v523.7h523.7v-523.7"/><path d="m20132 5121.1h-523.7v523.7h523.7v-523.7"/><path d="m22841 4497.1h-523.7v523.7h523.7v-523.7"/><path d="m24996 5121.1h-523.7v523.7h523.7v-523.7"/><path d="m22317 3973.4h-523.7v523.7h523.7v-523.7"/></g><g><path d="m18740 6003.1c172.9 0 313 120.8 313 269.81 0-149.01 140.2-269.81 313-269.81 172.9 0 313 120.8 313 269.81 0-149.01 140.2-269.81 313-269.81 172.9 0 313 120.8 313 269.81 0-149.01 140.2-269.81 313-269.81 172.9 0 313.1 120.8 313.1 269.81 0-149.01 140.1-269.81 313-269.81 172.8 0 313 120.8 313 269.81 0-149.01 140.1-269.81 313-269.81 172.8 0 313 120.8 313 269.81 0-149.01 140.1-269.81 313-269.81 172.8 0 313 120.8 313 269.81 0-149.01 140.1-269.81 313-269.81s313 120.8 313 269.81c0-149.01 140.1-269.81 313-269.81s313 120.8 313 269.81c0-149.01 140.1-269.81 313-269.81s313 120.8 313 269.81c0-149.01 140.1-269.8 313-269.81v1096.9h-6439v-1048.4c50.7-30.53 112.4-48.5 178.9-48.5" fill="#ad5c40"/><path d="m25000 7100v-783.3c-172.9 0-313 120.8-313 269.8 0-149-140.1-269.8-313-269.8s-313 120.8-313 269.8c0-149-140.1-269.8-313-269.8s-313 120.8-313 269.8c0-149-140.1-269.8-313-269.8s-313 120.8-313 269.8c0-149-140.2-269.8-313-269.8-172.9 0-313 120.8-313 269.8 0-74.5-35-141.9-91.7-190.8-56.7-48.8-134.9-79-221.3-79-172.9 0-313 120.8-313 269.8 0-149-140.2-269.8-313-269.8-172.9 0-313 120.8-313 269.8 0-149-140.2-269.8-313-269.8-172.9 0-313.1 120.8-313.1 269.8 0-74.5-35-141.9-91.7-190.8-56.6-48.8-134.8-79-221.3-79-172.8 0-313 120.8-313 269.8 0-74.5-35-141.9-91.7-190.8-56.6-48.8-134.8-79-221.3-79-172.8 0-313 120.8-313 269.8 0-149-140.1-269.8-313-269.8-172.8 0-313 120.8-313 269.8v423.5c0 49.71 40.3 90 90 90h6483.1" fill="#7cb342"/><path d="m25000 7100v-197.8h-6573.1v107.8c0 49.71 40.3 90 90 90h6483.1" fill="#dce775"/><path d="m18467 7010v-423.5c0-126.7 122.5-229.8 273-229.8s273 103.1 273 229.8c0 22.1 17.9 40 40 40s40-17.9 40-40c0-126.7 122.5-229.8 273-229.8 74 0 143.3 24.6 195.2 69.3 50.2 43.3 77.8 100.3 77.8 160.5 0 22.1 17.9 40 40 40s40-17.9 40-40c0-126.7 122.5-229.8 273-229.8 74 0 143.4 24.6 195.2 69.3 50.2 43.3 77.8 100.3 77.8 160.5 0 22.1 17.9 40 40 40s40-17.9 40-40c0-126.7 122.5-229.8 273.1-229.8 150.5 0 273 103.1 273 229.8 0 22.1 17.9 40 40 40s40-17.9 40-40c0-126.7 122.5-229.8 273-229.8s273 103.1 273 229.8c0 22.1 17.9 40 40 40s40-17.9 40-40c0-126.7 122.5-229.8 273-229.8 73.9 0 143.3 24.6 195.2 69.3 50.2 43.3 77.8 100.3 77.8 160.5 0 22.1 17.9 40 40 40s40-17.9 40-40c0-126.7 122.5-229.8 273-229.8s273 103.1 273 229.8c0 22.1 17.9 40 40 40s40-17.9 40-40c0-126.7 122.5-229.8 273-229.8s273 103.1 273 229.8c0 22.1 17.9 40 40 40s40-17.9 40-40c0-126.7 122.5-229.8 273-229.8s273 103.1 273 229.8c0 22.1 17.9 40 40 40s40-17.9 40-40c0-126.7 122.5-229.8 273-229.8s273 103.1 273 229.8c0 22.1 17.9 40 40 40s40-17.9 40-40c0-126.7 122.5-229.8 273-229.8v-80c-135.8 0-254 67.7-313 166.6-59-98.9-177.2-166.6-313-166.6s-254 67.7-313 166.6c-59-98.9-177.2-166.6-313-166.6s-254 67.7-313 166.6c-59-98.9-177.2-166.6-313-166.6s-254 67.7-313 166.6c-59-98.9-177.2-166.6-313-166.6-135.7 0-253.8 67.5-312.8 166.4-16.9-28.4-39-54.6-65.8-77.7-66.5-57.2-154.3-88.7-247.4-88.7-135.8 0-254 67.7-313 166.6-59-98.9-177.2-166.6-313-166.6s-254 67.7-313 166.6c-59-98.9-177.2-166.6-313-166.6-135.7 0-253.8 67.6-312.9 166.4-16.9-28.4-39-54.6-65.8-77.7-66.3-57.2-154.2-88.7-247.4-88.7-135.7 0-253.8 67.5-312.8 166.4-16.9-28.4-39-54.6-65.8-77.7-66.3-57.2-154.2-88.7-247.4-88.7-135.8 0-254 67.7-313 166.6-59-98.9-177.2-166.6-313-166.6-49.3 0-96.3 8.9-138.9 25v-2751.7c0-22.1-17.9-40-40-40s-40 17.9-40 40v2793.7c-81.6 56.8-134.1 144.5-134.1 242.8v423.5c0 71.7 58.3 130 130 130h6483.1v-80h-6483.1c-27.6 0-50-22.4-50-50" fill="#263238"/><path d="m19712 4339.3s448.9 34.9 510.3-365.9c147.2 111.6 418.9 86.2 469.6-220.7 0 0 284.4 126.7 335.1-204.9l-1315 2.2v789.3" fill="#7cb342"/><path d="m20223 3884.6c141.4 72.5 339.7 46.8 399.5-188.4 5.6-22.2 27.9-35.6 50-29.9 68 17.5 203 30 266.8-118.3l87.3-0.2c-50.7 331.6-335.1 204.9-335.1 204.9-50.7 306.9-322.4 332.3-469.6 220.7-61.4 400.8-510.3 365.9-510.3 365.9v-101.7c126.9-2.4 391.8-42.2 453.4-325 5.7-26 34.4-40.1 58-28" fill="#dce775"/><path d="m21066 3553.9c-17.6 115-63.8 193.7-137.3 233.9-74.4 40.6-157.1 30-207.3 16.9-30.9 120.9-100.5 207.8-199.1 247.1-86.4 34.4-188.2 28.1-273-14.4-98.5 371.5-536.3 342.1-540.9 341.8-22.1-1.8-38.5-21-36.8-43s20.8-38.4 42.9-36.8c1.1 0.1 105.3 7.7 216-30.6 144-49.7 228.7-151.1 251.7-301.5 2.2-13.9 11.5-25.7 24.6-31 13-5.3 27.9-3.3 39.1 5.2 70.6 53.5 167.4 67.6 246.8 36 59.1-23.6 134.7-82.8 159.2-231.3 2.1-12.2 9.6-22.8 20.6-28.7 10.9-5.9 23.9-6.3 35.2-1.3 1 0.5 104.2 44.2 182.6 1.4 50.5-27.6 83-86.7 96.6-175.8 3.1-19.8 20.1-34 39.5-34 2 0 4.1 0.2 6.1 0.5 21.9 3.3 36.9 23.7 33.5 45.6" fill="#263238"/><path d="m13553 0h11447v3550h-11447z" fill="#c17e52"/></g><g fill="#b26b47"><path d="m16253 1470.7h-523.7v523.7h523.7v-523.7"/><path d="m16777 1470.7h-523.7v523.7h523.7v-523.7"/><path d="m18628 1047.4h-523.7v523.7h523.7v-523.7"/><path d="m19152 1047.4h-523.7v523.7h523.7v-523.7"/><path d="m17524 0h523.7v523.7h-523.7z"/><path d="m18572 0h-523.7v523.7h523.7v-523.7"/><path d="m19675 523.7h-523.7v523.7h523.7v-523.7"/><path d="m22494 0h-523.7v523.7h523.7v-523.7"/><path d="m21971 523.7h-523.7v523.7h523.7v-523.7"/><path d="m21447 1571.1h-523.7v523.7h523.7v-523.7"/><path d="m21971 1571.1h-523.7v523.7h523.7v-523.7"/><path d="m20199 523.7h-523.7v523.7h523.7v-523.7"/><path d="m20199 1571.1h-523.7v523.7h523.7v-523.7"/><path d="m23018 523.7h-523.7v523.7h523.7v-523.7"/><path d="m23018 1047.4h-523.7v523.7h523.7v-523.7"/><path d="m15206 423.3h-523.7v523.7h523.7v-523.7"/><path d="m14068 1047.4h-523.7v523.7h523.7v-523.7"/><path d="m14592 1571.1h-523.7v523.7h523.7v-523.7"/><path d="m14068 0h-523.7v523.7h523.7v-523.7"/><path d="m23542 523.7h-523.7v523.7h523.7v-523.7"/><path d="m24066 1047.4h-523.7v523.7h523.7v-523.7"/><path d="m24589 1571.1h-523.7v523.7h523.7v-523.7"/><path d="m25000 423.3h-523.7v523.7h523.7v-523.7"/><path d="m17300 947h-523.7v523.7h523.7v-523.7"/><path d="m19152 1571.1h-523.7v523.7h523.7v-523.7"/><path d="m16777 423.3h-523.7v523.7h523.7v-523.7"/></g><g><path d="m13553 2501.6c50.7-30.5 112.4-48.5 179-48.5 172.8 0 313 120.8 313 269.8 0-149 140.1-269.8 313-269.8 172.8 0 313 120.8 313 269.8 0-149 140.1-269.8 313-269.8 172.8 0 313 120.8 313 269.8 0-149 140.1-269.8 313-269.8s313 120.8 313 269.8c0-149 140.1-269.8 313-269.8s313 120.8 313 269.8c0-149 140.1-269.8 313-269.8s313 120.8 313 269.8c0-149 140.1-269.8 313-269.8s313 120.8 313 269.8c0-149 140.1-269.8 313-269.8s313 120.8 313 269.8c0-149 140.2-269.8 313-269.8 172.9 0 313 120.8 313 269.8 0-149 140.2-269.8 313-269.8 172.9 0 313 120.8 313 269.8 0-149 140.2-269.8 313-269.8 172.9 0 313 120.8 313 269.8 0-149 140.2-269.8 313.1-269.8 172.8 0 313 120.8 313 269.8 0-149 140.1-269.8 313-269.8 172.8 0 313 120.8 313 269.8 0-149 140.1-269.8 313-269.8 172.8 0 313 120.8 313 269.8 0-149 140.1-269.8 313-269.8 172.8 0 313 120.8 313 269.8 0-149 140.1-269.8 313-269.8s313 120.8 313 269.8c0-149 140.1-269.8 313-269.8s313 120.8 313 269.8c0-149 140.1-269.8 313-269.8s313 120.8 313 269.8c0-149 140.1-269.8 313-269.8v1096.9h-11447v-1048.4" fill="#ad5c40"/><path d="m25000 3547.8h-11491c-49.7 0-89.9-40.3-89.9-90v-423.5c0-149 140.1-269.8 313-269.8 172.8 0 313 120.8 313 269.8 0-149 140.1-269.8 313-269.8 172.8 0 313 120.8 313 269.8 0-149 140.1-269.8 313-269.8 172.8 0 313 120.8 313 269.8 0-149 140.1-269.8 313-269.8s313 120.8 313 269.8c0-149 140.1-269.8 313-269.8s313 120.8 313 269.8c0-149 140.1-269.8 313-269.8s313 120.8 313 269.8c0-149 140.1-269.8 313-269.8s313 120.8 313 269.8c0-149 140.1-269.8 313-269.8s313 120.8 313 269.8c0-149 140.2-269.8 313-269.8 172.9 0 313 120.8 313 269.8 0-149 140.2-269.8 313-269.8 172.9 0 313 120.8 313 269.8 0-149 140.2-269.8 313-269.8 172.9 0 313 120.8 313 269.8 0-149 140.2-269.8 313.1-269.8 172.8 0 313 120.8 313 269.8 0-149 140.1-269.8 313-269.8 172.8 0 313 120.8 313 269.8 0-149 140.1-269.8 313-269.8 172.8 0 313 120.8 313 269.8 0-149 140.1-269.8 313-269.8 172.8 0 313 120.8 313 269.8 0-149 140.1-269.8 313-269.8s313 120.8 313 269.8c0-149 140.1-269.8 313-269.8s313 120.8 313 269.8c0-149 140.1-269.8 313-269.8s313 120.8 313 269.8c0-149 140.1-269.8 313-269.8v783.3" fill="#7cb342"/><path d="m13419 3457.8v-107.8h11581v197.8h-11491c-49.7 0-89.9-40.3-89.9-90" fill="#dce775"/><path d="m13459 3457.8v-423.5c0-126.7 122.5-229.8 273.1-229.8 150.5 0 273 103.1 273 229.8 0 22.1 17.9 40 40 40s40-17.9 40-40c0-126.7 122.4-229.8 273-229.8 150.5 0 273 103.1 273 229.8 0 22.1 17.9 40 40 40s40-17.9 40-40c0-126.7 122.4-229.8 273-229.8 150.5 0 273 103.1 273 229.8 0 22.1 17.9 40 40 40s40-17.9 40-40c0-126.7 122.4-229.8 273-229.8 150.5 0 273 103.1 273 229.8 0 22.1 17.9 40 40 40s40-17.9 40-40c0-89.5 61.2-167.3 150.2-205.1 24.7-10.6 51.6-18.1 80-21.8 13.9-1.9 28.2-2.9 42.8-2.9 150.5 0 273 103.1 273 229.8 0 22.1 17.9 40 40 40s40-17.9 40-40c0-126.7 122.5-229.8 273-229.8s273 103.1 273 229.8c0 22.1 17.9 40 40 40s40-17.9 40-40c0-99.7 75.9-184.8 181.5-216.5 25.2-7.6 52-12.1 80-13.1 3.8-0.1 7.6-0.2 11.5-0.2 150.5 0 273 103.1 273 229.8 0 22.1 17.9 40 40 40s40-17.9 40-40c0-126.7 122.5-229.8 273-229.8 150.6 0 273 103.1 273 229.8 0 22.1 17.9 40 40 40s40-17.9 40-40c0-126.7 122.5-229.8 273-229.8 150.6 0 273 103.1 273 229.8 0 22.1 17.9 40 40 40s40-17.9 40-40c0-126.7 122.5-229.8 273-229.8 150.6 0 273 103.1 273 229.8 0 19.8 14.3 36.1 33.1 39.4 2.2 0.4 4.5 0.6 6.9 0.6 22.1 0 40-17.9 40-40 0-39.6 12-76.9 33.1-109.5 46.3-71.6 136.5-120.3 239.9-120.3 150.6 0 273 103.1 273 229.8 0 22.1 18 40 40 40 22.1 0 40-17.9 40-40 0-126.7 122.5-229.8 273-229.8 150.6 0 273.1 103.1 273.1 229.8 0 22.1 17.9 40 40 40 22 0 40-17.9 40-40 0-126.7 122.4-229.8 273-229.8 150.5 0 273 103.1 273 229.8 0 22.1 17.9 40 40 40s40-17.9 40-40c0-126.7 122.4-229.8 273-229.8 150.5 0 273 103.1 273 229.8 0 22.1 17.9 40 40 40s40-17.9 40-40c0-126.7 122.4-229.8 273-229.8 150.5 0 273 103.1 273 229.8 0 22.1 17.9 40 40 40s40-17.9 40-40c0-126.7 122.5-229.8 273-229.8s273 103.1 273 229.8c0 22.1 17.9 40 40 40s40-17.9 40-40c0-126.7 122.5-229.8 273-229.8s273 103.1 273 229.8c0 22.1 17.9 40 40 40s40-17.9 40-40c0-126.7 122.5-229.8 273-229.8s273 103.1 273 229.8c0 22.1 17.9 40 40 40s40-17.9 40-40c0-126.7 122.5-229.8 273-229.8v-80c-135.8 0-254 67.6-313 166.6-59-99-177.2-166.6-313-166.6s-254 67.6-313 166.6c-59-99-177.2-166.6-313-166.6s-254 67.6-313 166.6c-59-99-177.2-166.6-313-166.6s-254 67.6-313 166.6c-59-99-177.2-166.6-313-166.6-135.9 0-254 67.6-313 166.6-59-99-177.2-166.6-313-166.6-135.9 0-254 67.6-313 166.6-59-99-177.2-166.6-313-166.6-135.9 0-254 67.6-313 166.6-59-99-177.2-166.6-313.1-166.6-135.8 0-254 67.6-313 166.6-59-99-177.1-166.6-313-166.6-92.5 0-176.9 31.4-239.9 82.7-29.5 24-54.3 52.4-73.1 83.9-2.2-3.7-4.5-7.4-6.9-11-61-93-175.3-155.6-306.1-155.6-135.8 0-254 67.6-313 166.6-59-99-177.1-166.6-313-166.6-135.8 0-254 67.6-313 166.6-59-99-177.1-166.6-313-166.6-135.8 0-254 67.6-313 166.6-59-99-177.1-166.6-313-166.6-3.8 0-7.7 0.1-11.5 0.2-27.6 0.7-54.3 4.3-80 10.4-96.1 22.6-176.2 80.1-221.5 156-59-99-177.2-166.6-313-166.6s-254 67.6-313 166.6c-59-99-177.2-166.6-313-166.6-14.5 0-28.8 0.8-42.8 2.3-27.8 2.9-54.6 8.7-80 17-82.2 26.8-149.9 79.8-190.2 147.3-59-99-177.2-166.6-313-166.6-135.9 0-254 67.6-313 166.6-59-99-177.2-166.6-313-166.6-135.9 0-254 67.6-313 166.6-59-99-177.2-166.6-313-166.6-135.9 0-254 67.6-313 166.6-59-99-177.2-166.6-313-166.6-49.4 0-96.3 8.9-139 25v-2749.5h-80v2791.5c-81.6 56.8-134.1 144.5-134.1 242.8v423.5c0 71.7 58.4 130 130 130h11491v-80h-11491c-27.5 0-50-22.4-50-50" fill="#263238"/><path d="m17436 0h2275.6v4561.2h-2275.6z" fill="#7cb342"/><path d="m18927 0h371.1v4561.2h-371.1z" fill="#dce775"/><path d="m18556 18.801h185.5v4561.2h-185.5z" fill="#dce775"/><path d="m17755 0h-318.5v4561.2h1119.5v-318.5h-801v-4242.7" fill="#447a25"/><path d="m19712 4242.7h-414v318.5h414v-318.5m-785.1 0h-185.5v318.5h185.5v-318.5" fill="#447a25"/><path d="m18927 4242.7h371.1v318.5h-371.1z" fill="#799e42"/><path d="m18556 4242.7h185.5v318.5h-185.5z" fill="#799e42"/><path d="m19794 4561.2h-2440.5c-42.6 0-77.2 34.6-77.2 77.2v699.9c0 42.6 34.6 77.1 77.2 77.1h2440.5c42.6 0 77.2-34.5 77.2-77.1v-699.9c0-42.6-34.6-77.2-77.2-77.2" fill="#7cb342"/></g><g fill="#dce775"><path d="m17277 5338.3v-102.1h2594.9v102.1c0 42.6-34.6 77.1-77.2 77.1h-2440.5c-42.6 0-77.2-34.5-77.2-77.1"/><path d="m19484 4561.2h-371.1v854.2h371.1v-854.2"/><path d="m18927 4561.2h-185.5v854.2h185.5v-854.2"/></g><g><path d="m19832 4638.4c0-20.5-16.7-37.2-37.2-37.2h-2440.5c-20.5 0-37.2 16.7-37.2 37.2v699.9c0 20.4 16.7 37.1 37.2 37.1h2440.5c20.5 0 37.2-16.7 37.2-37.1zm-37.2 817h-2440.5c-64.6 0-117.2-52.5-117.2-117.1v-699.9c0-64.6 52.6-117.2 117.2-117.2h42.5v-4521.2h80v4521.2h2195.6v-4521.2h80v4521.2h42.4c64.6 0 117.2 52.6 117.2 117.2v699.9c0 64.6-52.6 117.1-117.2 117.1" fill="#263238"/><path d="m21766 9425.2h160v1291.4h-160z" fill="#7cb342"/><path d="m21926 9907.1c107.1 419.08 616.6 644.38 1233.3 206.48-403.9 107.5-570.6-455.62-1233.3-206.48" fill="#7cb342"/><path d="m21963 10011c159.5 348.8 633.3 502.1 1196.5 102.2 0 0-831.7 392.7-1196.5-102.2" fill="#fff"/><path d="m21766 9907.1c-107.1 419.08-616.7 644.38-1233.4 206.48 404 107.5 570.7-455.62 1233.4-206.48" fill="#7cb342"/><path d="m21729 10011c-159.5 348.8-633.3 502.1-1196.6 102.2 0 0 831.7 392.7 1196.6-102.2" fill="#fff"/><path d="m22277 13002-430.6-1459.4-430.7 1459.4c-478.2-175.5-819.5-634.9-819.5-1173.9 0-690.5 559.7-1250.1 1250.2-1250.1 690.4 0 1250.1 559.6 1250.1 1250.1 0 539-341.2 998.4-819.5 1173.9" fill="#ef3f39"/></g><g fill="#fff"><path d="m21314 12038c0-146-82-264.4-183.1-264.4-101 0-183 118.4-183 264.4 0 146.1 82 264.5 183 264.5 101.1 0 183.1-118.4 183.1-264.5"/><path d="m22378 12038c0-146 81.9-264.4 183-264.4s183 118.4 183 264.4c0 146.1-81.9 264.5-183 264.5s-183-118.4-183-264.5"/><path d="m23096 11853c-104 11.3-215.4-89.1-256.8-237.1-44.6-159.4 8.7-313.5 119-344.4 2.4-0.7 4.8-1.2 7.2-1.7 83.8 167.9 131.1 357.2 131.1 557.7 0 8.5-0.3 17-0.5 25.5"/><path d="m20596 11853c104.1 11.3 215.4-89.1 256.8-237.1 44.6-159.4-8.7-313.5-119-344.4-2.3-0.7-4.8-1.2-7.2-1.7-83.8 167.9-131.1 357.2-131.1 557.7 0 8.5 0.4 17 0.5 25.5"/><path d="m21534 11306c103.6-144 106.9-319 7.2-390.7-99.7-71.8-264.6-13.2-368.3 130.8-103.7 144.1-106.9 319-7.2 390.8s264.6 13.2 368.3-130.9"/><path d="m22158 11306c-103.7-144-106.9-319-7.2-390.7 99.7-71.8 264.6-13.2 368.2 130.8 103.7 144.1 106.9 319 7.2 390.8s-264.5 13.2-368.2-130.9"/><path d="m23091 11716c3.2 36.7 5 73.9 5 111.5 0 539-341.2 998.4-819.5 1173.9l-55.1-186.8c477.8-150.7 831.5-580.8 869.6-1098.6"/><path d="m21470 12816-55 186.3c-478.2-175.5-819.5-634.9-819.5-1173.9 0-34.5 1.5-68.5 4.2-102.3 41.7 514.3 394.7 940.5 870.3 1089.9"/></g><g clip-path="url(#clipPath626)"><path d="m20596 10578h2500.2v1297.9h-2500.2z" fill="#cd2d2d"/></g><g fill="#dbb6ca"><path d="m22965 11270c-2.4 0.5-4.8 1-7.2 1.7-50 14-88.2 53.3-111 106.9 104.1 138.8 179.9 299.9 219 474.8 2.5 0.3 5 0.4 7.4 0.5 8.5-45.1 14.5-91 17.9-137.7 3.1 35.5 4.9 71.4 5 107.7v-0.6-0.9-1.4-0.8-1.5-0.7c0-0.6 0-1.1-0.1-1.7v-0.5-6.8-0.3c-0.1-0.7-0.1-1.3-0.1-2v-0.2-2.3c-3.5-191.7-50.3-372.9-130.9-534.2"/><path d="m20727 11270c-80.5 161.3-127.3 342.5-130.8 534.2-0.1 0.8-0.1 1.5-0.1 2.3v0.2 2.1 0.2 2.2 0.1c-0.1 1.5-0.1 3-0.1 4.5v0.5 1.7 0.7 1.5 0.8 1.5 0.8 0.5c0.1-33.1 1.5-65.9 4.1-98.4 3.6 43.6 9.3 86.4 17.2 128.6 3-0.1 5.9-0.3 8.9-0.6 39.2-174.9 115-336 219-474.8-22.7-53.6-61-92.9-111-106.9-2.3-0.7-4.8-1.2-7.2-1.7"/><path d="m21441 10885c-90.1 0-194.6 59.2-268.3 161.5-11.3 15.8-21.5 31.9-30.4 48.2 119.6-81.6 254.1-142.9 398.5-179.2-28.8-20.7-63.1-30.5-99.8-30.5"/></g><g><path d="m23096 11824v0.3 0.1-0.4m0 1.2v0.2 0.1-0.3" fill="#cd2d2d"/><path d="m23096 11825v1.1-0.2-0.8-0.1" fill="#dbb6ca"/><path d="m20596 11826v0.4-0.2-0.2" fill="#cd2d2d"/><path d="m20596 11825v0.6 0.2-0.8" fill="#dbb6ca"/></g><g fill="#db92a6"><path d="m23096 11830v0.5-0.5"/><path d="m20596 11830v0.5-0.5"/><path d="m23096 11833v0.1-0.1"/><path d="m20596 11835v0.2-0.2"/><path d="m23096 11835v0.3-0.3"/></g><g fill="#dbb6ca"><path d="m22251 10885c-36.7 0-71 9.8-99.9 30.5 144.5 36.3 279 97.6 398.5 179.2-8.9-16.3-19-32.4-30.4-48.2-73.6-102.3-178.1-161.5-268.2-161.5"/><path d="m23091 11716c-3.4 46.7-9.4 92.6-17.9 137.7-1.1 6-2.2 11.9-3.4 17.8 7.2 34.9 13.1 70.3 17.3 106.3 5.7-47 8.7-94.7 9-143v-0.3-2.2-0.1-2.1-0.5-2.1-1.9-0.1-1.1-0.3-0.2-0.2c-0.1-36.3-1.9-72.2-5-107.7"/><path d="m20600 11726c-2.6 32.5-4 65.3-4.1 98.4v0.4c0 0.2-0.1 0.5-0.1 0.7v0.8 0.2 1.8 2.1 0.5c0.1 1.4 0.1 2.9 0.1 4.4v0.2c0.2 48.4 3.3 96.1 8.9 143.1 4.1-34.7 9.7-68.8 16.6-102.5-1.5-7.2-2.9-14.3-4.2-21.5-7.9-42.2-13.6-85-17.2-128.6"/></g><g fill="#fff"><path d="m22309 13127c-66.8 17.4-135.1-22.7-152.5-89.6l-310.7-1197-310.8 1197c-17.8 69.7-92.1 110.2-160.4 87.3-65.5-21.7-101.1-92.5-79.4-158.1l478.7-1445.2c22.8-68.5 120.7-68.9 143.7 0 1.5 6.5 480.7 1447.7 481.1 1453.1 17.3 66.9-22.8 135.2-89.7 152.5"/><path d="m21559 12946h169.1l-140.6-109.7z"/><path d="m21631 12667 133.5-6.1-106.5-97.8z"/><path d="m21965 12300-119.4 107.1 150.9 14.2z"/><path d="m22077 12732-156 104.3 190.7 29.3z"/><path d="m21728 12294 88.7 14.1-65.6-103.3z"/></g><g><path d="m22698 10037c-184.2-107.14-374.4-217.56-706.2-110.04 65.1 70.25 242.2 211.14 624.6 224.54 22 0.8 39.3 19.3 38.5 41.4-0.7 22.1-19.3 39.4-41.3 38.5-280.2-9.7-460.2-84.7-570.4-157.8 62 91.8 150.7 162 258 201.4 123.2 45.1 368.2 83.6 705-110-111.2-13.5-207.8-69.6-308.2-128zm-892-571.39v1073.2c13.3-0.4 26.6-0.7 40-0.7s26.7 0.3 40 0.7v-1073.2zm-812 571.39c-100.4 58.4-197 114.6-308.2 128 336.7 193.7 581.8 155.1 705 110 107.3-39.4 196-109.6 258-201.4-110.3 73.1-290.3 148.1-570.4 157.8-22.2 0.8-40.6-16.4-41.4-38.5s16.5-40.6 38.6-41.4c379.2-13.3 558-154.37 624-224.71-331.5-107.24-521.6 3.12-705.6 110.21zm-358.2 1791.3c0 231.4 65.6 456.3 189.5 650.4 112.5 176.1 267.9 319.6 451.3 417.6l459.6-1387.4c15.9-47.8 59-78.8 109.8-78.8 50.7 0 93.8 30.9 109.8 78.8l0.4 1.5c4.5 14.2 89.9 271.6 180.3 544 173.9 524.1 247.5 746.2 278.9 841.9 183.4-98 338.8-241.6 451.2-417.6 124-194.1 189.5-419 189.5-650.4 0-667.3-542.9-1210.2-1210.1-1210.2-667.3 0-1210.2 542.9-1210.2 1210.2zm702.3 1216.1c10.2 20.3 27.7 35.4 49.4 42.6 8.8 2.9 17.7 4.3 26.7 4.3 13.9 0 27.7-3.5 40.5-10.4 21.1-11.5 35.9-30.4 41.8-53.4l23.8-91.5c4.5-17.7 20.5-30 38.7-30h52.8l-48.9-38.2c-12.6-9.8-18.2-26.1-14.2-41.5l43.8-168.6c4.4-17 19.4-29.1 36.9-29.9l37.4-1.7-35.7-32.8c-10.9-10-15.3-25.1-11.6-39.5l69.8-269.1c5.2-19.9 24.8-32.6 45-29.4l1.2 0.2-18-28.5c-6-9.4-7.8-20.8-5-31.5l94.8-364.9c4.5-17.7 20.5-30 38.7-30s34.1 12.3 38.7 30l119.4 460c3.8 14.5-0.8 29.9-12 39.9l-51.3 46.1 59.9 5.6c16.7 1.6 30.7 13.5 34.9 29.8l80.5 310c4.3 16.4-2.3 33.8-16.5 43.3l-70.4 47.1 89 13.6c15.8 2.5 28.6 14.1 32.6 29.5l44.7 172.1c5.7 21.9 19.6 40.4 39.2 51.9s42.5 14.7 64.5 9c45.3-11.8 72.7-58.2 61-103.6-7.9-26-169.6-513.3-299.7-905.3-151.4-456.5-176.1-530.9-180.6-545.4-7.5-22.4-27.8-24.1-33.9-24.1s-26.5 1.7-33.9 24.1l-478.7 1445.2c-7.1 21.6-5.5 44.7 4.7 65zm1844.4-2897.8c-433.7 308-755.6 259.7-908.9 203.5-130-47.8-236.1-134.8-307.6-248.6v442.3c655.3 60.7 1170.1 613.6 1170.1 1284.5 0 246.7-69.9 486.5-202 693.4-122.6 192-293.2 347.7-494.6 452.2 17 85.1-35.2 170-120.2 192-42.7 11.1-87.1 4.9-125.1-17.4-38.1-22.4-65.1-58.2-76.2-100.8l-38-146.6-164.6-25.3c-16.3-2.5-29.4-14.7-33-30.8s3.1-32.8 16.8-41.9l132.3-88.5-66.3-255.4-123-11.6c-15.8-1.4-29.2-12.2-34.2-27.3-5-15-0.6-31.6 11.3-42.3l101.3-90.8-74.6-287.4-51.7 199 56.3 88.7c8.4 13.2 8.3 30.2-0.4 43.3-8.6 13.2-24.1 20-39.7 17.6l-52.9-8.4-54.7 210.7 88.8 81.5c11.9 11 16.1 28 10.6 43.1-5.6 15.2-19.7 25.6-35.8 26.4l-104 4.7-29.7 114.5 119.9 93.6c13.4 10.5 18.7 28.4 13.2 44.5-5.6 16.2-20.8 27-37.8 27h-138.2l-16 61.5c-11.2 44-40.7 81.8-81 103.6-40.1 21.9-87.8 26.1-130.7 11.8-41.8-13.9-75.8-43.2-95.6-82.6-16.7-33.3-21.5-70.5-14.2-106.5-201.4-104.5-371.9-260.1-494.5-452.1-132.2-206.9-202.1-446.7-202.1-693.4 0-670.9 514.9-1223.8 1170.2-1284.5v-442.3c-71.6 113.8-177.7 200.8-307.7 248.6-153.2 56.2-475.1 104.5-908.8-203.5-15.8-11.2-21.3-32.1-13.1-49.6s27.9-26.6 46.5-21.7c155.1 41.3 273.6-27.6 410.9-107.5 135.8-78.98 283.8-165.11 490.2-165.11 83.4 0 176.5 14.15 282 48.47v-425.55c0-22.09 17.9-40 40-40h160c22.1 0 40 17.91 40 40v425.54c105.5-34.32 198.5-48.46 281.9-48.46 206.4 0 354.5 86.13 490.3 165.11 137.2 79.8 255.8 148.8 410.8 107.5 18.7-4.9 38.3 4.2 46.5 21.7 8.3 17.5 2.8 38.4-13 49.6" fill="#263238"/><path d="m9019 6282.9h-175.28c-253.48 0-458.97-205.49-458.97-458.99v-250.4c0-253.5 205.49-459 458.97-459h175.28v1168.4" fill="#ff9700"/><path d="m8843.7 6282.9c-253.48 0-458.97-205.49-458.97-458.99v-105.1c0 253.4 205.49 458.92 458.97 458.92h175.28v105.17h-175.28" fill="#fafafa"/><path d="m9019 5114.5c-253.48 0-458.97 205.5-458.97 459v250.4c0 253.5 205.49 458.99 458.97 458.99 253.49 0 458.97-205.49 458.97-458.99v-250.4c0-253.5-205.48-459-458.97-459" fill="#ffb300"/><path d="m9478 5823.9c0 76.7-18.88 148.8-52.1 212.36l-758.11-758.16c57.13-67.8 133.56-118.9 220.86-144.7l589.35 589.3v101.2" fill="#ffe082"/><path d="m9175.3 6255.6-615.28-615.25v-66.8c0-51.7 8.67-101.4 24.42-147.7l740.33 740.31c-43.25 38.67-93.84 69.29-149.47 89.44" fill="#ffe082"/><path d="m9019 6282.9c-253.48 0-458.97-205.49-458.97-458.99v-87.6c0 253.5 205.49 458.95 458.97 458.95 253.49 0 458.97-205.45 458.97-458.95v87.6c0 253.5-205.48 458.99-458.97 458.99" fill="#fafafa"/><path d="m9043 6014.2 84.11-201.1 188.07-32.3-136.09-156.5 32.13-221.1-168.22 104.4-168.21-104.4 32.13 221.1-136.09 156.5 188.07 32.3 84.1 201.1" fill="#ff9700"/><path d="m9448 5573.5c0-236.6-192.44-429-428.97-429s-428.97 192.4-428.97 429v250.4c0 236.56 192.44 428.99 428.97 428.99s428.97-192.43 428.97-428.99zm-1033.2 0v250.4c0 213.1 156.19 390.32 360.07 423.39-146.17-84.64-244.79-242.66-244.79-423.39v-250.4c0-180.8 98.62-338.8 244.79-423.4-203.88 33.1-360.07 210.3-360.07 423.4zm604.25 739.39h-175.28c-269.62 0-488.97-219.35-488.97-488.99v-250.4c0-269.7 219.36-489 488.98-489h175.27c269.62 0 488.97 219.3 488.97 489v250.4c0 269.64-219.35 488.99-488.97 488.99" fill="#263238"/><path d="m9156.5 5643.9c-5.73-6.6-8.31-15.3-7.05-24l22.86-157.2-113.44 70.4c-4.84 3-10.33 4.5-15.82 4.5-5.48 0-10.97-1.5-15.82-4.5l-113.43-70.4 22.86 157.2c1.26 8.7-1.32 17.4-7.05 24l-101.12 116.4 135.53 23.2c10.12 1.7 18.65 8.5 22.61 18l56.42 134.9 56.44-134.9c3.95-9.5 12.49-16.3 22.61-18l135.51-23.2zm-8.02 195.9-77.75 185.97c-4.67 11.16-15.58 18.43-27.68 18.43s-23-7.27-27.67-18.43l-77.75-185.97-171.82-29.4c-10.69-1.9-19.55-9.3-23.19-19.5s-1.49-21.6 5.62-29.8l127.06-146.1-30.15-207.5c-1.68-11.6 3.49-23 13.25-29.4 9.74-6.4 22.33-6.6 32.26-0.4l152.39 94.5 152.4-94.5c4.85-3 10.34-4.5 15.82-4.5 5.72 0 11.45 1.6 16.43 4.9 9.77 6.4 14.93 17.8 13.25 29.4l-30.14 207.5 127.06 146.1c7.11 8.2 9.26 19.6 5.61 29.8-3.63 10.2-12.5 17.6-23.18 19.5l-171.82 29.4" fill="#263238"/><path d="m10832 6282.9h-175.3c-253.5 0-459-205.49-459-458.99v-250.4c0-253.5 205.5-459 459-459h175.3v1168.4" fill="#ff9700"/><path d="m10656 6282.9c-253.5 0-459-205.49-459-458.99v-105.1c0 253.4 205.5 458.92 459 458.92h175.3v105.17h-175.3" fill="#fafafa"/><path d="m10832 5114.5c-253.5 0-459 205.5-459 459v250.4c0 253.5 205.5 458.99 459 458.99 253.4 0 458.9-205.49 458.9-458.99v-250.4c0-253.5-205.5-459-458.9-459" fill="#ffb300"/><path d="m11290 5823.9c0 76.7-18.9 148.8-52.1 212.36l-758.1-758.16c57.1-67.8 133.6-118.9 220.9-144.7l589.3 589.3v101.2" fill="#ffe082"/><path d="m10988 6255.6-615.3-615.25v-66.8c0-51.7 8.7-101.4 24.4-147.7l740.3 740.31c-43.2 38.67-93.8 69.29-149.4 89.44" fill="#ffe082"/><path d="m10832 6282.9c-253.5 0-459-205.49-459-458.99v-87.6c0 253.5 205.5 458.95 459 458.95 253.4 0 458.9-205.45 458.9-458.95v87.6c0 253.5-205.5 458.99-458.9 458.99" fill="#fafafa"/><path d="m10856 6014.2 84.1-201.1 188-32.3-136-156.5 32.1-221.1-168.2 104.4-168.2-104.4 32.1 221.1-136.1 156.5 188.1 32.3 84.1 201.1" fill="#ff9700"/><path d="m11260 5573.5c0-236.6-192.4-429-428.9-429-236.6 0-429 192.4-429 429v250.4c0 236.56 192.4 428.99 429 428.99 236.5 0 428.9-192.43 428.9-428.99zm-1033.2 0v250.4c0 213.1 156.2 390.32 360.1 423.39-146.2-84.64-244.8-242.66-244.8-423.39v-250.4c0-180.8 98.6-338.8 244.8-423.4-203.9 33.1-360.1 210.3-360.1 423.4zm604.3 739.39h-175.3c-269.6 0-489-219.35-489-488.99v-250.4c0-269.7 219.4-489 489-489h175.3c269.6 0 488.9 219.3 488.9 489v250.4c0 269.64-219.3 488.99-488.9 488.99" fill="#263238"/><path d="m10969 5643.9c-5.7-6.6-8.3-15.3-7-24l22.8-157.2-113.4 70.4c-4.9 3-10.3 4.5-15.8 4.5s-11-1.5-15.9-4.5l-113.4-70.4 22.9 157.2c1.2 8.7-1.3 17.4-7.1 24l-101.1 116.4 135.5 23.2c10.2 1.7 18.7 8.5 22.6 18l56.5 134.9 56.4-134.9c4-9.5 12.5-16.3 22.6-18l135.5-23.2zm-8 195.9-77.8 185.97c-4.6 11.16-15.5 18.43-27.6 18.43s-23-7.27-27.7-18.43l-77.8-185.97-171.8-29.4c-10.7-1.9-19.5-9.3-23.2-19.5-3.6-10.2-1.5-21.6 5.7-29.8l127-146.1-30.1-207.5c-1.7-11.6 3.5-23 13.2-29.4 9.8-6.4 22.3-6.6 32.3-0.4l152.4 94.5 152.4-94.5c4.8-3 10.3-4.5 15.8-4.5 5.7 0 11.4 1.6 16.4 4.9 9.8 6.4 14.9 17.8 13.3 29.4l-30.2 207.5 127.1 146.1c7.1 8.2 9.2 19.6 5.6 29.8s-12.5 17.6-23.2 19.5l-171.8 29.4" fill="#263238"/><path d="m19243 9388.1h-175.3c-253.5 0-459-205.49-459-458.97v-250.46c0-253.48 205.5-458.97 459-458.97h175.3v1168.4" fill="#ff9700"/><path d="m19068 9388.1c-253.5 0-459-205.49-459-458.97v-105.17c0 253.49 205.5 458.98 459 458.98h175.3v105.16h-175.3" fill="#fafafa"/><path d="m19243 8219.7c-253.5 0-459 205.49-459 458.97v250.46c0 253.48 205.5 458.97 459 458.97s458.9-205.49 458.9-458.97v-250.46c0-253.48-205.4-458.97-458.9-458.97" fill="#ffb300"/><path d="m19702 8929.1c0 76.64-18.8 148.83-52.1 212.34l-758.1-758.12c57.2-67.88 133.6-118.92 220.9-144.75l589.3 589.35v101.18" fill="#ffe082"/><path d="m19399 9360.8-615.3-615.27v-66.82c0-51.68 8.7-101.31 24.4-147.67l740.3 740.32c-43.2 38.67-93.8 69.29-149.4 89.44" fill="#ffe082"/><path d="m19243 9388.1c-253.5 0-459-205.49-459-458.97v-87.64c0 253.49 205.5 458.97 459 458.97 253.4 0 458.9-205.48 458.9-458.97v87.64c0 253.48-205.5 458.97-458.9 458.97" fill="#fafafa"/><path d="m19267 9119.4 84.1-201.13 188.1-32.26-136.1-156.56 32.1-221.07-168.2 104.38-168.2-104.38 32.1 221.07-136.1 156.56 188.1 32.26 84.1 201.13" fill="#ff9700"/><path d="m19672 8678.7c0-236.53-192.4-428.97-428.9-428.97-236.6 0-429 192.44-429 428.97v250.46c0 236.54 192.4 428.98 429 428.98 236.5 0 428.9-192.44 428.9-428.98zm-1033.2 0v250.46c0 213.08 156.2 390.3 360.1 423.37-146.2-84.64-244.8-242.66-244.8-423.37v-250.46c0-180.71 98.6-338.73 244.8-423.36-203.9 33.06-360.1 210.28-360.1 423.36zm604.3 739.44h-175.3c-269.6 0-489-219.36-489-488.98v-250.46c0-269.62 219.4-488.97 489-488.97h175.3c269.6 0 488.9 219.35 488.9 488.97v250.46c0 269.62-219.3 488.98-488.9 488.98" fill="#263238"/><path d="m19380 8749.2c-5.7-6.6-8.3-15.36-7-24l22.8-157.27-113.4 70.38c-4.8 3-10.3 4.51-15.8 4.51s-11-1.51-15.8-4.51l-113.5-70.38 22.9 157.27c1.2 8.64-1.3 17.4-7.1 24l-101.1 116.31 135.5 23.25c10.2 1.73 18.7 8.52 22.7 17.99l56.4 134.95 56.4-134.95c4-9.47 12.5-16.26 22.6-17.99l135.5-23.25zm-8 195.91-77.7 185.92c-4.7 11.16-15.6 18.43-27.7 18.43s-23-7.27-27.7-18.43l-77.7-185.92-171.9-29.47c-10.7-1.84-19.5-9.28-23.2-19.49-3.6-10.21-1.4-21.58 5.7-29.76l127-146.17-30.1-207.46c-1.7-11.55 3.5-23.02 13.2-29.41 9.8-6.4 22.4-6.55 32.3-0.4l152.4 94.56 152.4-94.56c4.8-3.01 10.3-4.51 15.8-4.51 5.7 0 11.4 1.64 16.4 4.91 9.8 6.39 15 17.86 13.3 29.41l-30.2 207.46 127.1 146.17c7.1 8.18 9.3 19.55 5.6 29.76-3.6 10.21-12.5 17.65-23.2 19.49l-171.8 29.47" fill="#263238"/><path d="m16898 10645c0.1 4.2 0.4 8.4 0.4 12.6 0 287.7-233.2 520.8-520.8 520.8-102.5 0-197.9-29.6-278.4-80.7-139 196.5-367.9 325-626.9 325-423.8 0-767.4-343.6-767.4-767.4l0.1-2.2c-427.4-44.3-760.7-405.5-760.7-844.56 0-468.95 380.1-849.1 849.1-849.1 194.4 0 373.5 65.51 516.6 175.47 126.7-109.25 291.6-175.47 472-175.47 176.3 0 337.9 63.19 463.4 168.07 141.5-105.56 317-168.07 507.1-168.07 469 0 849.1 380.15 849.1 849.1 0 419.26-304 767.36-703.6 836.46" fill="#fff"/><path d="m15310 9134.9c126.7-109.25 291.6-175.47 472-175.47 176.3 0 337.9 63.19 463.4 168.07 141.5-105.56 317-168.07 507.1-168.07 381.3 0 703.9 251.31 811.2 597.32-549.8-370.58-1243.3 70.17-1243.3 70.17-426-393.23-1068.2-111.42-1068.2-111.42-747.7-283.02-1111.5 168.58-1275.6 525.39-21-73.83-32.3-151.77-32.3-232.36 0-468.95 380.1-849.1 849.1-849.1 194.4 0 373.5 65.51 516.6 175.47" fill="#fbe9e7"/><path d="m16753 8999.4c-175.7 0-342.8 55.37-483.2 160.14-7.1 5.3-15.5 7.93-23.9 7.93-9.2 0-18.3-3.11-25.7-9.3-122.5-102.38-278-158.77-437.7-158.77-163.6 0-321.9 58.87-445.8 165.77-14.4 12.38-35.5 12.98-50.5 1.43-142.4-109.38-312.7-167.2-492.3-167.2-446.2 0-809.1 362.96-809.1 809.1 0 416.06 311.6 761.96 724.8 804.76 20.4 2.1 35.9 19.3 35.9 39.8l-0.1 2.2c0 401.1 326.3 727.4 727.4 727.4 235.7 0 457.8-115.2 594.2-308.1 12.3-17.4 36.1-22.1 54.1-10.7 76.9 48.8 165.7 74.5 257 74.5 265.1 0 480.8-215.6 480.8-480.8 0-2.2-0.1-4.5-0.2-6.7l-0.1-5c-0.5-19.8 13.6-37 33.1-40.4 388.5-67.1 670.4-402.3 670.4-796.96 0-446.14-362.9-809.1-809.1-809.1zm185.5 1678.6c-10.7 299.9-258 540.4-560.4 540.4-94 0-185.8-23.4-267.7-68-152.7 196.2-388.3 312.3-637.6 312.3-434.1 0-789.3-344.3-806.7-774.2-436.5-62.5-761.3-434.7-761.3-879.96 0-490.25 398.8-889.1 889.1-889.1 186.7 0 364.2 56.84 515.3 164.71 134.5-106.44 301.3-164.71 473.3-164.71 168 0 331.8 55.85 464.7 157.86 148.9-103.38 323.2-157.86 505.8-157.86 490.3 0 889.1 398.85 889.1 889.1 0 422.36-293.9 782.86-703.6 869.46" fill="#263238"/><path d="m9498.7 9106h-1515.7v1515.7h1515.7v-1515.7" fill="#c17e52"/></g><g fill="#fafafa"><path d="m9498.7 10509h-1515.7v112.9h1515.7v-112.9"/><path d="m9498.7 10004h-1515.7v112.9h1515.7v-112.9"/><path d="m9498.7 9498.3h-1515.7v112.95h1515.7v-112.95"/></g><path d="m8780.9 9146v425.23h338.92l0.05 0.01h338.88v-425.24zm-757.85 425.24h338.87l0.05-0.01h338.93v-425.23h-677.85zm677.85 1010.4v-425.2h-677.85v425.2zm757.85-425.2h-677.85v425.2h677.85zm-298.93-80h298.93v-425.22h-298.93zm-757.85-425.22v425.22h677.85v-425.22zm-378.92 0v425.22h298.92v-425.22zm1475.7 1010.4h-1515.7c-22.09 0-40-17.9-40-40v-1515.7c0-22.08 17.91-40 40-40h1515.7c22.09 0 40 17.92 40 40v1515.7c0 22.1-17.91 40-40 40" fill="#263238"/><path d="m11014 9106h-1515.7v1515.7h1515.7v-1515.7" fill="#c17e52"/><g fill="#fafafa"><path d="m11014 10509h-1515.7v112.9h1515.7v-112.9"/><path d="m11014 10004h-1515.7v112.9h1515.7v-112.9"/><path d="m11014 9498.3h-1515.7v112.95h1515.7v-112.95"/></g><path d="m10296 9146v425.23h339v0.01h338.9v-425.24zm-757.82 425.24h338.88l0.04-0.01h338.9v-425.23h-677.82zm677.82 1010.4v-425.2h-677.82v425.2zm757.9-425.2h-677.9v425.2h677.9zm-298.9-80h298.9v-425.22h-298.9zm-757.9-425.22v425.22h677.9v-425.22zm-378.92 0v425.22h298.92v-425.22zm1475.7 1010.4h-1515.7c-22.09 0-40-17.9-40-40v-1515.7c0-22.08 17.91-40 40-40h1515.7c22.1 0 40 17.92 40 40v1515.7c0 22.1-17.9 40-40 40" fill="#263238"/><path d="m3494.5 11096h-1515.7v1515.7h1515.7v-1515.7" fill="#c17e52"/><g fill="#fafafa"><path d="m3494.5 12499h-1515.7v112.9h1515.7v-112.9"/><path d="m3494.5 11994h-1515.7v113h1515.7v-113"/><path d="m3494.5 11489h-1515.7v112.9h1515.7v-112.9"/></g><path d="m2776.7 11136v425.2h677.85v-425.2zm-757.85 425.2h677.85v-425.2h-677.85zm677.85 1010.5v-425.2h-677.85v425.2zm757.85-425.2h-677.85v425.2h677.85zm-298.93-80h298.93v-425.3h-298.93zm-1136.8-425.3v425.3h298.92v-425.3zm378.92 0v425.3h677.85v-425.3zm1096.8 1010.5h-1515.7c-22.09 0-40-17.9-40-40v-1515.7c0-22.1 17.91-40 40-40h1515.7c22.09 0 40 17.9 40 40v1515.7c0 22.1-17.91 40-40 40" fill="#263238"/><path d="m5009.7 11096h-1515.7v1515.7h1515.7v-1515.7" fill="#c17e52"/><g fill="#fafafa"><path d="m5009.7 12499h-1515.7v112.9h1515.7v-112.9"/><path d="m5009.7 11994h-1515.7v113h1515.7v-113"/><path d="m5009.7 11489h-1515.7v112.9h1515.7v-112.9"/></g><g><path d="m4291.8 11136v425.2h677.85v-425.2zm-757.85 425.2h677.85v-425.2h-677.85zm677.85 1010.5v-425.2h-677.85v425.2zm757.85-425.2h-677.85v425.2h677.85zm-298.93-80h298.93v-425.3h-298.93zm-1136.8-425.3v425.3h298.93v-425.3zm378.93 0v425.3h677.84v-425.3zm1096.8 1010.5h-1515.7c-22.09 0-40-17.9-40-40v-1515.7c0-22.1 17.91-40 40-40h1515.7c22.09 0 40 17.9 40 40v1515.7c0 22.1-17.91 40-40 40" fill="#263238"/><path d="m7983 9106h-1515.7v1515.7h1515.7v-1515.7" fill="#ffb300"/><path d="m7983 10509h-1515.7v112.9h1515.7v-112.9" fill="#fafafa"/></g><g fill="#263238"><path d="m7943 9146h-1435.7v1435.7h1435.7zm40 1515.7h-1515.7c-22.09 0-40-17.9-40-40v-1515.7c0-22.08 17.91-40 40-40h1515.7c22.09 0 40 17.92 40 40v1515.7c0 22.1-17.91 40-40 40"/><path d="m6760 10329h930.46v-930.44h-930.46zm-40-1010.4h1010.5c22.09 0 40 17.91 40 40v1010.4c0 22.1-17.91 40-40 40h-1010.5c-22.09 0-40-17.9-40-40v-1010.4c0-22.09 17.91-40 40-40"/><path d="m7317.7 10178h-185.03c-55.15 0-100-44.8-100-100v-90.05c0-22.09 17.91-40 40-40s40 17.91 40 40v90.05c0 11.1 8.97 20 20 20h185.03c11.03 0 20-8.9 20-20v-116.71c0-7.68-4.28-14.56-11.17-17.95l-85.52-42.09c-34.44-16.96-55.83-51.34-55.83-89.72v-62.01c0-22.09 17.91-40 40-40s40 17.91 40 40v62.01c0 7.68 4.28 14.56 11.17 17.94l85.51 42.09c34.44 16.96 55.84 51.34 55.84 89.73v116.71c0 55.2-44.86 100-100 100"/><path d="m7225.2 9656.8c-22.09 0-40-17.91-40-40v-26.78c0-22.09 17.91-40 40-40s40 17.91 40 40v26.78c0 22.09-17.91 40-40 40"/></g><g fill="#fff"><path d="m11182 7984.8c-139.5 0-253 113.49-253 252.99 0 7.46-6.1 13.51-13.5 13.51-7.5 0-13.5-6.05-13.5-13.51 0-139.14-112.9-252.41-252-252.99h-1v-0.01c-7.5 0-13.5-6.04-13.5-13.51 0-7.46 6-13.51 13.5-13.51 139.5 0 253-113.49 253-252.99 0-7.47 6-13.51 13.5-13.51 7.4 0 13.5 6.04 13.5 13.51 0 139.14 112.9 252.41 251.9 252.99h1.1c7.4 0 13.5 6.05 13.5 13.52 0 7.46-6.1 13.51-13.5 13.51"/><path d="m18915 12904c-139.5 0-253 113.5-253 253 0 7.4-6 13.5-13.5 13.5-7.4 0-13.5-6.1-13.5-13.5 0-139.2-112.9-252.4-251.9-253h-1.1c-7.4 0-13.5-6.1-13.5-13.5 0-7.5 6.1-13.5 13.5-13.5 139.5 0 253-113.5 253-253 0-7.5 6.1-13.5 13.5-13.5 7.5 0 13.5 6 13.5 13.5 0 139.1 112.9 252.4 252 253h1c7.5 0 13.6 6 13.6 13.5 0 7.4-6.1 13.5-13.6 13.5"/><path d="m12204 8797.4c-139.5 0-253 113.49-253 252.99 0 7.46-6 13.51-13.5 13.51s-13.5-6.05-13.5-13.51c0-139.14-112.9-252.41-251.9-252.99h-1.1v-0.01c-7.5 0-13.5-6.04-13.5-13.51 0-7.46 6-13.51 13.5-13.51 139.5 0 253-113.49 253-252.99 0-7.47 6-13.51 13.5-13.51s13.5 6.04 13.5 13.51c0 139.14 112.9 252.41 251.9 252.99h1.1c7.5 0 13.5 6.05 13.5 13.51 0 7.47-6 13.52-13.5 13.52"/><path d="m1235.1 9622.8c-139.5 0-252.99 113.5-252.99 252.99 0 7.47-6.047 13.52-13.512 13.52-7.464 0-13.511-6.05-13.511-13.52 0-139.13-112.9-252.4-251.91-252.99h-1.082c-7.465 0-13.512-6.05-13.512-13.51 0-7.47 6.047-13.51 13.512-13.51 139.5 0 253-113.49 253-252.99 0-7.47 6.047-13.51 13.511-13.51 7.465 0 13.512 6.04 13.512 13.51 0 139.13 112.9 252.41 251.91 252.99h1.08c7.47 0 13.51 6.05 13.51 13.51 0 7.47-6.04 13.51-13.51 13.51"/><path d="m23226 13811c-139.5 0-253 113.5-253 253 0 7.5-6.1 13.5-13.5 13.5-7.5 0-13.5-6-13.5-13.5 0-139.1-112.9-252.4-251.9-253h-1.1c-7.5 0-13.5-6-13.5-13.5s6-13.5 13.5-13.5c139.5 0 253-113.5 253-253 0-7.5 6-13.5 13.5-13.5 7.4 0 13.5 6 13.5 13.5 0 139.1 112.9 252.4 251.9 253h1.1c7.5 0 13.5 6 13.5 13.5s-6 13.5-13.5 13.5"/><path d="m15930 7602.4c-92.1 0-167.1 74.96-167.1 167.1 0 4.93-4 8.93-8.9 8.93-5 0-9-4-9-8.93 0-91.9-74.5-166.72-166.3-167.1h-0.8v-0.01c-4.9 0-8.9-3.99-8.9-8.92s4-8.93 8.9-8.93c92.2 0 167.1-74.96 167.1-167.1 0-4.93 4-8.93 9-8.93 4.9 0 8.9 4 8.9 8.93 0 91.9 74.6 166.72 166.4 167.1h0.7v0.01c4.9 0 8.9 3.99 8.9 8.92s-4 8.93-8.9 8.93"/><path d="m1758.5 9021.9c-92.14 0-167.11 74.96-167.11 167.1 0 4.93-3.99 8.93-8.92 8.93s-8.93-4-8.93-8.93c0-91.9-74.57-166.72-166.39-167.1h-0.71v-0.01c-4.93 0-8.93-3.99-8.93-8.92s4-8.93 8.93-8.93c92.14 0 167.1-74.96 167.1-167.1 0-4.93 4-8.93 8.93-8.93s8.92 4 8.92 8.93c0 91.9 74.58 166.72 166.4 167.1h0.71v0.01c4.93 0 8.93 3.99 8.93 8.92s-4 8.93-8.93 8.93"/><path d="m23829 13011c-92.1 0-167.1 74.9-167.1 167.1 0 4.9-4 8.9-8.9 8.9s-8.9-4-8.9-8.9c0-92-74.6-166.8-166.4-167.1h-0.7c-5 0-9-4-9-9 0-4.9 4-8.9 9-8.9 92.1 0 167.1-75 167.1-167.1 0-4.9 4-8.9 8.9-8.9s8.9 4 8.9 8.9c0 91.9 74.6 166.7 166.4 167.1h0.7c5 0 8.9 4 8.9 8.9 0 5-3.9 9-8.9 9"/><path d="m2217.6 13688c-92.15 0-167.11 74.9-167.11 167.1 0 4.9-4 8.9-8.93 8.9s-8.92-4-8.92-8.9c0-91.9-74.58-166.7-166.39-167.1h-0.72c-4.93 0-8.92-4-8.92-9 0-4.9 3.99-8.9 8.92-8.9 92.15 0 167.11-75 167.11-167.1 0-4.9 3.99-8.9 8.92-8.9s8.93 4 8.93 8.9c0 91.9 74.57 166.7 166.39 167.1h0.72c4.93 0 8.92 4 8.92 8.9 0 5-3.99 9-8.92 9"/><path d="m16705 8487.3c-92.1 0-167.1 74.96-167.1 167.1 0 4.93-4 8.93-8.9 8.93s-8.9-4-8.9-8.93c0-91.9-74.6-166.72-166.4-167.1h-0.7v-0.01c-5 0-9-3.99-9-8.92s4-8.92 9-8.92c92.1 0 167.1-74.97 167.1-167.11 0-4.93 4-8.92 8.9-8.92s8.9 3.99 8.9 8.92c0 91.9 74.6 166.72 166.4 167.11h0.7c5 0 9 3.99 9 8.92s-4 8.93-9 8.93"/></g></g></svg>

